<ttFont>
    <TTGlyph name="A" xMin="50" yMin="0" xMax="435" yMax="727">
      <contour>
        <pt x="184" y="0" on="1"/>
        <pt x="158" y="0" on="0"/>
        <pt x="110" y="10" on="0"/>
        <pt x="73" y="36" on="0"/>
        <pt x="50" y="82" on="0"/>
        <pt x="50" y="119" on="1"/>
        <pt x="50" y="606" on="1"/>
        <pt x="50" y="640" on="0"/>
        <pt x="78" y="687" on="0"/>
        <pt x="120" y="714" on="0"/>
        <pt x="171" y="726" on="0"/>
        <pt x="194" y="726" on="1"/>
        <pt x="194" y="0" on="1"/>
      </contour>
      <contour>
        <pt x="204" y="416" on="1"/>
        <pt x="285" y="416" on="1"/>
        <pt x="285" y="375" on="0"/>
        <pt x="255" y="320" on="0"/>
        <pt x="209" y="320" on="1"/>
        <pt x="204" y="320" on="1"/>
      </contour>
      <contour>
        <pt x="292" y="559" on="1"/>
        <pt x="292" y="570" on="0"/>
        <pt x="289" y="593" on="0"/>
        <pt x="280" y="612" on="0"/>
        <pt x="263" y="624" on="0"/>
        <pt x="248" y="624" on="1"/>
        <pt x="229" y="624" on="0"/>
        <pt x="216" y="612" on="1"/>
        <pt x="210" y="628" on="0"/>
        <pt x="210" y="641" on="1"/>
        <pt x="210" y="657" on="0"/>
        <pt x="221" y="688" on="0"/>
        <pt x="245" y="712" on="0"/>
        <pt x="282" y="727" on="0"/>
        <pt x="309" y="727" on="1"/>
        <pt x="339" y="727" on="0"/>
        <pt x="386" y="706" on="0"/>
        <pt x="418" y="669" on="0"/>
        <pt x="435" y="620" on="0"/>
        <pt x="435" y="592" on="1"/>
        <pt x="435" y="0" on="1"/>
        <pt x="408" y="0" on="0"/>
        <pt x="357" y="8" on="0"/>
        <pt x="316" y="33" on="0"/>
        <pt x="292" y="83" on="0"/>
        <pt x="292" y="125" on="1"/>
      </contour>
    </TTGlyph>
    <TTGlyph name="AE" xMin="50" yMin="0" xMax="655" yMax="727">
      <contour>
        <pt x="436" y="0" on="1"/>
        <pt x="426" y="0" on="1"/>
        <pt x="363" y="0" on="0"/>
        <pt x="292" y="54" on="0"/>
        <pt x="292" y="117" on="1"/>
        <pt x="292" y="559" on="1"/>
        <pt x="292" y="570" on="0"/>
        <pt x="289" y="593" on="0"/>
        <pt x="280" y="612" on="0"/>
        <pt x="263" y="624" on="0"/>
        <pt x="248" y="624" on="1"/>
        <pt x="229" y="624" on="0"/>
        <pt x="216" y="612" on="1"/>
        <pt x="210" y="628" on="0"/>
        <pt x="210" y="641" on="1"/>
        <pt x="210" y="657" on="0"/>
        <pt x="221" y="687" on="0"/>
        <pt x="245" y="711" on="0"/>
        <pt x="282" y="726" on="0"/>
        <pt x="309" y="726" on="1"/>
        <pt x="338" y="726" on="0"/>
        <pt x="361" y="717" on="1"/>
        <pt x="388" y="726" on="0"/>
        <pt x="420" y="726" on="1"/>
        <pt x="436" y="726" on="1"/>
      </contour>
      <contour>
        <pt x="184" y="0" on="1"/>
        <pt x="158" y="0" on="0"/>
        <pt x="110" y="10" on="0"/>
        <pt x="73" y="36" on="0"/>
        <pt x="50" y="82" on="0"/>
        <pt x="50" y="119" on="1"/>
        <pt x="50" y="596" on="1"/>
        <pt x="50" y="633" on="0"/>
        <pt x="73" y="683" on="0"/>
        <pt x="111" y="713" on="0"/>
        <pt x="159" y="726" on="0"/>
        <pt x="185" y="726" on="1"/>
        <pt x="194" y="726" on="1"/>
        <pt x="194" y="0" on="1"/>
      </contour>
      <contour>
        <pt x="655" y="96" on="1"/>
        <pt x="655" y="79" on="0"/>
        <pt x="643" y="45" on="0"/>
        <pt x="617" y="18" on="0"/>
        <pt x="579" y="0" on="0"/>
        <pt x="553" y="0" on="1"/>
        <pt x="534" y="0" on="0"/>
        <pt x="498" y="12" on="0"/>
        <pt x="471" y="33" on="0"/>
        <pt x="454" y="64" on="0"/>
        <pt x="454" y="83" on="1"/>
        <pt x="454" y="91" on="0"/>
        <pt x="455" y="110" on="0"/>
        <pt x="458" y="118" on="1"/>
        <pt x="471" y="106" on="0"/>
        <pt x="490" y="106" on="1"/>
        <pt x="505" y="106" on="0"/>
        <pt x="525" y="125" on="0"/>
        <pt x="525" y="144" on="1"/>
        <pt x="525" y="193" on="1"/>
        <pt x="533" y="195" on="0"/>
        <pt x="545" y="195" on="1"/>
        <pt x="559" y="195" on="0"/>
        <pt x="597" y="188" on="0"/>
        <pt x="631" y="166" on="0"/>
        <pt x="655" y="127" on="0"/>
      </contour>
      <contour>
        <pt x="655" y="631" on="1"/>
        <pt x="655" y="599" on="0"/>
        <pt x="631" y="561" on="0"/>
        <pt x="597" y="539" on="0"/>
        <pt x="559" y="532" on="0"/>
        <pt x="545" y="532" on="1"/>
        <pt x="533" y="532" on="0"/>
        <pt x="525" y="534" on="1"/>
        <pt x="525" y="580" on="1"/>
        <pt x="525" y="600" on="0"/>
        <pt x="506" y="621" on="0"/>
        <pt x="490" y="621" on="1"/>
        <pt x="473" y="621" on="0"/>
        <pt x="460" y="610" on="1"/>
        <pt x="457" y="618" on="0"/>
        <pt x="454" y="640" on="0"/>
        <pt x="454" y="648" on="1"/>
        <pt x="454" y="660" on="0"/>
        <pt x="465" y="688" on="0"/>
        <pt x="488" y="711" on="0"/>
        <pt x="525" y="727" on="0"/>
        <pt x="551" y="727" on="1"/>
        <pt x="572" y="727" on="0"/>
        <pt x="610" y="713" on="0"/>
        <pt x="638" y="687" on="0"/>
        <pt x="655" y="652" on="0"/>
      </contour>
      <contour>
        <pt x="457" y="416" on="1"/>
        <pt x="546" y="416" on="1"/>
        <pt x="546" y="393" on="0"/>
        <pt x="539" y="355" on="0"/>
        <pt x="520" y="326" on="0"/>
        <pt x="488" y="310" on="0"/>
        <pt x="463" y="310" on="1"/>
        <pt x="457" y="310" on="1"/>
      </contour>
      <contour>
        <pt x="204" y="416" on="1"/>
        <pt x="285" y="416" on="1"/>
        <pt x="285" y="375" on="0"/>
        <pt x="255" y="320" on="0"/>
        <pt x="209" y="320" on="1"/>
        <pt x="204" y="320" on="1"/>
      </contour>
    </TTGlyph>
    <TTGlyph name="Aacute" xMin="50" yMin="0" xMax="435" yMax="922">
      <contour>
        <pt x="184" y="0" on="1"/>
        <pt x="158" y="0" on="0"/>
        <pt x="110" y="10" on="0"/>
        <pt x="73" y="36" on="0"/>
        <pt x="50" y="82" on="0"/>
        <pt x="50" y="119" on="1"/>
        <pt x="50" y="606" on="1"/>
        <pt x="50" y="640" on="0"/>
        <pt x="78" y="687" on="0"/>
        <pt x="120" y="714" on="0"/>
        <pt x="171" y="726" on="0"/>
        <pt x="194" y="726" on="1"/>
        <pt x="194" y="0" on="1"/>
      </contour>
      <contour>
        <pt x="204" y="416" on="1"/>
        <pt x="285" y="416" on="1"/>
        <pt x="285" y="375" on="0"/>
        <pt x="255" y="320" on="0"/>
        <pt x="209" y="320" on="1"/>
        <pt x="204" y="320" on="1"/>
      </contour>
      <contour>
        <pt x="292" y="559" on="1"/>
        <pt x="292" y="570" on="0"/>
        <pt x="289" y="593" on="0"/>
        <pt x="280" y="612" on="0"/>
        <pt x="263" y="624" on="0"/>
        <pt x="248" y="624" on="1"/>
        <pt x="229" y="624" on="0"/>
        <pt x="216" y="612" on="1"/>
        <pt x="210" y="628" on="0"/>
        <pt x="210" y="641" on="1"/>
        <pt x="210" y="657" on="0"/>
        <pt x="221" y="688" on="0"/>
        <pt x="245" y="712" on="0"/>
        <pt x="282" y="727" on="0"/>
        <pt x="309" y="727" on="1"/>
        <pt x="339" y="727" on="0"/>
        <pt x="386" y="706" on="0"/>
        <pt x="418" y="669" on="0"/>
        <pt x="435" y="620" on="0"/>
        <pt x="435" y="592" on="1"/>
        <pt x="435" y="0" on="1"/>
        <pt x="408" y="0" on="0"/>
        <pt x="357" y="8" on="0"/>
        <pt x="316" y="33" on="0"/>
        <pt x="292" y="83" on="0"/>
        <pt x="292" y="125" on="1"/>
      </contour>
      <contour>
        <pt x="153" y="780" on="1"/>
        <pt x="153" y="802" on="0"/>
        <pt x="158" y="852" on="0"/>
        <pt x="179" y="894" on="0"/>
        <pt x="220" y="922" on="0"/>
        <pt x="256" y="922" on="1"/>
        <pt x="332" y="922" on="1"/>
        <pt x="332" y="899" on="0"/>
        <pt x="327" y="849" on="0"/>
        <pt x="307" y="807" on="0"/>
        <pt x="265" y="780" on="0"/>
        <pt x="229" y="780" on="1"/>
      </contour>
    </TTGlyph>
    <TTGlyph name="Acircumflex" xMin="50" yMin="0" xMax="435" yMax="905">
      <contour>
        <pt x="366" y="852" on="1"/>
        <pt x="380" y="844" on="0"/>
        <pt x="392" y="820" on="0"/>
        <pt x="392" y="805" on="1"/>
        <pt x="392" y="785" on="0"/>
        <pt x="367" y="748" on="0"/>
        <pt x="344" y="743" on="1"/>
        <pt x="268" y="785" on="1"/>
        <pt x="194" y="743" on="1"/>
        <pt x="168" y="750" on="0"/>
        <pt x="144" y="784" on="0"/>
        <pt x="144" y="802" on="1"/>
        <pt x="144" y="817" on="0"/>
        <pt x="158" y="844" on="0"/>
        <pt x="171" y="851" on="1"/>
        <pt x="268" y="905" on="1"/>
      </contour>
      <contour>
        <pt x="184" y="0" on="1"/>
        <pt x="158" y="0" on="0"/>
        <pt x="110" y="10" on="0"/>
        <pt x="73" y="36" on="0"/>
        <pt x="50" y="82" on="0"/>
        <pt x="50" y="119" on="1"/>
        <pt x="50" y="606" on="1"/>
        <pt x="50" y="640" on="0"/>
        <pt x="78" y="687" on="0"/>
        <pt x="120" y="714" on="0"/>
        <pt x="171" y="726" on="0"/>
        <pt x="194" y="726" on="1"/>
        <pt x="194" y="0" on="1"/>
      </contour>
      <contour>
        <pt x="204" y="416" on="1"/>
        <pt x="285" y="416" on="1"/>
        <pt x="285" y="375" on="0"/>
        <pt x="255" y="320" on="0"/>
        <pt x="209" y="320" on="1"/>
        <pt x="204" y="320" on="1"/>
      </contour>
      <contour>
        <pt x="292" y="559" on="1"/>
        <pt x="292" y="570" on="0"/>
        <pt x="289" y="593" on="0"/>
        <pt x="280" y="612" on="0"/>
        <pt x="263" y="624" on="0"/>
        <pt x="248" y="624" on="1"/>
        <pt x="229" y="624" on="0"/>
        <pt x="216" y="612" on="1"/>
        <pt x="210" y="628" on="0"/>
        <pt x="210" y="641" on="1"/>
        <pt x="210" y="657" on="0"/>
        <pt x="221" y="688" on="0"/>
        <pt x="245" y="712" on="0"/>
        <pt x="282" y="727" on="0"/>
        <pt x="309" y="727" on="1"/>
        <pt x="339" y="727" on="0"/>
        <pt x="386" y="706" on="0"/>
        <pt x="418" y="669" on="0"/>
        <pt x="435" y="620" on="0"/>
        <pt x="435" y="592" on="1"/>
        <pt x="435" y="0" on="1"/>
        <pt x="408" y="0" on="0"/>
        <pt x="357" y="8" on="0"/>
        <pt x="316" y="33" on="0"/>
        <pt x="292" y="83" on="0"/>
        <pt x="292" y="125" on="1"/>
      </contour>
    </TTGlyph>
    <TTGlyph name="Adieresis" xMin="50" yMin="0" xMax="435" yMax="892">
      <contour>
        <pt x="184" y="0" on="1"/>
        <pt x="158" y="0" on="0"/>
        <pt x="110" y="10" on="0"/>
        <pt x="73" y="36" on="0"/>
        <pt x="50" y="82" on="0"/>
        <pt x="50" y="119" on="1"/>
        <pt x="50" y="606" on="1"/>
        <pt x="50" y="640" on="0"/>
        <pt x="78" y="687" on="0"/>
        <pt x="120" y="714" on="0"/>
        <pt x="171" y="726" on="0"/>
        <pt x="194" y="726" on="1"/>
        <pt x="194" y="0" on="1"/>
      </contour>
      <contour>
        <pt x="204" y="416" on="1"/>
        <pt x="285" y="416" on="1"/>
        <pt x="285" y="375" on="0"/>
        <pt x="255" y="320" on="0"/>
        <pt x="209" y="320" on="1"/>
        <pt x="204" y="320" on="1"/>
      </contour>
      <contour>
        <pt x="292" y="559" on="1"/>
        <pt x="292" y="570" on="0"/>
        <pt x="289" y="593" on="0"/>
        <pt x="280" y="612" on="0"/>
        <pt x="263" y="624" on="0"/>
        <pt x="248" y="624" on="1"/>
        <pt x="229" y="624" on="0"/>
        <pt x="216" y="612" on="1"/>
        <pt x="210" y="628" on="0"/>
        <pt x="210" y="641" on="1"/>
        <pt x="210" y="657" on="0"/>
        <pt x="221" y="688" on="0"/>
        <pt x="245" y="712" on="0"/>
        <pt x="282" y="727" on="0"/>
        <pt x="309" y="727" on="1"/>
        <pt x="339" y="727" on="0"/>
        <pt x="386" y="706" on="0"/>
        <pt x="418" y="669" on="0"/>
        <pt x="435" y="620" on="0"/>
        <pt x="435" y="592" on="1"/>
        <pt x="435" y="0" on="1"/>
        <pt x="408" y="0" on="0"/>
        <pt x="357" y="8" on="0"/>
        <pt x="316" y="33" on="0"/>
        <pt x="292" y="83" on="0"/>
        <pt x="292" y="125" on="1"/>
      </contour>
      <contour>
        <pt x="94" y="822" on="1"/>
        <pt x="94" y="851" on="0"/>
        <pt x="135" y="892" on="0"/>
        <pt x="164" y="892" on="1"/>
        <pt x="193" y="892" on="0"/>
        <pt x="234" y="851" on="0"/>
        <pt x="234" y="822" on="1"/>
        <pt x="234" y="793" on="0"/>
        <pt x="193" y="753" on="0"/>
        <pt x="164" y="753" on="1"/>
        <pt x="135" y="753" on="0"/>
        <pt x="94" y="793" on="0"/>
      </contour>
      <contour>
        <pt x="250" y="822" on="1"/>
        <pt x="250" y="851" on="0"/>
        <pt x="292" y="892" on="0"/>
        <pt x="321" y="892" on="1"/>
        <pt x="350" y="892" on="0"/>
        <pt x="390" y="851" on="0"/>
        <pt x="390" y="822" on="1"/>
        <pt x="390" y="793" on="0"/>
        <pt x="350" y="753" on="0"/>
        <pt x="321" y="753" on="1"/>
        <pt x="292" y="753" on="0"/>
        <pt x="250" y="793" on="0"/>
      </contour>
    </TTGlyph>
    <TTGlyph name="Agrave" xMin="50" yMin="0" xMax="435" yMax="912">
      <contour>
        <pt x="184" y="0" on="1"/>
        <pt x="158" y="0" on="0"/>
        <pt x="110" y="10" on="0"/>
        <pt x="73" y="36" on="0"/>
        <pt x="50" y="82" on="0"/>
        <pt x="50" y="119" on="1"/>
        <pt x="50" y="606" on="1"/>
        <pt x="50" y="640" on="0"/>
        <pt x="78" y="687" on="0"/>
        <pt x="120" y="714" on="0"/>
        <pt x="171" y="726" on="0"/>
        <pt x="194" y="726" on="1"/>
        <pt x="194" y="0" on="1"/>
      </contour>
      <contour>
        <pt x="204" y="416" on="1"/>
        <pt x="285" y="416" on="1"/>
        <pt x="285" y="375" on="0"/>
        <pt x="255" y="320" on="0"/>
        <pt x="209" y="320" on="1"/>
        <pt x="204" y="320" on="1"/>
      </contour>
      <contour>
        <pt x="292" y="559" on="1"/>
        <pt x="292" y="570" on="0"/>
        <pt x="289" y="593" on="0"/>
        <pt x="280" y="612" on="0"/>
        <pt x="263" y="624" on="0"/>
        <pt x="248" y="624" on="1"/>
        <pt x="229" y="624" on="0"/>
        <pt x="216" y="612" on="1"/>
        <pt x="210" y="628" on="0"/>
        <pt x="210" y="641" on="1"/>
        <pt x="210" y="657" on="0"/>
        <pt x="221" y="688" on="0"/>
        <pt x="245" y="712" on="0"/>
        <pt x="282" y="727" on="0"/>
        <pt x="309" y="727" on="1"/>
        <pt x="339" y="727" on="0"/>
        <pt x="386" y="706" on="0"/>
        <pt x="418" y="669" on="0"/>
        <pt x="435" y="620" on="0"/>
        <pt x="435" y="592" on="1"/>
        <pt x="435" y="0" on="1"/>
        <pt x="408" y="0" on="0"/>
        <pt x="357" y="8" on="0"/>
        <pt x="316" y="33" on="0"/>
        <pt x="292" y="83" on="0"/>
        <pt x="292" y="125" on="1"/>
      </contour>
      <contour>
        <pt x="256" y="770" on="1"/>
        <pt x="220" y="770" on="0"/>
        <pt x="178" y="797" on="0"/>
        <pt x="158" y="839" on="0"/>
        <pt x="153" y="889" on="0"/>
        <pt x="153" y="912" on="1"/>
        <pt x="229" y="912" on="1"/>
        <pt x="265" y="912" on="0"/>
        <pt x="306" y="884" on="0"/>
        <pt x="327" y="842" on="0"/>
        <pt x="332" y="792" on="0"/>
        <pt x="332" y="770" on="1"/>
      </contour>
    </TTGlyph>
    <TTGlyph name="Aring" xMin="50" yMin="0" xMax="435" yMax="958">
      <contour>
        <pt x="197" y="845" on="1"/>
        <pt x="197" y="833" on="0"/>
        <pt x="204" y="813" on="0"/>
        <pt x="219" y="813" on="1"/>
        <pt x="223" y="813" on="0"/>
        <pt x="232" y="815" on="0"/>
        <pt x="236" y="818" on="1"/>
        <pt x="239" y="810" on="0"/>
        <pt x="239" y="803" on="1"/>
        <pt x="239" y="783" on="0"/>
        <pt x="209" y="756" on="0"/>
        <pt x="188" y="756" on="1"/>
        <pt x="150" y="756" on="0"/>
        <pt x="118" y="798" on="0"/>
        <pt x="118" y="824" on="1"/>
        <pt x="118" y="890" on="1"/>
        <pt x="118" y="919" on="0"/>
        <pt x="152" y="958" on="0"/>
        <pt x="182" y="958" on="1"/>
        <pt x="213" y="958" on="0"/>
        <pt x="238" y="926" on="0"/>
        <pt x="238" y="907" on="1"/>
        <pt x="238" y="900" on="0"/>
        <pt x="236" y="897" on="1"/>
        <pt x="229" y="902" on="0"/>
        <pt x="219" y="902" on="1"/>
        <pt x="206" y="902" on="0"/>
        <pt x="197" y="887" on="0"/>
        <pt x="197" y="877" on="1"/>
      </contour>
      <contour>
        <pt x="286" y="877" on="1"/>
        <pt x="286" y="887" on="0"/>
        <pt x="277" y="902" on="0"/>
        <pt x="264" y="902" on="1"/>
        <pt x="254" y="902" on="0"/>
        <pt x="247" y="897" on="1"/>
        <pt x="245" y="900" on="0"/>
        <pt x="245" y="907" on="1"/>
        <pt x="245" y="926" on="0"/>
        <pt x="269" y="958" on="0"/>
        <pt x="301" y="958" on="1"/>
        <pt x="331" y="958" on="0"/>
        <pt x="365" y="919" on="0"/>
        <pt x="365" y="890" on="1"/>
        <pt x="365" y="824" on="1"/>
        <pt x="365" y="798" on="0"/>
        <pt x="333" y="756" on="0"/>
        <pt x="295" y="756" on="1"/>
        <pt x="274" y="756" on="0"/>
        <pt x="244" y="783" on="0"/>
        <pt x="244" y="803" on="1"/>
        <pt x="244" y="810" on="0"/>
        <pt x="247" y="818" on="1"/>
        <pt x="251" y="815" on="0"/>
        <pt x="260" y="813" on="0"/>
        <pt x="264" y="813" on="1"/>
        <pt x="279" y="813" on="0"/>
        <pt x="286" y="833" on="0"/>
        <pt x="286" y="845" on="1"/>
      </contour>
      <contour>
        <pt x="184" y="0" on="1"/>
        <pt x="158" y="0" on="0"/>
        <pt x="110" y="10" on="0"/>
        <pt x="73" y="36" on="0"/>
        <pt x="50" y="82" on="0"/>
        <pt x="50" y="119" on="1"/>
        <pt x="50" y="606" on="1"/>
        <pt x="50" y="640" on="0"/>
        <pt x="78" y="687" on="0"/>
        <pt x="120" y="714" on="0"/>
        <pt x="171" y="726" on="0"/>
        <pt x="194" y="726" on="1"/>
        <pt x="194" y="0" on="1"/>
      </contour>
      <contour>
        <pt x="204" y="416" on="1"/>
        <pt x="285" y="416" on="1"/>
        <pt x="285" y="375" on="0"/>
        <pt x="255" y="320" on="0"/>
        <pt x="209" y="320" on="1"/>
        <pt x="204" y="320" on="1"/>
      </contour>
      <contour>
        <pt x="292" y="559" on="1"/>
        <pt x="292" y="570" on="0"/>
        <pt x="289" y="593" on="0"/>
        <pt x="280" y="612" on="0"/>
        <pt x="263" y="624" on="0"/>
        <pt x="248" y="624" on="1"/>
        <pt x="229" y="624" on="0"/>
        <pt x="216" y="612" on="1"/>
        <pt x="210" y="628" on="0"/>
        <pt x="210" y="641" on="1"/>
        <pt x="210" y="657" on="0"/>
        <pt x="221" y="688" on="0"/>
        <pt x="245" y="712" on="0"/>
        <pt x="282" y="727" on="0"/>
        <pt x="309" y="727" on="1"/>
        <pt x="339" y="727" on="0"/>
        <pt x="386" y="706" on="0"/>
        <pt x="418" y="669" on="0"/>
        <pt x="435" y="620" on="0"/>
        <pt x="435" y="592" on="1"/>
        <pt x="435" y="0" on="1"/>
        <pt x="408" y="0" on="0"/>
        <pt x="357" y="8" on="0"/>
        <pt x="316" y="33" on="0"/>
        <pt x="292" y="83" on="0"/>
        <pt x="292" y="125" on="1"/>
      </contour>
    </TTGlyph>
    <TTGlyph name="Atilde" xMin="50" yMin="0" xMax="435" yMax="897">
      <contour>
        <pt x="292" y="559" on="1"/>
        <pt x="292" y="570" on="0"/>
        <pt x="289" y="593" on="0"/>
        <pt x="280" y="612" on="0"/>
        <pt x="263" y="624" on="0"/>
        <pt x="248" y="624" on="1"/>
        <pt x="229" y="624" on="0"/>
        <pt x="216" y="612" on="1"/>
        <pt x="210" y="628" on="0"/>
        <pt x="210" y="641" on="1"/>
        <pt x="210" y="657" on="0"/>
        <pt x="221" y="688" on="0"/>
        <pt x="245" y="712" on="0"/>
        <pt x="282" y="727" on="0"/>
        <pt x="309" y="727" on="1"/>
        <pt x="339" y="727" on="0"/>
        <pt x="386" y="706" on="0"/>
        <pt x="418" y="669" on="0"/>
        <pt x="435" y="620" on="0"/>
        <pt x="435" y="592" on="1"/>
        <pt x="435" y="0" on="1"/>
        <pt x="408" y="0" on="0"/>
        <pt x="357" y="8" on="0"/>
        <pt x="316" y="33" on="0"/>
        <pt x="292" y="83" on="0"/>
        <pt x="292" y="125" on="1"/>
      </contour>
      <contour>
        <pt x="184" y="0" on="1"/>
        <pt x="158" y="0" on="0"/>
        <pt x="110" y="10" on="0"/>
        <pt x="73" y="36" on="0"/>
        <pt x="50" y="82" on="0"/>
        <pt x="50" y="119" on="1"/>
        <pt x="50" y="606" on="1"/>
        <pt x="50" y="640" on="0"/>
        <pt x="78" y="687" on="0"/>
        <pt x="120" y="714" on="0"/>
        <pt x="171" y="726" on="0"/>
        <pt x="194" y="726" on="1"/>
        <pt x="194" y="0" on="1"/>
      </contour>
      <contour>
        <pt x="291" y="750" on="1"/>
        <pt x="272" y="753" on="0"/>
        <pt x="242" y="763" on="0"/>
        <pt x="213" y="772" on="0"/>
        <pt x="185" y="779" on="0"/>
        <pt x="169" y="779" on="1"/>
        <pt x="152" y="779" on="0"/>
        <pt x="120" y="764" on="0"/>
        <pt x="106" y="744" on="1"/>
        <pt x="87" y="772" on="0"/>
        <pt x="87" y="803" on="1"/>
        <pt x="87" y="822" on="0"/>
        <pt x="102" y="857" on="0"/>
        <pt x="129" y="882" on="0"/>
        <pt x="164" y="897" on="0"/>
        <pt x="184" y="897" on="1"/>
        <pt x="204" y="897" on="0"/>
        <pt x="235" y="889" on="0"/>
        <pt x="263" y="878" on="0"/>
        <pt x="290" y="870" on="0"/>
        <pt x="306" y="870" on="1"/>
        <pt x="322" y="870" on="0"/>
        <pt x="354" y="881" on="0"/>
        <pt x="371" y="896" on="1"/>
        <pt x="395" y="860" on="0"/>
        <pt x="395" y="829" on="1"/>
        <pt x="395" y="797" on="0"/>
        <pt x="351" y="749" on="0"/>
        <pt x="309" y="749" on="1"/>
        <pt x="300" y="749" on="1"/>
        <pt x="296" y="749" on="0"/>
      </contour>
      <contour>
        <pt x="204" y="416" on="1"/>
        <pt x="285" y="416" on="1"/>
        <pt x="285" y="375" on="0"/>
        <pt x="255" y="320" on="0"/>
        <pt x="209" y="320" on="1"/>
        <pt x="204" y="320" on="1"/>
      </contour>
    </TTGlyph>
    <TTGlyph name="B" xMin="50" yMin="0" xMax="428" yMax="726">
      <contour>
        <pt x="194" y="0" on="1"/>
        <pt x="184" y="0" on="1"/>
        <pt x="158" y="0" on="0"/>
        <pt x="110" y="10" on="0"/>
        <pt x="73" y="36" on="0"/>
        <pt x="50" y="82" on="0"/>
        <pt x="50" y="119" on="1"/>
        <pt x="50" y="606" on="1"/>
        <pt x="50" y="642" on="0"/>
        <pt x="72" y="688" on="0"/>
        <pt x="108" y="715" on="0"/>
        <pt x="154" y="726" on="0"/>
        <pt x="178" y="726" on="1"/>
        <pt x="194" y="726" on="1"/>
      </contour>
      <contour>
        <pt x="428" y="135" on="1"/>
        <pt x="428" y="72" on="0"/>
        <pt x="363" y="0" on="0"/>
        <pt x="303" y="0" on="1"/>
        <pt x="261" y="0" on="0"/>
        <pt x="210" y="41" on="0"/>
        <pt x="210" y="81" on="1"/>
        <pt x="210" y="88" on="0"/>
        <pt x="213" y="107" on="0"/>
        <pt x="216" y="115" on="1"/>
        <pt x="220" y="103" on="0"/>
        <pt x="232" y="103" on="1"/>
        <pt x="244" y="103" on="0"/>
        <pt x="256" y="115" on="0"/>
        <pt x="262" y="134" on="0"/>
        <pt x="263" y="157" on="0"/>
        <pt x="263" y="168" on="1"/>
        <pt x="263" y="366" on="1"/>
        <pt x="268" y="367" on="0"/>
        <pt x="279" y="368" on="0"/>
        <pt x="286" y="368" on="1"/>
        <pt x="305" y="368" on="0"/>
        <pt x="355" y="357" on="0"/>
        <pt x="398" y="329" on="0"/>
        <pt x="428" y="280" on="0"/>
        <pt x="428" y="243" on="1"/>
      </contour>
      <contour>
        <pt x="428" y="504" on="1"/>
        <pt x="428" y="466" on="0"/>
        <pt x="398" y="418" on="0"/>
        <pt x="355" y="390" on="0"/>
        <pt x="305" y="379" on="0"/>
        <pt x="286" y="379" on="1"/>
        <pt x="279" y="379" on="0"/>
        <pt x="268" y="380" on="0"/>
        <pt x="263" y="381" on="1"/>
        <pt x="263" y="558" on="1"/>
        <pt x="263" y="569" on="0"/>
        <pt x="262" y="592" on="0"/>
        <pt x="256" y="611" on="0"/>
        <pt x="244" y="623" on="0"/>
        <pt x="232" y="623" on="1"/>
        <pt x="216" y="623" on="0"/>
        <pt x="213" y="613" on="1"/>
        <pt x="210" y="626" on="0"/>
        <pt x="210" y="639" on="1"/>
        <pt x="210" y="652" on="0"/>
        <pt x="218" y="682" on="0"/>
        <pt x="239" y="708" on="0"/>
        <pt x="273" y="726" on="0"/>
        <pt x="300" y="726" on="1"/>
        <pt x="360" y="726" on="0"/>
        <pt x="428" y="648" on="0"/>
        <pt x="428" y="591" on="1"/>
      </contour>
    </TTGlyph>
    <TTGlyph name="C" xMin="50" yMin="0" xMax="413" yMax="727">
      <contour>
        <pt x="194" y="0" on="1"/>
        <pt x="184" y="0" on="1"/>
        <pt x="158" y="0" on="0"/>
        <pt x="110" y="10" on="0"/>
        <pt x="73" y="36" on="0"/>
        <pt x="50" y="82" on="0"/>
        <pt x="50" y="119" on="1"/>
        <pt x="50" y="606" on="1"/>
        <pt x="50" y="642" on="0"/>
        <pt x="72" y="688" on="0"/>
        <pt x="108" y="715" on="0"/>
        <pt x="154" y="726" on="0"/>
        <pt x="178" y="726" on="1"/>
        <pt x="194" y="726" on="1"/>
      </contour>
      <contour>
        <pt x="413" y="96" on="1"/>
        <pt x="413" y="79" on="0"/>
        <pt x="401" y="45" on="0"/>
        <pt x="375" y="18" on="0"/>
        <pt x="337" y="0" on="0"/>
        <pt x="311" y="0" on="1"/>
        <pt x="269" y="0" on="0"/>
        <pt x="212" y="47" on="0"/>
        <pt x="212" y="89" on="1"/>
        <pt x="212" y="97" on="0"/>
        <pt x="213" y="110" on="0"/>
        <pt x="216" y="118" on="1"/>
        <pt x="229" y="106" on="0"/>
        <pt x="248" y="106" on="1"/>
        <pt x="263" y="106" on="0"/>
        <pt x="283" y="125" on="0"/>
        <pt x="283" y="144" on="1"/>
        <pt x="283" y="193" on="1"/>
        <pt x="291" y="195" on="0"/>
        <pt x="303" y="195" on="1"/>
        <pt x="317" y="195" on="0"/>
        <pt x="355" y="188" on="0"/>
        <pt x="389" y="166" on="0"/>
        <pt x="413" y="127" on="0"/>
      </contour>
      <contour>
        <pt x="413" y="631" on="1"/>
        <pt x="413" y="599" on="0"/>
        <pt x="389" y="561" on="0"/>
        <pt x="355" y="539" on="0"/>
        <pt x="317" y="532" on="0"/>
        <pt x="303" y="532" on="1"/>
        <pt x="291" y="532" on="0"/>
        <pt x="283" y="534" on="1"/>
        <pt x="283" y="580" on="1"/>
        <pt x="283" y="598" on="0"/>
        <pt x="265" y="621" on="0"/>
        <pt x="248" y="621" on="1"/>
        <pt x="229" y="621" on="0"/>
        <pt x="216" y="609" on="1"/>
        <pt x="213" y="617" on="0"/>
        <pt x="212" y="630" on="0"/>
        <pt x="212" y="638" on="1"/>
        <pt x="212" y="650" on="0"/>
        <pt x="221" y="681" on="0"/>
        <pt x="243" y="708" on="0"/>
        <pt x="280" y="727" on="0"/>
        <pt x="309" y="727" on="1"/>
        <pt x="330" y="727" on="0"/>
        <pt x="368" y="713" on="0"/>
        <pt x="396" y="687" on="0"/>
        <pt x="413" y="652" on="0"/>
      </contour>
    </TTGlyph>
    <TTGlyph name="Ccedilla" xMin="50" yMin="-208" xMax="413" yMax="727">
      <contour>
        <pt x="194" y="0" on="1"/>
        <pt x="184" y="0" on="1"/>
        <pt x="158" y="0" on="0"/>
        <pt x="110" y="10" on="0"/>
        <pt x="73" y="36" on="0"/>
        <pt x="50" y="82" on="0"/>
        <pt x="50" y="119" on="1"/>
        <pt x="50" y="606" on="1"/>
        <pt x="50" y="642" on="0"/>
        <pt x="72" y="688" on="0"/>
        <pt x="108" y="715" on="0"/>
        <pt x="154" y="726" on="0"/>
        <pt x="178" y="726" on="1"/>
        <pt x="194" y="726" on="1"/>
      </contour>
      <contour>
        <pt x="413" y="96" on="1"/>
        <pt x="413" y="79" on="0"/>
        <pt x="401" y="45" on="0"/>
        <pt x="375" y="18" on="0"/>
        <pt x="337" y="0" on="0"/>
        <pt x="311" y="0" on="1"/>
        <pt x="269" y="0" on="0"/>
        <pt x="212" y="47" on="0"/>
        <pt x="212" y="89" on="1"/>
        <pt x="212" y="97" on="0"/>
        <pt x="213" y="110" on="0"/>
        <pt x="216" y="118" on="1"/>
        <pt x="229" y="106" on="0"/>
        <pt x="248" y="106" on="1"/>
        <pt x="263" y="106" on="0"/>
        <pt x="283" y="125" on="0"/>
        <pt x="283" y="144" on="1"/>
        <pt x="283" y="193" on="1"/>
        <pt x="291" y="195" on="0"/>
        <pt x="303" y="195" on="1"/>
        <pt x="317" y="195" on="0"/>
        <pt x="355" y="188" on="0"/>
        <pt x="389" y="166" on="0"/>
        <pt x="413" y="127" on="0"/>
      </contour>
      <contour>
        <pt x="413" y="631" on="1"/>
        <pt x="413" y="599" on="0"/>
        <pt x="389" y="561" on="0"/>
        <pt x="355" y="539" on="0"/>
        <pt x="317" y="532" on="0"/>
        <pt x="303" y="532" on="1"/>
        <pt x="291" y="532" on="0"/>
        <pt x="283" y="534" on="1"/>
        <pt x="283" y="580" on="1"/>
        <pt x="283" y="598" on="0"/>
        <pt x="265" y="621" on="0"/>
        <pt x="248" y="621" on="1"/>
        <pt x="229" y="621" on="0"/>
        <pt x="216" y="609" on="1"/>
        <pt x="213" y="617" on="0"/>
        <pt x="212" y="630" on="0"/>
        <pt x="212" y="638" on="1"/>
        <pt x="212" y="650" on="0"/>
        <pt x="221" y="681" on="0"/>
        <pt x="243" y="708" on="0"/>
        <pt x="280" y="727" on="0"/>
        <pt x="309" y="727" on="1"/>
        <pt x="330" y="727" on="0"/>
        <pt x="368" y="713" on="0"/>
        <pt x="396" y="687" on="0"/>
        <pt x="413" y="652" on="0"/>
      </contour>
      <contour>
        <pt x="307" y="-82" on="1"/>
        <pt x="307" y="-106" on="0"/>
        <pt x="297" y="-151" on="0"/>
        <pt x="273" y="-186" on="0"/>
        <pt x="232" y="-208" on="0"/>
        <pt x="201" y="-208" on="1"/>
        <pt x="153" y="-208" on="0"/>
        <pt x="109" y="-159" on="0"/>
        <pt x="109" y="-127" on="1"/>
        <pt x="109" y="-119" on="0"/>
        <pt x="113" y="-97" on="0"/>
        <pt x="115" y="-89" on="1"/>
        <pt x="118" y="-98" on="0"/>
        <pt x="137" y="-107" on="0"/>
        <pt x="145" y="-107" on="1"/>
        <pt x="166" y="-107" on="0"/>
        <pt x="182" y="-82" on="0"/>
        <pt x="182" y="-62" on="1"/>
        <pt x="182" y="-12" on="1"/>
        <pt x="194" y="-17" on="0"/>
        <pt x="235" y="-20" on="0"/>
        <pt x="257" y="-20" on="1"/>
        <pt x="286" y="-20" on="0"/>
        <pt x="307" y="-17" on="1"/>
      </contour>
    </TTGlyph>
    <TTGlyph name="D" xMin="50" yMin="0" xMax="435" yMax="726">
      <contour>
        <pt x="435" y="135" on="1"/>
        <pt x="435" y="72" on="0"/>
        <pt x="371" y="0" on="0"/>
        <pt x="311" y="0" on="1"/>
        <pt x="291" y="0" on="0"/>
        <pt x="255" y="11" on="0"/>
        <pt x="227" y="33" on="0"/>
        <pt x="210" y="65" on="0"/>
        <pt x="210" y="86" on="1"/>
        <pt x="210" y="94" on="0"/>
        <pt x="213" y="107" on="0"/>
        <pt x="216" y="115" on="1"/>
        <pt x="229" y="103" on="0"/>
        <pt x="248" y="103" on="1"/>
        <pt x="260" y="103" on="0"/>
        <pt x="273" y="115" on="0"/>
        <pt x="281" y="134" on="0"/>
        <pt x="283" y="157" on="0"/>
        <pt x="283" y="168" on="1"/>
        <pt x="283" y="558" on="1"/>
        <pt x="283" y="569" on="0"/>
        <pt x="281" y="592" on="0"/>
        <pt x="273" y="611" on="0"/>
        <pt x="260" y="623" on="0"/>
        <pt x="248" y="623" on="1"/>
        <pt x="229" y="623" on="0"/>
        <pt x="216" y="611" on="1"/>
        <pt x="210" y="627" on="0"/>
        <pt x="210" y="640" on="1"/>
        <pt x="210" y="656" on="0"/>
        <pt x="221" y="687" on="0"/>
        <pt x="245" y="711" on="0"/>
        <pt x="282" y="726" on="0"/>
        <pt x="309" y="726" on="1"/>
        <pt x="339" y="726" on="0"/>
        <pt x="386" y="705" on="0"/>
        <pt x="418" y="668" on="0"/>
        <pt x="435" y="619" on="0"/>
        <pt x="435" y="591" on="1"/>
      </contour>
      <contour>
        <pt x="194" y="0" on="1"/>
        <pt x="184" y="0" on="1"/>
        <pt x="158" y="0" on="0"/>
        <pt x="110" y="10" on="0"/>
        <pt x="73" y="36" on="0"/>
        <pt x="50" y="82" on="0"/>
        <pt x="50" y="119" on="1"/>
        <pt x="50" y="726" on="1"/>
        <pt x="66" y="726" on="1"/>
        <pt x="90" y="726" on="0"/>
        <pt x="136" y="715" on="0"/>
        <pt x="172" y="688" on="0"/>
        <pt x="194" y="642" on="0"/>
        <pt x="194" y="606" on="1"/>
      </contour>
    </TTGlyph>
    <TTGlyph name="E" xMin="50" yMin="0" xMax="413" yMax="727">
      <contour>
        <pt x="194" y="0" on="1"/>
        <pt x="184" y="0" on="1"/>
        <pt x="158" y="0" on="0"/>
        <pt x="110" y="10" on="0"/>
        <pt x="73" y="36" on="0"/>
        <pt x="50" y="82" on="0"/>
        <pt x="50" y="119" on="1"/>
        <pt x="50" y="606" on="1"/>
        <pt x="50" y="642" on="0"/>
        <pt x="72" y="688" on="0"/>
        <pt x="108" y="715" on="0"/>
        <pt x="154" y="726" on="0"/>
        <pt x="178" y="726" on="1"/>
        <pt x="194" y="726" on="1"/>
      </contour>
      <contour>
        <pt x="215" y="416" on="1"/>
        <pt x="304" y="416" on="1"/>
        <pt x="304" y="393" on="0"/>
        <pt x="297" y="355" on="0"/>
        <pt x="278" y="326" on="0"/>
        <pt x="246" y="310" on="0"/>
        <pt x="221" y="310" on="1"/>
        <pt x="215" y="310" on="1"/>
      </contour>
      <contour>
        <pt x="413" y="96" on="1"/>
        <pt x="413" y="79" on="0"/>
        <pt x="401" y="45" on="0"/>
        <pt x="375" y="18" on="0"/>
        <pt x="337" y="0" on="0"/>
        <pt x="311" y="0" on="1"/>
        <pt x="292" y="0" on="0"/>
        <pt x="256" y="13" on="0"/>
        <pt x="229" y="37" on="0"/>
        <pt x="212" y="69" on="0"/>
        <pt x="212" y="89" on="1"/>
        <pt x="212" y="97" on="0"/>
        <pt x="213" y="110" on="0"/>
        <pt x="216" y="118" on="1"/>
        <pt x="229" y="106" on="0"/>
        <pt x="248" y="106" on="1"/>
        <pt x="263" y="106" on="0"/>
        <pt x="283" y="125" on="0"/>
        <pt x="283" y="144" on="1"/>
        <pt x="283" y="193" on="1"/>
        <pt x="291" y="195" on="0"/>
        <pt x="303" y="195" on="1"/>
        <pt x="317" y="195" on="0"/>
        <pt x="355" y="188" on="0"/>
        <pt x="389" y="166" on="0"/>
        <pt x="413" y="127" on="0"/>
      </contour>
      <contour>
        <pt x="413" y="631" on="1"/>
        <pt x="413" y="599" on="0"/>
        <pt x="389" y="561" on="0"/>
        <pt x="355" y="539" on="0"/>
        <pt x="317" y="532" on="0"/>
        <pt x="303" y="532" on="1"/>
        <pt x="291" y="532" on="0"/>
        <pt x="283" y="534" on="1"/>
        <pt x="283" y="580" on="1"/>
        <pt x="283" y="600" on="0"/>
        <pt x="264" y="621" on="0"/>
        <pt x="248" y="621" on="1"/>
        <pt x="229" y="621" on="0"/>
        <pt x="216" y="609" on="1"/>
        <pt x="213" y="617" on="0"/>
        <pt x="212" y="630" on="0"/>
        <pt x="212" y="638" on="1"/>
        <pt x="212" y="650" on="0"/>
        <pt x="223" y="681" on="0"/>
        <pt x="246" y="708" on="0"/>
        <pt x="283" y="727" on="0"/>
        <pt x="309" y="727" on="1"/>
        <pt x="330" y="727" on="0"/>
        <pt x="368" y="713" on="0"/>
        <pt x="396" y="687" on="0"/>
        <pt x="413" y="652" on="0"/>
      </contour>
    </TTGlyph>
    <TTGlyph name="Eacute" xMin="50" yMin="0" xMax="413" yMax="912">
      <contour>
        <pt x="194" y="0" on="1"/>
        <pt x="184" y="0" on="1"/>
        <pt x="158" y="0" on="0"/>
        <pt x="110" y="10" on="0"/>
        <pt x="73" y="36" on="0"/>
        <pt x="50" y="82" on="0"/>
        <pt x="50" y="119" on="1"/>
        <pt x="50" y="606" on="1"/>
        <pt x="50" y="642" on="0"/>
        <pt x="72" y="688" on="0"/>
        <pt x="108" y="715" on="0"/>
        <pt x="154" y="726" on="0"/>
        <pt x="178" y="726" on="1"/>
        <pt x="194" y="726" on="1"/>
      </contour>
      <contour>
        <pt x="215" y="416" on="1"/>
        <pt x="304" y="416" on="1"/>
        <pt x="304" y="393" on="0"/>
        <pt x="297" y="355" on="0"/>
        <pt x="278" y="326" on="0"/>
        <pt x="246" y="310" on="0"/>
        <pt x="221" y="310" on="1"/>
        <pt x="215" y="310" on="1"/>
      </contour>
      <contour>
        <pt x="413" y="96" on="1"/>
        <pt x="413" y="79" on="0"/>
        <pt x="401" y="45" on="0"/>
        <pt x="375" y="18" on="0"/>
        <pt x="337" y="0" on="0"/>
        <pt x="311" y="0" on="1"/>
        <pt x="292" y="0" on="0"/>
        <pt x="256" y="13" on="0"/>
        <pt x="229" y="37" on="0"/>
        <pt x="212" y="69" on="0"/>
        <pt x="212" y="89" on="1"/>
        <pt x="212" y="97" on="0"/>
        <pt x="213" y="110" on="0"/>
        <pt x="216" y="118" on="1"/>
        <pt x="229" y="106" on="0"/>
        <pt x="248" y="106" on="1"/>
        <pt x="263" y="106" on="0"/>
        <pt x="283" y="125" on="0"/>
        <pt x="283" y="144" on="1"/>
        <pt x="283" y="193" on="1"/>
        <pt x="291" y="195" on="0"/>
        <pt x="303" y="195" on="1"/>
        <pt x="317" y="195" on="0"/>
        <pt x="355" y="188" on="0"/>
        <pt x="389" y="166" on="0"/>
        <pt x="413" y="127" on="0"/>
      </contour>
      <contour>
        <pt x="413" y="631" on="1"/>
        <pt x="413" y="599" on="0"/>
        <pt x="389" y="561" on="0"/>
        <pt x="355" y="539" on="0"/>
        <pt x="317" y="532" on="0"/>
        <pt x="303" y="532" on="1"/>
        <pt x="291" y="532" on="0"/>
        <pt x="283" y="534" on="1"/>
        <pt x="283" y="580" on="1"/>
        <pt x="283" y="600" on="0"/>
        <pt x="264" y="621" on="0"/>
        <pt x="248" y="621" on="1"/>
        <pt x="229" y="621" on="0"/>
        <pt x="216" y="609" on="1"/>
        <pt x="213" y="617" on="0"/>
        <pt x="212" y="630" on="0"/>
        <pt x="212" y="638" on="1"/>
        <pt x="212" y="650" on="0"/>
        <pt x="223" y="681" on="0"/>
        <pt x="246" y="708" on="0"/>
        <pt x="283" y="727" on="0"/>
        <pt x="309" y="727" on="1"/>
        <pt x="330" y="727" on="0"/>
        <pt x="368" y="713" on="0"/>
        <pt x="396" y="687" on="0"/>
        <pt x="413" y="652" on="0"/>
      </contour>
      <contour>
        <pt x="156" y="770" on="1"/>
        <pt x="156" y="792" on="0"/>
        <pt x="161" y="842" on="0"/>
        <pt x="182" y="884" on="0"/>
        <pt x="223" y="912" on="0"/>
        <pt x="259" y="912" on="1"/>
        <pt x="335" y="912" on="1"/>
        <pt x="335" y="889" on="0"/>
        <pt x="330" y="839" on="0"/>
        <pt x="310" y="797" on="0"/>
        <pt x="268" y="770" on="0"/>
        <pt x="232" y="770" on="1"/>
      </contour>
    </TTGlyph>
    <TTGlyph name="Ecircumflex" xMin="50" yMin="0" xMax="413" yMax="905">
      <contour>
        <pt x="157" y="5" on="1"/>
        <pt x="122" y="10" on="0"/>
        <pt x="74" y="36" on="0"/>
        <pt x="50" y="82" on="0"/>
        <pt x="50" y="119" on="1"/>
        <pt x="50" y="606" on="1"/>
        <pt x="50" y="642" on="0"/>
        <pt x="72" y="688" on="0"/>
        <pt x="108" y="715" on="0"/>
        <pt x="154" y="726" on="0"/>
        <pt x="178" y="726" on="1"/>
        <pt x="194" y="726" on="1"/>
        <pt x="194" y="1" on="1"/>
        <pt x="174" y="2" on="0"/>
      </contour>
      <contour>
        <pt x="413" y="96" on="1"/>
        <pt x="413" y="79" on="0"/>
        <pt x="401" y="45" on="0"/>
        <pt x="375" y="18" on="0"/>
        <pt x="337" y="0" on="0"/>
        <pt x="311" y="0" on="1"/>
        <pt x="292" y="0" on="0"/>
        <pt x="256" y="13" on="0"/>
        <pt x="229" y="37" on="0"/>
        <pt x="212" y="69" on="0"/>
        <pt x="212" y="89" on="1"/>
        <pt x="212" y="97" on="0"/>
        <pt x="213" y="110" on="0"/>
        <pt x="216" y="118" on="1"/>
        <pt x="229" y="106" on="0"/>
        <pt x="248" y="106" on="1"/>
        <pt x="263" y="106" on="0"/>
        <pt x="283" y="125" on="0"/>
        <pt x="283" y="144" on="1"/>
        <pt x="283" y="193" on="1"/>
        <pt x="291" y="195" on="0"/>
        <pt x="303" y="195" on="1"/>
        <pt x="317" y="195" on="0"/>
        <pt x="355" y="188" on="0"/>
        <pt x="389" y="166" on="0"/>
        <pt x="413" y="127" on="0"/>
      </contour>
      <contour>
        <pt x="413" y="631" on="1"/>
        <pt x="413" y="599" on="0"/>
        <pt x="389" y="561" on="0"/>
        <pt x="355" y="539" on="0"/>
        <pt x="317" y="532" on="0"/>
        <pt x="303" y="532" on="1"/>
        <pt x="291" y="532" on="0"/>
        <pt x="283" y="534" on="1"/>
        <pt x="283" y="580" on="1"/>
        <pt x="283" y="600" on="0"/>
        <pt x="264" y="621" on="0"/>
        <pt x="248" y="621" on="1"/>
        <pt x="229" y="621" on="0"/>
        <pt x="216" y="609" on="1"/>
        <pt x="213" y="617" on="0"/>
        <pt x="212" y="630" on="0"/>
        <pt x="212" y="638" on="1"/>
        <pt x="212" y="650" on="0"/>
        <pt x="223" y="681" on="0"/>
        <pt x="246" y="708" on="0"/>
        <pt x="283" y="727" on="0"/>
        <pt x="309" y="727" on="1"/>
        <pt x="330" y="727" on="0"/>
        <pt x="368" y="713" on="0"/>
        <pt x="396" y="687" on="0"/>
        <pt x="413" y="652" on="0"/>
      </contour>
      <contour>
        <pt x="336" y="852" on="1"/>
        <pt x="350" y="844" on="0"/>
        <pt x="362" y="820" on="0"/>
        <pt x="362" y="805" on="1"/>
        <pt x="362" y="785" on="0"/>
        <pt x="337" y="748" on="0"/>
        <pt x="314" y="743" on="1"/>
        <pt x="238" y="785" on="1"/>
        <pt x="164" y="743" on="1"/>
        <pt x="138" y="750" on="0"/>
        <pt x="114" y="784" on="0"/>
        <pt x="114" y="802" on="1"/>
        <pt x="114" y="817" on="0"/>
        <pt x="128" y="844" on="0"/>
        <pt x="141" y="851" on="1"/>
        <pt x="238" y="905" on="1"/>
      </contour>
      <contour>
        <pt x="215" y="416" on="1"/>
        <pt x="304" y="416" on="1"/>
        <pt x="304" y="393" on="0"/>
        <pt x="297" y="355" on="0"/>
        <pt x="278" y="326" on="0"/>
        <pt x="246" y="310" on="0"/>
        <pt x="221" y="310" on="1"/>
        <pt x="215" y="310" on="1"/>
      </contour>
      <contour>
        <pt x="194" y="0" on="1"/>
        <pt x="217" y="0" on="1"/>
        <pt x="205" y="0" on="0"/>
        <pt x="194" y="1" on="1"/>
      </contour>
    </TTGlyph>
    <TTGlyph name="Edieresis" xMin="50" yMin="0" xMax="413" yMax="909">
      <contour>
        <pt x="194" y="0" on="1"/>
        <pt x="184" y="0" on="1"/>
        <pt x="158" y="0" on="0"/>
        <pt x="110" y="10" on="0"/>
        <pt x="73" y="36" on="0"/>
        <pt x="50" y="82" on="0"/>
        <pt x="50" y="119" on="1"/>
        <pt x="50" y="606" on="1"/>
        <pt x="50" y="642" on="0"/>
        <pt x="72" y="688" on="0"/>
        <pt x="108" y="715" on="0"/>
        <pt x="154" y="726" on="0"/>
        <pt x="178" y="726" on="1"/>
        <pt x="194" y="726" on="1"/>
      </contour>
      <contour>
        <pt x="215" y="416" on="1"/>
        <pt x="304" y="416" on="1"/>
        <pt x="304" y="393" on="0"/>
        <pt x="297" y="355" on="0"/>
        <pt x="278" y="326" on="0"/>
        <pt x="246" y="310" on="0"/>
        <pt x="221" y="310" on="1"/>
        <pt x="215" y="310" on="1"/>
      </contour>
      <contour>
        <pt x="413" y="96" on="1"/>
        <pt x="413" y="79" on="0"/>
        <pt x="401" y="45" on="0"/>
        <pt x="375" y="18" on="0"/>
        <pt x="337" y="0" on="0"/>
        <pt x="311" y="0" on="1"/>
        <pt x="292" y="0" on="0"/>
        <pt x="256" y="13" on="0"/>
        <pt x="229" y="37" on="0"/>
        <pt x="212" y="69" on="0"/>
        <pt x="212" y="89" on="1"/>
        <pt x="212" y="97" on="0"/>
        <pt x="213" y="110" on="0"/>
        <pt x="216" y="118" on="1"/>
        <pt x="229" y="106" on="0"/>
        <pt x="248" y="106" on="1"/>
        <pt x="263" y="106" on="0"/>
        <pt x="283" y="125" on="0"/>
        <pt x="283" y="144" on="1"/>
        <pt x="283" y="193" on="1"/>
        <pt x="291" y="195" on="0"/>
        <pt x="303" y="195" on="1"/>
        <pt x="317" y="195" on="0"/>
        <pt x="355" y="188" on="0"/>
        <pt x="389" y="166" on="0"/>
        <pt x="413" y="127" on="0"/>
      </contour>
      <contour>
        <pt x="413" y="631" on="1"/>
        <pt x="413" y="599" on="0"/>
        <pt x="389" y="561" on="0"/>
        <pt x="355" y="539" on="0"/>
        <pt x="317" y="532" on="0"/>
        <pt x="303" y="532" on="1"/>
        <pt x="291" y="532" on="0"/>
        <pt x="283" y="534" on="1"/>
        <pt x="283" y="580" on="1"/>
        <pt x="283" y="600" on="0"/>
        <pt x="264" y="621" on="0"/>
        <pt x="248" y="621" on="1"/>
        <pt x="229" y="621" on="0"/>
        <pt x="216" y="609" on="1"/>
        <pt x="213" y="617" on="0"/>
        <pt x="212" y="630" on="0"/>
        <pt x="212" y="638" on="1"/>
        <pt x="212" y="650" on="0"/>
        <pt x="223" y="681" on="0"/>
        <pt x="246" y="708" on="0"/>
        <pt x="283" y="727" on="0"/>
        <pt x="309" y="727" on="1"/>
        <pt x="330" y="727" on="0"/>
        <pt x="368" y="713" on="0"/>
        <pt x="396" y="687" on="0"/>
        <pt x="413" y="652" on="0"/>
      </contour>
      <contour>
        <pt x="88" y="839" on="1"/>
        <pt x="88" y="868" on="0"/>
        <pt x="129" y="909" on="0"/>
        <pt x="158" y="909" on="1"/>
        <pt x="187" y="909" on="0"/>
        <pt x="228" y="868" on="0"/>
        <pt x="228" y="839" on="1"/>
        <pt x="228" y="810" on="0"/>
        <pt x="187" y="770" on="0"/>
        <pt x="158" y="770" on="1"/>
        <pt x="129" y="770" on="0"/>
        <pt x="88" y="810" on="0"/>
      </contour>
      <contour>
        <pt x="244" y="839" on="1"/>
        <pt x="244" y="868" on="0"/>
        <pt x="286" y="909" on="0"/>
        <pt x="315" y="909" on="1"/>
        <pt x="344" y="909" on="0"/>
        <pt x="384" y="868" on="0"/>
        <pt x="384" y="839" on="1"/>
        <pt x="384" y="810" on="0"/>
        <pt x="344" y="770" on="0"/>
        <pt x="315" y="770" on="1"/>
        <pt x="286" y="770" on="0"/>
        <pt x="244" y="810" on="0"/>
      </contour>
    </TTGlyph>
    <TTGlyph name="Egrave" xMin="50" yMin="0" xMax="413" yMax="912">
      <contour>
        <pt x="194" y="0" on="1"/>
        <pt x="184" y="0" on="1"/>
        <pt x="158" y="0" on="0"/>
        <pt x="110" y="10" on="0"/>
        <pt x="73" y="36" on="0"/>
        <pt x="50" y="82" on="0"/>
        <pt x="50" y="119" on="1"/>
        <pt x="50" y="606" on="1"/>
        <pt x="50" y="642" on="0"/>
        <pt x="72" y="688" on="0"/>
        <pt x="108" y="715" on="0"/>
        <pt x="154" y="726" on="0"/>
        <pt x="178" y="726" on="1"/>
        <pt x="194" y="726" on="1"/>
      </contour>
      <contour>
        <pt x="215" y="416" on="1"/>
        <pt x="304" y="416" on="1"/>
        <pt x="304" y="393" on="0"/>
        <pt x="297" y="355" on="0"/>
        <pt x="278" y="326" on="0"/>
        <pt x="246" y="310" on="0"/>
        <pt x="221" y="310" on="1"/>
        <pt x="215" y="310" on="1"/>
      </contour>
      <contour>
        <pt x="413" y="96" on="1"/>
        <pt x="413" y="79" on="0"/>
        <pt x="401" y="45" on="0"/>
        <pt x="375" y="18" on="0"/>
        <pt x="337" y="0" on="0"/>
        <pt x="311" y="0" on="1"/>
        <pt x="292" y="0" on="0"/>
        <pt x="256" y="13" on="0"/>
        <pt x="229" y="37" on="0"/>
        <pt x="212" y="69" on="0"/>
        <pt x="212" y="89" on="1"/>
        <pt x="212" y="97" on="0"/>
        <pt x="213" y="110" on="0"/>
        <pt x="216" y="118" on="1"/>
        <pt x="229" y="106" on="0"/>
        <pt x="248" y="106" on="1"/>
        <pt x="263" y="106" on="0"/>
        <pt x="283" y="125" on="0"/>
        <pt x="283" y="144" on="1"/>
        <pt x="283" y="193" on="1"/>
        <pt x="291" y="195" on="0"/>
        <pt x="303" y="195" on="1"/>
        <pt x="317" y="195" on="0"/>
        <pt x="355" y="188" on="0"/>
        <pt x="389" y="166" on="0"/>
        <pt x="413" y="127" on="0"/>
      </contour>
      <contour>
        <pt x="413" y="631" on="1"/>
        <pt x="413" y="599" on="0"/>
        <pt x="389" y="561" on="0"/>
        <pt x="355" y="539" on="0"/>
        <pt x="317" y="532" on="0"/>
        <pt x="303" y="532" on="1"/>
        <pt x="291" y="532" on="0"/>
        <pt x="283" y="534" on="1"/>
        <pt x="283" y="580" on="1"/>
        <pt x="283" y="600" on="0"/>
        <pt x="264" y="621" on="0"/>
        <pt x="248" y="621" on="1"/>
        <pt x="229" y="621" on="0"/>
        <pt x="216" y="609" on="1"/>
        <pt x="213" y="617" on="0"/>
        <pt x="212" y="630" on="0"/>
        <pt x="212" y="638" on="1"/>
        <pt x="212" y="650" on="0"/>
        <pt x="223" y="681" on="0"/>
        <pt x="246" y="708" on="0"/>
        <pt x="283" y="727" on="0"/>
        <pt x="309" y="727" on="1"/>
        <pt x="330" y="727" on="0"/>
        <pt x="368" y="713" on="0"/>
        <pt x="396" y="687" on="0"/>
        <pt x="413" y="652" on="0"/>
      </contour>
      <contour>
        <pt x="230" y="770" on="1"/>
        <pt x="194" y="770" on="0"/>
        <pt x="152" y="797" on="0"/>
        <pt x="132" y="839" on="0"/>
        <pt x="127" y="889" on="0"/>
        <pt x="127" y="912" on="1"/>
        <pt x="203" y="912" on="1"/>
        <pt x="239" y="912" on="0"/>
        <pt x="280" y="884" on="0"/>
        <pt x="301" y="842" on="0"/>
        <pt x="306" y="792" on="0"/>
        <pt x="306" y="770" on="1"/>
      </contour>
    </TTGlyph>
    <TTGlyph name="Eth" xMin="5" yMin="0" xMax="474" yMax="726">
      <contour>
        <pt x="474" y="135" on="1"/>
        <pt x="474" y="72" on="0"/>
        <pt x="410" y="0" on="0"/>
        <pt x="350" y="0" on="1"/>
        <pt x="323" y="0" on="0"/>
        <pt x="284" y="15" on="0"/>
        <pt x="260" y="39" on="0"/>
        <pt x="249" y="70" on="0"/>
        <pt x="249" y="86" on="1"/>
        <pt x="249" y="94" on="0"/>
        <pt x="252" y="107" on="0"/>
        <pt x="255" y="115" on="1"/>
        <pt x="268" y="103" on="0"/>
        <pt x="287" y="103" on="1"/>
        <pt x="299" y="103" on="0"/>
        <pt x="312" y="115" on="0"/>
        <pt x="320" y="134" on="0"/>
        <pt x="322" y="157" on="0"/>
        <pt x="322" y="168" on="1"/>
        <pt x="322" y="558" on="1"/>
        <pt x="322" y="569" on="0"/>
        <pt x="320" y="592" on="0"/>
        <pt x="312" y="611" on="0"/>
        <pt x="299" y="623" on="0"/>
        <pt x="287" y="623" on="1"/>
        <pt x="268" y="623" on="0"/>
        <pt x="255" y="611" on="1"/>
        <pt x="249" y="627" on="0"/>
        <pt x="249" y="640" on="1"/>
        <pt x="249" y="656" on="0"/>
        <pt x="260" y="687" on="0"/>
        <pt x="284" y="711" on="0"/>
        <pt x="321" y="726" on="0"/>
        <pt x="348" y="726" on="1"/>
        <pt x="408" y="726" on="0"/>
        <pt x="474" y="654" on="0"/>
        <pt x="474" y="591" on="1"/>
      </contour>
      <contour>
        <pt x="233" y="0" on="1"/>
        <pt x="223" y="0" on="1"/>
        <pt x="197" y="0" on="0"/>
        <pt x="149" y="10" on="0"/>
        <pt x="112" y="36" on="0"/>
        <pt x="89" y="82" on="0"/>
        <pt x="89" y="119" on="1"/>
        <pt x="89" y="726" on="1"/>
        <pt x="105" y="726" on="1"/>
        <pt x="129" y="726" on="0"/>
        <pt x="175" y="715" on="0"/>
        <pt x="211" y="688" on="0"/>
        <pt x="233" y="642" on="0"/>
        <pt x="233" y="606" on="1"/>
      </contour>
      <contour>
        <pt x="242" y="416" on="1"/>
        <pt x="313" y="416" on="1"/>
        <pt x="313" y="374" on="0"/>
        <pt x="276" y="320" on="0"/>
        <pt x="242" y="318" on="1"/>
      </contour>
      <contour>
        <pt x="76" y="318" on="1"/>
        <pt x="5" y="318" on="1"/>
        <pt x="5" y="360" on="0"/>
        <pt x="42" y="414" on="0"/>
        <pt x="76" y="416" on="1"/>
      </contour>
    </TTGlyph>
    <TTGlyph name="Euro Sign" xMin="25" yMin="0" xMax="524" yMax="727">
      <contour>
        <pt x="305" y="0" on="1"/>
        <pt x="295" y="0" on="1"/>
        <pt x="269" y="0" on="0"/>
        <pt x="221" y="10" on="0"/>
        <pt x="184" y="36" on="0"/>
        <pt x="161" y="82" on="0"/>
        <pt x="161" y="119" on="1"/>
        <pt x="161" y="606" on="1"/>
        <pt x="161" y="642" on="0"/>
        <pt x="183" y="688" on="0"/>
        <pt x="219" y="715" on="0"/>
        <pt x="265" y="726" on="0"/>
        <pt x="289" y="726" on="1"/>
        <pt x="305" y="726" on="1"/>
      </contour>
      <contour>
        <pt x="524" y="96" on="1"/>
        <pt x="524" y="79" on="0"/>
        <pt x="512" y="45" on="0"/>
        <pt x="486" y="17" on="0"/>
        <pt x="448" y="0" on="0"/>
        <pt x="422" y="0" on="1"/>
        <pt x="395" y="0" on="0"/>
        <pt x="357" y="17" on="0"/>
        <pt x="334" y="44" on="0"/>
        <pt x="323" y="75" on="0"/>
        <pt x="323" y="89" on="1"/>
        <pt x="323" y="97" on="0"/>
        <pt x="324" y="110" on="0"/>
        <pt x="327" y="118" on="1"/>
        <pt x="340" y="106" on="0"/>
        <pt x="359" y="106" on="1"/>
        <pt x="374" y="106" on="0"/>
        <pt x="394" y="125" on="0"/>
        <pt x="394" y="144" on="1"/>
        <pt x="394" y="193" on="1"/>
        <pt x="402" y="195" on="0"/>
        <pt x="414" y="195" on="1"/>
        <pt x="428" y="195" on="0"/>
        <pt x="466" y="188" on="0"/>
        <pt x="500" y="166" on="0"/>
        <pt x="524" y="127" on="0"/>
      </contour>
      <contour>
        <pt x="524" y="631" on="1"/>
        <pt x="524" y="599" on="0"/>
        <pt x="500" y="561" on="0"/>
        <pt x="466" y="539" on="0"/>
        <pt x="428" y="532" on="0"/>
        <pt x="414" y="532" on="1"/>
        <pt x="402" y="532" on="0"/>
        <pt x="394" y="534" on="1"/>
        <pt x="394" y="580" on="1"/>
        <pt x="394" y="601" on="0"/>
        <pt x="374" y="621" on="0"/>
        <pt x="359" y="621" on="1"/>
        <pt x="340" y="621" on="0"/>
        <pt x="327" y="609" on="1"/>
        <pt x="324" y="617" on="0"/>
        <pt x="323" y="630" on="0"/>
        <pt x="323" y="638" on="1"/>
        <pt x="323" y="650" on="0"/>
        <pt x="334" y="681" on="0"/>
        <pt x="357" y="708" on="0"/>
        <pt x="394" y="727" on="0"/>
        <pt x="420" y="727" on="1"/>
        <pt x="447" y="727" on="0"/>
        <pt x="486" y="709" on="0"/>
        <pt x="511" y="682" on="0"/>
        <pt x="524" y="647" on="0"/>
      </contour>
      <contour>
        <pt x="324" y="492" on="1"/>
        <pt x="501" y="492" on="1"/>
        <pt x="501" y="472" on="0"/>
        <pt x="493" y="432" on="0"/>
        <pt x="469" y="399" on="0"/>
        <pt x="425" y="378" on="0"/>
        <pt x="390" y="377" on="1"/>
        <pt x="373" y="376" on="0"/>
        <pt x="353" y="376" on="1"/>
        <pt x="324" y="376" on="1"/>
      </contour>
      <contour>
        <pt x="324" y="344" on="1"/>
        <pt x="481" y="342" on="1"/>
        <pt x="481" y="316" on="0"/>
        <pt x="470" y="274" on="0"/>
        <pt x="436" y="244" on="0"/>
        <pt x="374" y="228" on="0"/>
        <pt x="324" y="228" on="1"/>
      </contour>
      <contour>
        <pt x="141" y="376" on="1"/>
        <pt x="78" y="376" on="0"/>
        <pt x="25" y="438" on="0"/>
        <pt x="25" y="492" on="1"/>
        <pt x="141" y="492" on="1"/>
      </contour>
      <contour>
        <pt x="141" y="225" on="1"/>
        <pt x="114" y="225" on="0"/>
        <pt x="74" y="245" on="0"/>
        <pt x="48" y="277" on="0"/>
        <pt x="35" y="319" on="0"/>
        <pt x="35" y="342" on="1"/>
        <pt x="141" y="342" on="1"/>
      </contour>
    </TTGlyph>
    <TTGlyph name="F" xMin="50" yMin="0" xMax="413" yMax="727">
      <contour>
        <pt x="194" y="0" on="1"/>
        <pt x="184" y="0" on="1"/>
        <pt x="158" y="0" on="0"/>
        <pt x="110" y="10" on="0"/>
        <pt x="73" y="36" on="0"/>
        <pt x="50" y="82" on="0"/>
        <pt x="50" y="119" on="1"/>
        <pt x="50" y="606" on="1"/>
        <pt x="50" y="642" on="0"/>
        <pt x="72" y="688" on="0"/>
        <pt x="108" y="715" on="0"/>
        <pt x="154" y="726" on="0"/>
        <pt x="178" y="726" on="1"/>
        <pt x="194" y="726" on="1"/>
      </contour>
      <contour>
        <pt x="215" y="416" on="1"/>
        <pt x="304" y="416" on="1"/>
        <pt x="304" y="393" on="0"/>
        <pt x="297" y="355" on="0"/>
        <pt x="278" y="326" on="0"/>
        <pt x="246" y="310" on="0"/>
        <pt x="221" y="310" on="1"/>
        <pt x="215" y="310" on="1"/>
      </contour>
      <contour>
        <pt x="413" y="631" on="1"/>
        <pt x="413" y="599" on="0"/>
        <pt x="389" y="561" on="0"/>
        <pt x="355" y="539" on="0"/>
        <pt x="317" y="532" on="0"/>
        <pt x="303" y="532" on="1"/>
        <pt x="291" y="532" on="0"/>
        <pt x="283" y="534" on="1"/>
        <pt x="283" y="580" on="1"/>
        <pt x="283" y="598" on="0"/>
        <pt x="265" y="621" on="0"/>
        <pt x="248" y="621" on="1"/>
        <pt x="229" y="621" on="0"/>
        <pt x="216" y="609" on="1"/>
        <pt x="213" y="617" on="0"/>
        <pt x="212" y="630" on="0"/>
        <pt x="212" y="638" on="1"/>
        <pt x="212" y="652" on="0"/>
        <pt x="223" y="684" on="0"/>
        <pt x="246" y="710" on="0"/>
        <pt x="283" y="727" on="0"/>
        <pt x="309" y="727" on="1"/>
        <pt x="330" y="727" on="0"/>
        <pt x="368" y="713" on="0"/>
        <pt x="396" y="687" on="0"/>
        <pt x="413" y="652" on="0"/>
      </contour>
    </TTGlyph>
    <TTGlyph name="G" xMin="50" yMin="0" xMax="412" yMax="727">
      <contour>
        <pt x="194" y="0" on="1"/>
        <pt x="184" y="0" on="1"/>
        <pt x="158" y="0" on="0"/>
        <pt x="110" y="10" on="0"/>
        <pt x="73" y="36" on="0"/>
        <pt x="50" y="82" on="0"/>
        <pt x="50" y="119" on="1"/>
        <pt x="50" y="606" on="1"/>
        <pt x="50" y="642" on="0"/>
        <pt x="72" y="688" on="0"/>
        <pt x="108" y="715" on="0"/>
        <pt x="154" y="726" on="0"/>
        <pt x="178" y="726" on="1"/>
        <pt x="194" y="726" on="1"/>
      </contour>
      <contour>
        <pt x="409" y="123" on="1"/>
        <pt x="409" y="85" on="0"/>
        <pt x="384" y="37" on="0"/>
        <pt x="347" y="10" on="0"/>
        <pt x="304" y="0" on="0"/>
        <pt x="286" y="0" on="1"/>
        <pt x="264" y="0" on="1"/>
        <pt x="264" y="204" on="1"/>
        <pt x="264" y="225" on="0"/>
        <pt x="258" y="262" on="0"/>
        <pt x="241" y="262" on="1"/>
        <pt x="232" y="262" on="0"/>
        <pt x="222" y="258" on="0"/>
        <pt x="217" y="253" on="1"/>
        <pt x="214" y="264" on="1"/>
        <pt x="211" y="274" on="0"/>
        <pt x="211" y="294" on="1"/>
        <pt x="211" y="323" on="0"/>
        <pt x="257" y="371" on="0"/>
        <pt x="302" y="371" on="1"/>
        <pt x="352" y="371" on="0"/>
        <pt x="410" y="308" on="0"/>
        <pt x="409" y="245" on="1"/>
      </contour>
      <contour>
        <pt x="412" y="631" on="1"/>
        <pt x="412" y="599" on="0"/>
        <pt x="388" y="561" on="0"/>
        <pt x="354" y="539" on="0"/>
        <pt x="316" y="532" on="0"/>
        <pt x="302" y="532" on="1"/>
        <pt x="290" y="532" on="0"/>
        <pt x="282" y="534" on="1"/>
        <pt x="282" y="580" on="1"/>
        <pt x="282" y="601" on="0"/>
        <pt x="262" y="621" on="0"/>
        <pt x="247" y="621" on="1"/>
        <pt x="228" y="621" on="0"/>
        <pt x="215" y="609" on="1"/>
        <pt x="212" y="617" on="0"/>
        <pt x="211" y="630" on="0"/>
        <pt x="211" y="638" on="1"/>
        <pt x="211" y="650" on="0"/>
        <pt x="222" y="681" on="0"/>
        <pt x="245" y="708" on="0"/>
        <pt x="282" y="727" on="0"/>
        <pt x="308" y="727" on="1"/>
        <pt x="335" y="727" on="0"/>
        <pt x="374" y="709" on="0"/>
        <pt x="399" y="682" on="0"/>
        <pt x="412" y="647" on="0"/>
      </contour>
    </TTGlyph>
    <TTGlyph name="H" xMin="50" yMin="0" xMax="441" yMax="726">
      <contour>
        <pt x="50" y="726" on="1"/>
        <pt x="66" y="726" on="1"/>
        <pt x="90" y="726" on="0"/>
        <pt x="136" y="715" on="0"/>
        <pt x="172" y="688" on="0"/>
        <pt x="194" y="642" on="0"/>
        <pt x="194" y="606" on="1"/>
        <pt x="194" y="119" on="1"/>
        <pt x="194" y="82" on="0"/>
        <pt x="171" y="36" on="0"/>
        <pt x="134" y="10" on="0"/>
        <pt x="85" y="0" on="0"/>
        <pt x="60" y="0" on="1"/>
        <pt x="50" y="0" on="1"/>
      </contour>
      <contour>
        <pt x="297" y="726" on="1"/>
        <pt x="313" y="726" on="1"/>
        <pt x="337" y="726" on="0"/>
        <pt x="383" y="715" on="0"/>
        <pt x="419" y="688" on="0"/>
        <pt x="441" y="642" on="0"/>
        <pt x="441" y="606" on="1"/>
        <pt x="441" y="119" on="1"/>
        <pt x="441" y="82" on="0"/>
        <pt x="418" y="36" on="0"/>
        <pt x="381" y="10" on="0"/>
        <pt x="332" y="0" on="0"/>
        <pt x="307" y="0" on="1"/>
        <pt x="297" y="0" on="1"/>
      </contour>
      <contour>
        <pt x="206" y="416" on="1"/>
        <pt x="297" y="416" on="1"/>
        <pt x="293" y="395" on="0"/>
        <pt x="283" y="360" on="0"/>
        <pt x="264" y="335" on="0"/>
        <pt x="234" y="320" on="0"/>
        <pt x="211" y="320" on="1"/>
        <pt x="206" y="320" on="1"/>
      </contour>
    </TTGlyph>
    <TTGlyph name="I" xMin="50" yMin="0" xMax="194" yMax="726">
      <contour>
        <pt x="194" y="0" on="1"/>
        <pt x="184" y="0" on="1"/>
        <pt x="158" y="0" on="0"/>
        <pt x="110" y="10" on="0"/>
        <pt x="73" y="36" on="0"/>
        <pt x="50" y="82" on="0"/>
        <pt x="50" y="119" on="1"/>
        <pt x="50" y="726" on="1"/>
        <pt x="66" y="726" on="1"/>
        <pt x="90" y="726" on="0"/>
        <pt x="136" y="715" on="0"/>
        <pt x="172" y="688" on="0"/>
        <pt x="194" y="642" on="0"/>
        <pt x="194" y="606" on="1"/>
      </contour>
    </TTGlyph>
    <TTGlyph name="Iacute" xMin="50" yMin="0" xMax="229" yMax="912">
      <contour>
        <pt x="195" y="0" on="1"/>
        <pt x="185" y="0" on="1"/>
        <pt x="159" y="0" on="0"/>
        <pt x="111" y="10" on="0"/>
        <pt x="74" y="36" on="0"/>
        <pt x="51" y="82" on="0"/>
        <pt x="51" y="119" on="1"/>
        <pt x="51" y="726" on="1"/>
        <pt x="67" y="726" on="1"/>
        <pt x="91" y="726" on="0"/>
        <pt x="137" y="715" on="0"/>
        <pt x="173" y="688" on="0"/>
        <pt x="195" y="642" on="0"/>
        <pt x="195" y="606" on="1"/>
      </contour>
      <contour>
        <pt x="50" y="770" on="1"/>
        <pt x="50" y="792" on="0"/>
        <pt x="55" y="842" on="0"/>
        <pt x="76" y="884" on="0"/>
        <pt x="117" y="912" on="0"/>
        <pt x="153" y="912" on="1"/>
        <pt x="229" y="912" on="1"/>
        <pt x="229" y="889" on="0"/>
        <pt x="224" y="839" on="0"/>
        <pt x="204" y="797" on="0"/>
        <pt x="162" y="770" on="0"/>
        <pt x="126" y="770" on="1"/>
      </contour>
    </TTGlyph>
    <TTGlyph name="Icircumflex" xMin="30" yMin="0" xMax="278" yMax="905">
      <contour>
        <pt x="252" y="852" on="1"/>
        <pt x="266" y="844" on="0"/>
        <pt x="278" y="820" on="0"/>
        <pt x="278" y="805" on="1"/>
        <pt x="278" y="785" on="0"/>
        <pt x="253" y="748" on="0"/>
        <pt x="230" y="743" on="1"/>
        <pt x="154" y="785" on="1"/>
        <pt x="80" y="743" on="1"/>
        <pt x="54" y="750" on="0"/>
        <pt x="30" y="784" on="0"/>
        <pt x="30" y="802" on="1"/>
        <pt x="30" y="817" on="0"/>
        <pt x="44" y="844" on="0"/>
        <pt x="57" y="851" on="1"/>
        <pt x="154" y="905" on="1"/>
      </contour>
      <contour>
        <pt x="225" y="0" on="1"/>
        <pt x="215" y="0" on="1"/>
        <pt x="189" y="0" on="0"/>
        <pt x="141" y="10" on="0"/>
        <pt x="104" y="36" on="0"/>
        <pt x="81" y="82" on="0"/>
        <pt x="81" y="119" on="1"/>
        <pt x="81" y="726" on="1"/>
        <pt x="97" y="726" on="1"/>
        <pt x="121" y="726" on="0"/>
        <pt x="167" y="715" on="0"/>
        <pt x="203" y="688" on="0"/>
        <pt x="225" y="642" on="0"/>
        <pt x="225" y="606" on="1"/>
      </contour>
    </TTGlyph>
    <TTGlyph name="Idieresis" xMin="0" yMin="0" xMax="296" yMax="912">
      <contour>
        <pt x="221" y="0" on="1"/>
        <pt x="211" y="0" on="1"/>
        <pt x="185" y="0" on="0"/>
        <pt x="137" y="10" on="0"/>
        <pt x="100" y="36" on="0"/>
        <pt x="77" y="82" on="0"/>
        <pt x="77" y="119" on="1"/>
        <pt x="77" y="726" on="1"/>
        <pt x="93" y="726" on="1"/>
        <pt x="117" y="726" on="0"/>
        <pt x="163" y="715" on="0"/>
        <pt x="199" y="688" on="0"/>
        <pt x="221" y="642" on="0"/>
        <pt x="221" y="606" on="1"/>
      </contour>
      <contour>
        <pt x="0" y="842" on="1"/>
        <pt x="0" y="871" on="0"/>
        <pt x="41" y="912" on="0"/>
        <pt x="70" y="912" on="1"/>
        <pt x="99" y="912" on="0"/>
        <pt x="140" y="871" on="0"/>
        <pt x="140" y="842" on="1"/>
        <pt x="140" y="813" on="0"/>
        <pt x="99" y="773" on="0"/>
        <pt x="70" y="773" on="1"/>
        <pt x="41" y="773" on="0"/>
        <pt x="0" y="813" on="0"/>
      </contour>
      <contour>
        <pt x="156" y="842" on="1"/>
        <pt x="156" y="871" on="0"/>
        <pt x="198" y="912" on="0"/>
        <pt x="227" y="912" on="1"/>
        <pt x="256" y="912" on="0"/>
        <pt x="296" y="871" on="0"/>
        <pt x="296" y="842" on="1"/>
        <pt x="296" y="813" on="0"/>
        <pt x="256" y="773" on="0"/>
        <pt x="227" y="773" on="1"/>
        <pt x="198" y="773" on="0"/>
        <pt x="156" y="813" on="0"/>
      </contour>
    </TTGlyph>
    <TTGlyph name="Igrave" xMin="50" yMin="0" xMax="229" yMax="912">
      <contour>
        <pt x="212" y="0" on="1"/>
        <pt x="202" y="0" on="1"/>
        <pt x="176" y="0" on="0"/>
        <pt x="128" y="10" on="0"/>
        <pt x="91" y="36" on="0"/>
        <pt x="68" y="82" on="0"/>
        <pt x="68" y="119" on="1"/>
        <pt x="68" y="726" on="1"/>
        <pt x="84" y="726" on="1"/>
        <pt x="108" y="726" on="0"/>
        <pt x="154" y="715" on="0"/>
        <pt x="190" y="688" on="0"/>
        <pt x="212" y="642" on="0"/>
        <pt x="212" y="606" on="1"/>
      </contour>
      <contour>
        <pt x="153" y="770" on="1"/>
        <pt x="117" y="770" on="0"/>
        <pt x="75" y="797" on="0"/>
        <pt x="55" y="839" on="0"/>
        <pt x="50" y="889" on="0"/>
        <pt x="50" y="912" on="1"/>
        <pt x="126" y="912" on="1"/>
        <pt x="162" y="912" on="0"/>
        <pt x="203" y="884" on="0"/>
        <pt x="224" y="842" on="0"/>
        <pt x="229" y="792" on="0"/>
        <pt x="229" y="770" on="1"/>
      </contour>
    </TTGlyph>
    <TTGlyph name="J" xMin="5" yMin="0" xMax="308" yMax="726">
      <contour>
        <pt x="164" y="726" on="1"/>
        <pt x="180" y="726" on="1"/>
        <pt x="204" y="726" on="0"/>
        <pt x="250" y="715" on="0"/>
        <pt x="286" y="688" on="0"/>
        <pt x="308" y="642" on="0"/>
        <pt x="308" y="606" on="1"/>
        <pt x="308" y="259" on="1"/>
        <pt x="308" y="222" on="0"/>
        <pt x="285" y="176" on="0"/>
        <pt x="248" y="150" on="0"/>
        <pt x="199" y="140" on="0"/>
        <pt x="174" y="140" on="1"/>
        <pt x="164" y="140" on="1"/>
      </contour>
      <contour>
        <pt x="5" y="96" on="1"/>
        <pt x="5" y="127" on="0"/>
        <pt x="29" y="166" on="0"/>
        <pt x="63" y="188" on="0"/>
        <pt x="101" y="195" on="0"/>
        <pt x="115" y="195" on="1"/>
        <pt x="127" y="195" on="0"/>
        <pt x="135" y="193" on="1"/>
        <pt x="135" y="147" on="1"/>
        <pt x="135" y="126" on="0"/>
        <pt x="155" y="106" on="0"/>
        <pt x="170" y="106" on="1"/>
        <pt x="188" y="106" on="0"/>
        <pt x="202" y="118" on="1"/>
        <pt x="205" y="110" on="0"/>
        <pt x="206" y="97" on="0"/>
        <pt x="206" y="89" on="1"/>
        <pt x="206" y="77" on="0"/>
        <pt x="195" y="46" on="0"/>
        <pt x="172" y="19" on="0"/>
        <pt x="135" y="0" on="0"/>
        <pt x="109" y="0" on="1"/>
        <pt x="82" y="0" on="0"/>
        <pt x="43" y="18" on="0"/>
        <pt x="18" y="45" on="0"/>
        <pt x="5" y="79" on="0"/>
      </contour>
    </TTGlyph>
    <TTGlyph name="K" xMin="55" yMin="0" xMax="407" yMax="726">
      <contour>
        <pt x="55" y="726" on="1"/>
        <pt x="71" y="726" on="1"/>
        <pt x="95" y="726" on="0"/>
        <pt x="141" y="715" on="0"/>
        <pt x="177" y="688" on="0"/>
        <pt x="199" y="642" on="0"/>
        <pt x="199" y="606" on="1"/>
        <pt x="199" y="119" on="1"/>
        <pt x="199" y="82" on="0"/>
        <pt x="176" y="36" on="0"/>
        <pt x="139" y="10" on="0"/>
        <pt x="90" y="0" on="0"/>
        <pt x="65" y="0" on="1"/>
        <pt x="55" y="0" on="1"/>
      </contour>
      <contour>
        <pt x="397" y="0" on="1"/>
        <pt x="387" y="0" on="1"/>
        <pt x="361" y="0" on="0"/>
        <pt x="310" y="10" on="0"/>
        <pt x="269" y="36" on="0"/>
        <pt x="243" y="82" on="0"/>
        <pt x="243" y="119" on="1"/>
        <pt x="243" y="361" on="1"/>
        <pt x="259" y="361" on="1"/>
        <pt x="284" y="361" on="0"/>
        <pt x="334" y="350" on="0"/>
        <pt x="373" y="323" on="0"/>
        <pt x="397" y="277" on="0"/>
        <pt x="397" y="241" on="1"/>
      </contour>
      <contour>
        <pt x="407" y="507" on="1"/>
        <pt x="407" y="447" on="0"/>
        <pt x="357" y="372" on="0"/>
        <pt x="302" y="372" on="1"/>
        <pt x="282" y="372" on="0"/>
        <pt x="250" y="385" on="0"/>
        <pt x="228" y="405" on="0"/>
        <pt x="216" y="431" on="0"/>
        <pt x="216" y="443" on="1"/>
        <pt x="216" y="455" on="0"/>
        <pt x="218" y="469" on="0"/>
        <pt x="219" y="474" on="1"/>
        <pt x="224" y="468" on="0"/>
        <pt x="233" y="462" on="0"/>
        <pt x="241" y="462" on="1"/>
        <pt x="255" y="463" on="0"/>
        <pt x="261" y="484" on="0"/>
        <pt x="261" y="499" on="1"/>
        <pt x="261" y="725" on="1"/>
        <pt x="274" y="725" on="1"/>
        <pt x="295" y="725" on="0"/>
        <pt x="341" y="717" on="0"/>
        <pt x="381" y="692" on="0"/>
        <pt x="407" y="643" on="0"/>
        <pt x="407" y="602" on="1"/>
      </contour>
    </TTGlyph>
    <TTGlyph name="L" xMin="50" yMin="0" xMax="413" yMax="726">
      <contour>
        <pt x="194" y="0" on="1"/>
        <pt x="184" y="0" on="1"/>
        <pt x="158" y="0" on="0"/>
        <pt x="110" y="10" on="0"/>
        <pt x="73" y="36" on="0"/>
        <pt x="50" y="82" on="0"/>
        <pt x="50" y="119" on="1"/>
        <pt x="50" y="726" on="1"/>
        <pt x="66" y="726" on="1"/>
        <pt x="90" y="726" on="0"/>
        <pt x="136" y="715" on="0"/>
        <pt x="172" y="688" on="0"/>
        <pt x="194" y="642" on="0"/>
        <pt x="194" y="606" on="1"/>
      </contour>
      <contour>
        <pt x="413" y="96" on="1"/>
        <pt x="413" y="79" on="0"/>
        <pt x="400" y="45" on="0"/>
        <pt x="375" y="18" on="0"/>
        <pt x="336" y="0" on="0"/>
        <pt x="311" y="0" on="1"/>
        <pt x="307" y="0" on="1"/>
        <pt x="280" y="0" on="0"/>
        <pt x="244" y="19" on="0"/>
        <pt x="221" y="46" on="0"/>
        <pt x="212" y="77" on="0"/>
        <pt x="212" y="89" on="1"/>
        <pt x="212" y="97" on="0"/>
        <pt x="213" y="110" on="0"/>
        <pt x="216" y="118" on="1"/>
        <pt x="229" y="106" on="0"/>
        <pt x="248" y="106" on="1"/>
        <pt x="263" y="106" on="0"/>
        <pt x="283" y="125" on="0"/>
        <pt x="283" y="144" on="1"/>
        <pt x="283" y="193" on="1"/>
        <pt x="285" y="194" on="0"/>
        <pt x="308" y="195" on="0"/>
        <pt x="315" y="195" on="1"/>
        <pt x="326" y="195" on="0"/>
        <pt x="360" y="188" on="0"/>
        <pt x="391" y="166" on="0"/>
        <pt x="413" y="127" on="0"/>
      </contour>
    </TTGlyph>
    <TTGlyph name="M" xMin="50" yMin="0" xMax="674" yMax="727">
      <contour>
        <pt x="291" y="559" on="1"/>
        <pt x="291" y="570" on="0"/>
        <pt x="288" y="593" on="0"/>
        <pt x="279" y="612" on="0"/>
        <pt x="262" y="624" on="0"/>
        <pt x="247" y="624" on="1"/>
        <pt x="228" y="624" on="0"/>
        <pt x="215" y="612" on="1"/>
        <pt x="209" y="628" on="0"/>
        <pt x="209" y="641" on="1"/>
        <pt x="209" y="657" on="0"/>
        <pt x="220" y="688" on="0"/>
        <pt x="244" y="712" on="0"/>
        <pt x="281" y="727" on="0"/>
        <pt x="308" y="727" on="1"/>
        <pt x="368" y="727" on="0"/>
        <pt x="434" y="655" on="0"/>
        <pt x="434" y="592" on="1"/>
        <pt x="434" y="0" on="1"/>
        <pt x="407" y="0" on="0"/>
        <pt x="356" y="8" on="0"/>
        <pt x="315" y="33" on="0"/>
        <pt x="291" y="83" on="0"/>
        <pt x="291" y="125" on="1"/>
      </contour>
      <contour>
        <pt x="194" y="0" on="1"/>
        <pt x="184" y="0" on="1"/>
        <pt x="158" y="0" on="0"/>
        <pt x="110" y="10" on="0"/>
        <pt x="73" y="36" on="0"/>
        <pt x="50" y="82" on="0"/>
        <pt x="50" y="119" on="1"/>
        <pt x="50" y="726" on="1"/>
        <pt x="66" y="726" on="1"/>
        <pt x="90" y="726" on="0"/>
        <pt x="136" y="715" on="0"/>
        <pt x="172" y="688" on="0"/>
        <pt x="194" y="642" on="0"/>
        <pt x="194" y="606" on="1"/>
      </contour>
      <contour>
        <pt x="531" y="559" on="1"/>
        <pt x="531" y="570" on="0"/>
        <pt x="528" y="593" on="0"/>
        <pt x="519" y="612" on="0"/>
        <pt x="502" y="624" on="0"/>
        <pt x="487" y="624" on="1"/>
        <pt x="468" y="624" on="0"/>
        <pt x="455" y="612" on="1"/>
        <pt x="449" y="628" on="0"/>
        <pt x="449" y="641" on="1"/>
        <pt x="449" y="657" on="0"/>
        <pt x="460" y="688" on="0"/>
        <pt x="484" y="712" on="0"/>
        <pt x="521" y="727" on="0"/>
        <pt x="548" y="727" on="1"/>
        <pt x="608" y="727" on="0"/>
        <pt x="674" y="655" on="0"/>
        <pt x="674" y="592" on="1"/>
        <pt x="674" y="0" on="1"/>
        <pt x="647" y="0" on="0"/>
        <pt x="596" y="8" on="0"/>
        <pt x="555" y="33" on="0"/>
        <pt x="531" y="83" on="0"/>
        <pt x="531" y="125" on="1"/>
      </contour>
    </TTGlyph>
    <TTGlyph name="N" xMin="50" yMin="0" xMax="434" yMax="727">
      <contour>
        <pt x="291" y="559" on="1"/>
        <pt x="291" y="570" on="0"/>
        <pt x="288" y="593" on="0"/>
        <pt x="279" y="612" on="0"/>
        <pt x="262" y="624" on="0"/>
        <pt x="247" y="624" on="1"/>
        <pt x="228" y="624" on="0"/>
        <pt x="215" y="612" on="1"/>
        <pt x="209" y="628" on="0"/>
        <pt x="209" y="641" on="1"/>
        <pt x="209" y="657" on="0"/>
        <pt x="220" y="688" on="0"/>
        <pt x="244" y="712" on="0"/>
        <pt x="281" y="727" on="0"/>
        <pt x="308" y="727" on="1"/>
        <pt x="368" y="727" on="0"/>
        <pt x="434" y="655" on="0"/>
        <pt x="434" y="592" on="1"/>
        <pt x="434" y="0" on="1"/>
        <pt x="407" y="0" on="0"/>
        <pt x="356" y="8" on="0"/>
        <pt x="315" y="33" on="0"/>
        <pt x="291" y="83" on="0"/>
        <pt x="291" y="125" on="1"/>
      </contour>
      <contour>
        <pt x="194" y="0" on="1"/>
        <pt x="184" y="0" on="1"/>
        <pt x="158" y="0" on="0"/>
        <pt x="110" y="10" on="0"/>
        <pt x="73" y="36" on="0"/>
        <pt x="50" y="82" on="0"/>
        <pt x="50" y="119" on="1"/>
        <pt x="50" y="726" on="1"/>
        <pt x="66" y="726" on="1"/>
        <pt x="90" y="726" on="0"/>
        <pt x="136" y="715" on="0"/>
        <pt x="172" y="688" on="0"/>
        <pt x="194" y="642" on="0"/>
        <pt x="194" y="606" on="1"/>
      </contour>
    </TTGlyph>
    <TTGlyph name="Ntilde" xMin="50" yMin="0" xMax="434" yMax="907">
      <contour>
        <pt x="291" y="559" on="1"/>
        <pt x="291" y="570" on="0"/>
        <pt x="288" y="593" on="0"/>
        <pt x="279" y="612" on="0"/>
        <pt x="262" y="624" on="0"/>
        <pt x="247" y="624" on="1"/>
        <pt x="228" y="624" on="0"/>
        <pt x="215" y="612" on="1"/>
        <pt x="209" y="628" on="0"/>
        <pt x="209" y="641" on="1"/>
        <pt x="209" y="657" on="0"/>
        <pt x="220" y="688" on="0"/>
        <pt x="244" y="712" on="0"/>
        <pt x="281" y="727" on="0"/>
        <pt x="308" y="727" on="1"/>
        <pt x="368" y="727" on="0"/>
        <pt x="434" y="655" on="0"/>
        <pt x="434" y="592" on="1"/>
        <pt x="434" y="0" on="1"/>
        <pt x="407" y="0" on="0"/>
        <pt x="356" y="8" on="0"/>
        <pt x="315" y="33" on="0"/>
        <pt x="291" y="83" on="0"/>
        <pt x="291" y="125" on="1"/>
      </contour>
      <contour>
        <pt x="194" y="0" on="1"/>
        <pt x="184" y="0" on="1"/>
        <pt x="158" y="0" on="0"/>
        <pt x="110" y="10" on="0"/>
        <pt x="73" y="36" on="0"/>
        <pt x="50" y="82" on="0"/>
        <pt x="50" y="119" on="1"/>
        <pt x="50" y="726" on="1"/>
        <pt x="66" y="726" on="1"/>
        <pt x="90" y="726" on="0"/>
        <pt x="136" y="715" on="0"/>
        <pt x="172" y="688" on="0"/>
        <pt x="194" y="642" on="0"/>
        <pt x="194" y="606" on="1"/>
      </contour>
      <contour>
        <pt x="282" y="760" on="1"/>
        <pt x="263" y="763" on="0"/>
        <pt x="233" y="773" on="0"/>
        <pt x="204" y="782" on="0"/>
        <pt x="176" y="789" on="0"/>
        <pt x="160" y="789" on="1"/>
        <pt x="143" y="789" on="0"/>
        <pt x="111" y="774" on="0"/>
        <pt x="97" y="754" on="1"/>
        <pt x="78" y="782" on="0"/>
        <pt x="78" y="813" on="1"/>
        <pt x="78" y="832" on="0"/>
        <pt x="93" y="867" on="0"/>
        <pt x="120" y="892" on="0"/>
        <pt x="155" y="907" on="0"/>
        <pt x="175" y="907" on="1"/>
        <pt x="195" y="907" on="0"/>
        <pt x="226" y="899" on="0"/>
        <pt x="254" y="888" on="0"/>
        <pt x="281" y="880" on="0"/>
        <pt x="297" y="880" on="1"/>
        <pt x="313" y="880" on="0"/>
        <pt x="345" y="891" on="0"/>
        <pt x="362" y="906" on="1"/>
        <pt x="386" y="870" on="0"/>
        <pt x="386" y="839" on="1"/>
        <pt x="386" y="807" on="0"/>
        <pt x="342" y="759" on="0"/>
        <pt x="300" y="759" on="1"/>
        <pt x="291" y="759" on="1"/>
        <pt x="287" y="759" on="0"/>
      </contour>
    </TTGlyph>
    <TTGlyph name="O" xMin="50" yMin="0" xMax="434" yMax="728">
      <contour>
        <pt x="291" y="559" on="1"/>
        <pt x="291" y="570" on="0"/>
        <pt x="288" y="593" on="0"/>
        <pt x="279" y="612" on="0"/>
        <pt x="262" y="624" on="0"/>
        <pt x="247" y="624" on="1"/>
        <pt x="228" y="624" on="0"/>
        <pt x="215" y="612" on="1"/>
        <pt x="209" y="628" on="0"/>
        <pt x="209" y="641" on="1"/>
        <pt x="209" y="657" on="0"/>
        <pt x="220" y="688" on="0"/>
        <pt x="244" y="712" on="0"/>
        <pt x="281" y="727" on="0"/>
        <pt x="308" y="727" on="1"/>
        <pt x="368" y="727" on="0"/>
        <pt x="434" y="655" on="0"/>
        <pt x="434" y="592" on="1"/>
        <pt x="434" y="125" on="1"/>
        <pt x="434" y="83" on="0"/>
        <pt x="410" y="33" on="0"/>
        <pt x="369" y="8" on="0"/>
        <pt x="318" y="0" on="0"/>
        <pt x="291" y="0" on="1"/>
      </contour>
      <contour>
        <pt x="193" y="169" on="1"/>
        <pt x="193" y="158" on="0"/>
        <pt x="196" y="135" on="0"/>
        <pt x="205" y="116" on="0"/>
        <pt x="222" y="104" on="0"/>
        <pt x="237" y="104" on="1"/>
        <pt x="255" y="104" on="0"/>
        <pt x="269" y="116" on="1"/>
        <pt x="272" y="108" on="0"/>
        <pt x="275" y="95" on="0"/>
        <pt x="275" y="87" on="1"/>
        <pt x="275" y="71" on="0"/>
        <pt x="264" y="40" on="0"/>
        <pt x="240" y="16" on="0"/>
        <pt x="203" y="1" on="0"/>
        <pt x="176" y="1" on="1"/>
        <pt x="116" y="1" on="0"/>
        <pt x="50" y="73" on="0"/>
        <pt x="50" y="136" on="1"/>
        <pt x="50" y="603" on="1"/>
        <pt x="50" y="645" on="0"/>
        <pt x="74" y="695" on="0"/>
        <pt x="115" y="720" on="0"/>
        <pt x="166" y="728" on="0"/>
        <pt x="193" y="728" on="1"/>
      </contour>
    </TTGlyph>
    <TTGlyph name="Oacute" xMin="50" yMin="0" xMax="434" yMax="912">
      <contour>
        <pt x="291" y="559" on="1"/>
        <pt x="291" y="570" on="0"/>
        <pt x="288" y="593" on="0"/>
        <pt x="279" y="612" on="0"/>
        <pt x="262" y="624" on="0"/>
        <pt x="247" y="624" on="1"/>
        <pt x="228" y="624" on="0"/>
        <pt x="215" y="612" on="1"/>
        <pt x="209" y="628" on="0"/>
        <pt x="209" y="641" on="1"/>
        <pt x="209" y="657" on="0"/>
        <pt x="220" y="688" on="0"/>
        <pt x="244" y="712" on="0"/>
        <pt x="281" y="727" on="0"/>
        <pt x="308" y="727" on="1"/>
        <pt x="368" y="727" on="0"/>
        <pt x="434" y="655" on="0"/>
        <pt x="434" y="592" on="1"/>
        <pt x="434" y="125" on="1"/>
        <pt x="434" y="83" on="0"/>
        <pt x="410" y="33" on="0"/>
        <pt x="369" y="8" on="0"/>
        <pt x="318" y="0" on="0"/>
        <pt x="291" y="0" on="1"/>
      </contour>
      <contour>
        <pt x="193" y="169" on="1"/>
        <pt x="193" y="158" on="0"/>
        <pt x="196" y="135" on="0"/>
        <pt x="205" y="116" on="0"/>
        <pt x="222" y="104" on="0"/>
        <pt x="237" y="104" on="1"/>
        <pt x="255" y="104" on="0"/>
        <pt x="269" y="116" on="1"/>
        <pt x="272" y="108" on="0"/>
        <pt x="275" y="95" on="0"/>
        <pt x="275" y="87" on="1"/>
        <pt x="275" y="71" on="0"/>
        <pt x="264" y="40" on="0"/>
        <pt x="240" y="16" on="0"/>
        <pt x="203" y="1" on="0"/>
        <pt x="176" y="1" on="1"/>
        <pt x="116" y="1" on="0"/>
        <pt x="50" y="73" on="0"/>
        <pt x="50" y="136" on="1"/>
        <pt x="50" y="603" on="1"/>
        <pt x="50" y="645" on="0"/>
        <pt x="74" y="695" on="0"/>
        <pt x="115" y="720" on="0"/>
        <pt x="166" y="728" on="0"/>
        <pt x="193" y="728" on="1"/>
      </contour>
      <contour>
        <pt x="175" y="770" on="1"/>
        <pt x="175" y="792" on="0"/>
        <pt x="180" y="842" on="0"/>
        <pt x="201" y="884" on="0"/>
        <pt x="242" y="912" on="0"/>
        <pt x="278" y="912" on="1"/>
        <pt x="354" y="912" on="1"/>
        <pt x="354" y="889" on="0"/>
        <pt x="349" y="839" on="0"/>
        <pt x="329" y="797" on="0"/>
        <pt x="287" y="770" on="0"/>
        <pt x="251" y="770" on="1"/>
      </contour>
    </TTGlyph>
    <TTGlyph name="Ocircumflex" xMin="50" yMin="0" xMax="434" yMax="905">
      <contour>
        <pt x="344" y="852" on="1"/>
        <pt x="358" y="844" on="0"/>
        <pt x="370" y="820" on="0"/>
        <pt x="370" y="805" on="1"/>
        <pt x="370" y="785" on="0"/>
        <pt x="345" y="748" on="0"/>
        <pt x="322" y="743" on="1"/>
        <pt x="246" y="785" on="1"/>
        <pt x="172" y="743" on="1"/>
        <pt x="146" y="750" on="0"/>
        <pt x="122" y="784" on="0"/>
        <pt x="122" y="802" on="1"/>
        <pt x="122" y="817" on="0"/>
        <pt x="136" y="844" on="0"/>
        <pt x="149" y="851" on="1"/>
        <pt x="246" y="905" on="1"/>
      </contour>
      <contour>
        <pt x="291" y="559" on="1"/>
        <pt x="291" y="570" on="0"/>
        <pt x="288" y="593" on="0"/>
        <pt x="279" y="612" on="0"/>
        <pt x="262" y="624" on="0"/>
        <pt x="247" y="624" on="1"/>
        <pt x="228" y="624" on="0"/>
        <pt x="215" y="612" on="1"/>
        <pt x="209" y="628" on="0"/>
        <pt x="209" y="641" on="1"/>
        <pt x="209" y="657" on="0"/>
        <pt x="220" y="688" on="0"/>
        <pt x="244" y="712" on="0"/>
        <pt x="281" y="727" on="0"/>
        <pt x="308" y="727" on="1"/>
        <pt x="368" y="727" on="0"/>
        <pt x="434" y="655" on="0"/>
        <pt x="434" y="592" on="1"/>
        <pt x="434" y="125" on="1"/>
        <pt x="434" y="83" on="0"/>
        <pt x="410" y="33" on="0"/>
        <pt x="369" y="8" on="0"/>
        <pt x="318" y="0" on="0"/>
        <pt x="291" y="0" on="1"/>
      </contour>
      <contour>
        <pt x="193" y="169" on="1"/>
        <pt x="193" y="158" on="0"/>
        <pt x="196" y="135" on="0"/>
        <pt x="205" y="116" on="0"/>
        <pt x="222" y="104" on="0"/>
        <pt x="237" y="104" on="1"/>
        <pt x="255" y="104" on="0"/>
        <pt x="269" y="116" on="1"/>
        <pt x="272" y="108" on="0"/>
        <pt x="275" y="95" on="0"/>
        <pt x="275" y="87" on="1"/>
        <pt x="275" y="71" on="0"/>
        <pt x="264" y="40" on="0"/>
        <pt x="240" y="16" on="0"/>
        <pt x="203" y="1" on="0"/>
        <pt x="176" y="1" on="1"/>
        <pt x="116" y="1" on="0"/>
        <pt x="50" y="73" on="0"/>
        <pt x="50" y="136" on="1"/>
        <pt x="50" y="603" on="1"/>
        <pt x="50" y="645" on="0"/>
        <pt x="74" y="695" on="0"/>
        <pt x="115" y="720" on="0"/>
        <pt x="166" y="728" on="0"/>
        <pt x="193" y="728" on="1"/>
      </contour>
    </TTGlyph>
    <TTGlyph name="Odieresis" xMin="50" yMin="0" xMax="434" yMax="908">
      <contour>
        <pt x="291" y="559" on="1"/>
        <pt x="291" y="570" on="0"/>
        <pt x="288" y="593" on="0"/>
        <pt x="279" y="612" on="0"/>
        <pt x="262" y="624" on="0"/>
        <pt x="247" y="624" on="1"/>
        <pt x="228" y="624" on="0"/>
        <pt x="215" y="612" on="1"/>
        <pt x="209" y="628" on="0"/>
        <pt x="209" y="641" on="1"/>
        <pt x="209" y="657" on="0"/>
        <pt x="220" y="688" on="0"/>
        <pt x="244" y="712" on="0"/>
        <pt x="281" y="727" on="0"/>
        <pt x="308" y="727" on="1"/>
        <pt x="368" y="727" on="0"/>
        <pt x="434" y="655" on="0"/>
        <pt x="434" y="592" on="1"/>
        <pt x="434" y="125" on="1"/>
        <pt x="434" y="83" on="0"/>
        <pt x="410" y="33" on="0"/>
        <pt x="369" y="8" on="0"/>
        <pt x="318" y="0" on="0"/>
        <pt x="291" y="0" on="1"/>
      </contour>
      <contour>
        <pt x="193" y="169" on="1"/>
        <pt x="193" y="158" on="0"/>
        <pt x="196" y="135" on="0"/>
        <pt x="205" y="116" on="0"/>
        <pt x="222" y="104" on="0"/>
        <pt x="237" y="104" on="1"/>
        <pt x="255" y="104" on="0"/>
        <pt x="269" y="116" on="1"/>
        <pt x="272" y="108" on="0"/>
        <pt x="275" y="95" on="0"/>
        <pt x="275" y="87" on="1"/>
        <pt x="275" y="71" on="0"/>
        <pt x="264" y="40" on="0"/>
        <pt x="240" y="16" on="0"/>
        <pt x="203" y="1" on="0"/>
        <pt x="176" y="1" on="1"/>
        <pt x="116" y="1" on="0"/>
        <pt x="50" y="73" on="0"/>
        <pt x="50" y="136" on="1"/>
        <pt x="50" y="603" on="1"/>
        <pt x="50" y="645" on="0"/>
        <pt x="74" y="695" on="0"/>
        <pt x="115" y="720" on="0"/>
        <pt x="166" y="728" on="0"/>
        <pt x="193" y="728" on="1"/>
      </contour>
      <contour>
        <pt x="95" y="838" on="1"/>
        <pt x="95" y="867" on="0"/>
        <pt x="136" y="908" on="0"/>
        <pt x="165" y="908" on="1"/>
        <pt x="194" y="908" on="0"/>
        <pt x="235" y="867" on="0"/>
        <pt x="235" y="838" on="1"/>
        <pt x="235" y="809" on="0"/>
        <pt x="194" y="769" on="0"/>
        <pt x="165" y="769" on="1"/>
        <pt x="136" y="769" on="0"/>
        <pt x="95" y="809" on="0"/>
      </contour>
      <contour>
        <pt x="251" y="838" on="1"/>
        <pt x="251" y="867" on="0"/>
        <pt x="293" y="908" on="0"/>
        <pt x="322" y="908" on="1"/>
        <pt x="351" y="908" on="0"/>
        <pt x="391" y="867" on="0"/>
        <pt x="391" y="838" on="1"/>
        <pt x="391" y="809" on="0"/>
        <pt x="351" y="769" on="0"/>
        <pt x="322" y="769" on="1"/>
        <pt x="293" y="769" on="0"/>
        <pt x="251" y="809" on="0"/>
      </contour>
    </TTGlyph>
    <TTGlyph name="Ograve" xMin="50" yMin="0" xMax="434" yMax="913">
      <contour>
        <pt x="291" y="559" on="1"/>
        <pt x="291" y="570" on="0"/>
        <pt x="288" y="593" on="0"/>
        <pt x="279" y="612" on="0"/>
        <pt x="262" y="624" on="0"/>
        <pt x="247" y="624" on="1"/>
        <pt x="228" y="624" on="0"/>
        <pt x="215" y="612" on="1"/>
        <pt x="209" y="628" on="0"/>
        <pt x="209" y="641" on="1"/>
        <pt x="209" y="657" on="0"/>
        <pt x="220" y="688" on="0"/>
        <pt x="244" y="712" on="0"/>
        <pt x="281" y="727" on="0"/>
        <pt x="308" y="727" on="1"/>
        <pt x="368" y="727" on="0"/>
        <pt x="434" y="655" on="0"/>
        <pt x="434" y="592" on="1"/>
        <pt x="434" y="125" on="1"/>
        <pt x="434" y="83" on="0"/>
        <pt x="410" y="33" on="0"/>
        <pt x="369" y="8" on="0"/>
        <pt x="318" y="0" on="0"/>
        <pt x="291" y="0" on="1"/>
      </contour>
      <contour>
        <pt x="193" y="169" on="1"/>
        <pt x="193" y="158" on="0"/>
        <pt x="196" y="135" on="0"/>
        <pt x="205" y="116" on="0"/>
        <pt x="222" y="104" on="0"/>
        <pt x="237" y="104" on="1"/>
        <pt x="255" y="104" on="0"/>
        <pt x="269" y="116" on="1"/>
        <pt x="272" y="108" on="0"/>
        <pt x="275" y="95" on="0"/>
        <pt x="275" y="87" on="1"/>
        <pt x="275" y="71" on="0"/>
        <pt x="264" y="40" on="0"/>
        <pt x="240" y="16" on="0"/>
        <pt x="203" y="1" on="0"/>
        <pt x="176" y="1" on="1"/>
        <pt x="116" y="1" on="0"/>
        <pt x="50" y="73" on="0"/>
        <pt x="50" y="136" on="1"/>
        <pt x="50" y="603" on="1"/>
        <pt x="50" y="645" on="0"/>
        <pt x="74" y="695" on="0"/>
        <pt x="115" y="720" on="0"/>
        <pt x="166" y="728" on="0"/>
        <pt x="193" y="728" on="1"/>
      </contour>
      <contour>
        <pt x="248" y="771" on="1"/>
        <pt x="212" y="771" on="0"/>
        <pt x="170" y="798" on="0"/>
        <pt x="150" y="840" on="0"/>
        <pt x="145" y="890" on="0"/>
        <pt x="145" y="913" on="1"/>
        <pt x="221" y="913" on="1"/>
        <pt x="257" y="913" on="0"/>
        <pt x="298" y="885" on="0"/>
        <pt x="319" y="843" on="0"/>
        <pt x="324" y="793" on="0"/>
        <pt x="324" y="771" on="1"/>
      </contour>
    </TTGlyph>
    <TTGlyph name="Oslash" xMin="50" yMin="-168" xMax="439" yMax="901">
      <contour>
        <pt x="439" y="685" on="1"/>
        <pt x="435" y="700" on="0"/>
        <pt x="412" y="724" on="0"/>
        <pt x="380" y="742" on="0"/>
        <pt x="341" y="751" on="0"/>
        <pt x="322" y="751" on="1"/>
        <pt x="307" y="751" on="0"/>
        <pt x="294" y="748" on="1"/>
        <pt x="294" y="786" on="1"/>
        <pt x="294" y="819" on="0"/>
        <pt x="314" y="864" on="0"/>
        <pt x="347" y="890" on="0"/>
        <pt x="388" y="901" on="0"/>
        <pt x="409" y="901" on="1"/>
        <pt x="424" y="901" on="0"/>
        <pt x="439" y="898" on="1"/>
      </contour>
      <contour>
        <pt x="50" y="48" on="1"/>
        <pt x="54" y="33" on="0"/>
        <pt x="77" y="9" on="0"/>
        <pt x="109" y="-9" on="0"/>
        <pt x="147" y="-18" on="0"/>
        <pt x="167" y="-18" on="1"/>
        <pt x="181" y="-18" on="0"/>
        <pt x="195" y="-15" on="1"/>
        <pt x="195" y="-53" on="1"/>
        <pt x="195" y="-86" on="0"/>
        <pt x="175" y="-131" on="0"/>
        <pt x="142" y="-157" on="0"/>
        <pt x="101" y="-168" on="0"/>
        <pt x="80" y="-168" on="1"/>
        <pt x="65" y="-168" on="0"/>
        <pt x="50" y="-165" on="1"/>
      </contour>
      <contour>
        <pt x="293" y="559" on="1"/>
        <pt x="293" y="570" on="0"/>
        <pt x="290" y="593" on="0"/>
        <pt x="281" y="612" on="0"/>
        <pt x="264" y="624" on="0"/>
        <pt x="249" y="624" on="1"/>
        <pt x="230" y="624" on="0"/>
        <pt x="217" y="612" on="1"/>
        <pt x="211" y="628" on="0"/>
        <pt x="211" y="641" on="1"/>
        <pt x="211" y="657" on="0"/>
        <pt x="222" y="688" on="0"/>
        <pt x="246" y="712" on="0"/>
        <pt x="283" y="727" on="0"/>
        <pt x="310" y="727" on="1"/>
        <pt x="370" y="727" on="0"/>
        <pt x="436" y="655" on="0"/>
        <pt x="436" y="592" on="1"/>
        <pt x="436" y="125" on="1"/>
        <pt x="436" y="83" on="0"/>
        <pt x="412" y="33" on="0"/>
        <pt x="371" y="8" on="0"/>
        <pt x="320" y="0" on="0"/>
        <pt x="293" y="0" on="1"/>
      </contour>
      <contour>
        <pt x="195" y="169" on="1"/>
        <pt x="195" y="158" on="0"/>
        <pt x="198" y="135" on="0"/>
        <pt x="207" y="116" on="0"/>
        <pt x="224" y="104" on="0"/>
        <pt x="239" y="104" on="1"/>
        <pt x="257" y="104" on="0"/>
        <pt x="271" y="116" on="1"/>
        <pt x="274" y="108" on="0"/>
        <pt x="277" y="95" on="0"/>
        <pt x="277" y="87" on="1"/>
        <pt x="277" y="71" on="0"/>
        <pt x="266" y="40" on="0"/>
        <pt x="242" y="16" on="0"/>
        <pt x="205" y="1" on="0"/>
        <pt x="178" y="1" on="1"/>
        <pt x="118" y="1" on="0"/>
        <pt x="52" y="73" on="0"/>
        <pt x="52" y="136" on="1"/>
        <pt x="52" y="603" on="1"/>
        <pt x="52" y="645" on="0"/>
        <pt x="76" y="695" on="0"/>
        <pt x="117" y="720" on="0"/>
        <pt x="168" y="728" on="0"/>
        <pt x="195" y="728" on="1"/>
      </contour>
    </TTGlyph>
    <TTGlyph name="Otilde" xMin="50" yMin="0" xMax="434" yMax="897">
      <contour>
        <pt x="291" y="559" on="1"/>
        <pt x="291" y="570" on="0"/>
        <pt x="288" y="593" on="0"/>
        <pt x="279" y="612" on="0"/>
        <pt x="262" y="624" on="0"/>
        <pt x="247" y="624" on="1"/>
        <pt x="228" y="624" on="0"/>
        <pt x="215" y="612" on="1"/>
        <pt x="209" y="628" on="0"/>
        <pt x="209" y="641" on="1"/>
        <pt x="209" y="657" on="0"/>
        <pt x="220" y="688" on="0"/>
        <pt x="244" y="712" on="0"/>
        <pt x="281" y="727" on="0"/>
        <pt x="308" y="727" on="1"/>
        <pt x="368" y="727" on="0"/>
        <pt x="434" y="655" on="0"/>
        <pt x="434" y="592" on="1"/>
        <pt x="434" y="125" on="1"/>
        <pt x="434" y="83" on="0"/>
        <pt x="410" y="33" on="0"/>
        <pt x="369" y="8" on="0"/>
        <pt x="318" y="0" on="0"/>
        <pt x="291" y="0" on="1"/>
      </contour>
      <contour>
        <pt x="193" y="169" on="1"/>
        <pt x="193" y="158" on="0"/>
        <pt x="196" y="135" on="0"/>
        <pt x="205" y="116" on="0"/>
        <pt x="222" y="104" on="0"/>
        <pt x="237" y="104" on="1"/>
        <pt x="255" y="104" on="0"/>
        <pt x="269" y="116" on="1"/>
        <pt x="272" y="108" on="0"/>
        <pt x="275" y="95" on="0"/>
        <pt x="275" y="87" on="1"/>
        <pt x="275" y="71" on="0"/>
        <pt x="264" y="40" on="0"/>
        <pt x="240" y="16" on="0"/>
        <pt x="203" y="1" on="0"/>
        <pt x="176" y="1" on="1"/>
        <pt x="116" y="1" on="0"/>
        <pt x="50" y="73" on="0"/>
        <pt x="50" y="136" on="1"/>
        <pt x="50" y="603" on="1"/>
        <pt x="50" y="645" on="0"/>
        <pt x="74" y="695" on="0"/>
        <pt x="115" y="720" on="0"/>
        <pt x="166" y="728" on="0"/>
        <pt x="193" y="728" on="1"/>
      </contour>
      <contour>
        <pt x="287" y="750" on="1"/>
        <pt x="268" y="753" on="0"/>
        <pt x="238" y="763" on="0"/>
        <pt x="209" y="772" on="0"/>
        <pt x="181" y="779" on="0"/>
        <pt x="165" y="779" on="1"/>
        <pt x="148" y="779" on="0"/>
        <pt x="116" y="764" on="0"/>
        <pt x="102" y="744" on="1"/>
        <pt x="83" y="772" on="0"/>
        <pt x="83" y="803" on="1"/>
        <pt x="83" y="822" on="0"/>
        <pt x="98" y="857" on="0"/>
        <pt x="125" y="882" on="0"/>
        <pt x="160" y="897" on="0"/>
        <pt x="180" y="897" on="1"/>
        <pt x="200" y="897" on="0"/>
        <pt x="231" y="889" on="0"/>
        <pt x="259" y="878" on="0"/>
        <pt x="286" y="870" on="0"/>
        <pt x="302" y="870" on="1"/>
        <pt x="318" y="870" on="0"/>
        <pt x="350" y="881" on="0"/>
        <pt x="367" y="896" on="1"/>
        <pt x="391" y="860" on="0"/>
        <pt x="391" y="829" on="1"/>
        <pt x="391" y="797" on="0"/>
        <pt x="347" y="749" on="0"/>
        <pt x="305" y="749" on="1"/>
        <pt x="296" y="749" on="1"/>
        <pt x="292" y="749" on="0"/>
      </contour>
    </TTGlyph>
    <TTGlyph name="P" xMin="50" yMin="0" xMax="426" yMax="727">
      <contour>
        <pt x="194" y="120" on="1"/>
        <pt x="194" y="85" on="0"/>
        <pt x="166" y="39" on="0"/>
        <pt x="124" y="12" on="0"/>
        <pt x="73" y="0" on="0"/>
        <pt x="50" y="0" on="1"/>
        <pt x="50" y="589" on="1"/>
        <pt x="50" y="655" on="0"/>
        <pt x="110" y="727" on="0"/>
        <pt x="167" y="727" on="1"/>
        <pt x="195" y="727" on="0"/>
        <pt x="235" y="708" on="0"/>
        <pt x="259" y="678" on="0"/>
        <pt x="270" y="639" on="0"/>
        <pt x="270" y="618" on="1"/>
        <pt x="270" y="608" on="1"/>
        <pt x="263" y="614" on="0"/>
        <pt x="246" y="619" on="0"/>
        <pt x="238" y="619" on="1"/>
        <pt x="223" y="619" on="0"/>
        <pt x="206" y="608" on="0"/>
        <pt x="197" y="591" on="0"/>
        <pt x="194" y="569" on="0"/>
        <pt x="194" y="557" on="1"/>
      </contour>
      <contour>
        <pt x="282" y="725" on="1"/>
        <pt x="287" y="725" on="0"/>
        <pt x="294" y="726" on="0"/>
        <pt x="299" y="726" on="1"/>
        <pt x="360" y="726" on="0"/>
        <pt x="426" y="660" on="0"/>
        <pt x="426" y="587" on="1"/>
        <pt x="426" y="408" on="1"/>
        <pt x="426" y="375" on="0"/>
        <pt x="407" y="325" on="0"/>
        <pt x="376" y="290" on="0"/>
        <pt x="333" y="272" on="0"/>
        <pt x="309" y="272" on="1"/>
        <pt x="278" y="272" on="0"/>
        <pt x="238" y="292" on="0"/>
        <pt x="215" y="325" on="0"/>
        <pt x="206" y="367" on="0"/>
        <pt x="206" y="388" on="1"/>
        <pt x="220" y="380" on="0"/>
        <pt x="238" y="380" on="1"/>
        <pt x="253" y="380" on="0"/>
        <pt x="270" y="391" on="0"/>
        <pt x="279" y="408" on="0"/>
        <pt x="282" y="430" on="0"/>
        <pt x="282" y="442" on="1"/>
      </contour>
    </TTGlyph>
    <TTGlyph name="Q" xMin="55" yMin="-200" xMax="439" yMax="728">
      <contour>
        <pt x="296" y="559" on="1"/>
        <pt x="296" y="570" on="0"/>
        <pt x="293" y="593" on="0"/>
        <pt x="284" y="612" on="0"/>
        <pt x="267" y="624" on="0"/>
        <pt x="252" y="624" on="1"/>
        <pt x="233" y="624" on="0"/>
        <pt x="220" y="612" on="1"/>
        <pt x="214" y="628" on="0"/>
        <pt x="214" y="641" on="1"/>
        <pt x="214" y="657" on="0"/>
        <pt x="225" y="688" on="0"/>
        <pt x="249" y="712" on="0"/>
        <pt x="286" y="727" on="0"/>
        <pt x="313" y="727" on="1"/>
        <pt x="373" y="727" on="0"/>
        <pt x="439" y="655" on="0"/>
        <pt x="439" y="592" on="1"/>
        <pt x="439" y="125" on="1"/>
        <pt x="439" y="83" on="0"/>
        <pt x="415" y="33" on="0"/>
        <pt x="374" y="8" on="0"/>
        <pt x="323" y="0" on="0"/>
        <pt x="296" y="0" on="1"/>
      </contour>
      <contour>
        <pt x="198" y="169" on="1"/>
        <pt x="198" y="158" on="0"/>
        <pt x="201" y="135" on="0"/>
        <pt x="210" y="116" on="0"/>
        <pt x="227" y="104" on="0"/>
        <pt x="242" y="104" on="1"/>
        <pt x="260" y="104" on="0"/>
        <pt x="274" y="116" on="1"/>
        <pt x="277" y="108" on="0"/>
        <pt x="280" y="95" on="0"/>
        <pt x="280" y="87" on="1"/>
        <pt x="280" y="71" on="0"/>
        <pt x="269" y="40" on="0"/>
        <pt x="245" y="16" on="0"/>
        <pt x="208" y="1" on="0"/>
        <pt x="181" y="1" on="1"/>
        <pt x="121" y="1" on="0"/>
        <pt x="55" y="73" on="0"/>
        <pt x="55" y="136" on="1"/>
        <pt x="55" y="603" on="1"/>
        <pt x="55" y="645" on="0"/>
        <pt x="79" y="695" on="0"/>
        <pt x="120" y="720" on="0"/>
        <pt x="171" y="728" on="0"/>
        <pt x="198" y="728" on="1"/>
      </contour>
      <contour>
        <pt x="166" y="-104" on="1"/>
        <pt x="166" y="-73" on="0"/>
        <pt x="190" y="-34" on="0"/>
        <pt x="224" y="-12" on="0"/>
        <pt x="262" y="-5" on="0"/>
        <pt x="276" y="-5" on="1"/>
        <pt x="288" y="-5" on="0"/>
        <pt x="296" y="-7" on="1"/>
        <pt x="296" y="-53" on="1"/>
        <pt x="296" y="-74" on="0"/>
        <pt x="316" y="-94" on="0"/>
        <pt x="331" y="-94" on="1"/>
        <pt x="349" y="-94" on="0"/>
        <pt x="363" y="-82" on="1"/>
        <pt x="366" y="-90" on="0"/>
        <pt x="367" y="-103" on="0"/>
        <pt x="367" y="-111" on="1"/>
        <pt x="367" y="-123" on="0"/>
        <pt x="356" y="-154" on="0"/>
        <pt x="333" y="-181" on="0"/>
        <pt x="296" y="-200" on="0"/>
        <pt x="270" y="-200" on="1"/>
        <pt x="243" y="-200" on="0"/>
        <pt x="204" y="-182" on="0"/>
        <pt x="179" y="-155" on="0"/>
        <pt x="166" y="-121" on="0"/>
      </contour>
    </TTGlyph>
    <TTGlyph name="R" xMin="50" yMin="0" xMax="426" yMax="727">
      <contour>
        <pt x="194" y="120" on="1"/>
        <pt x="194" y="85" on="0"/>
        <pt x="166" y="39" on="0"/>
        <pt x="124" y="12" on="0"/>
        <pt x="73" y="0" on="0"/>
        <pt x="50" y="0" on="1"/>
        <pt x="50" y="581" on="1"/>
        <pt x="50" y="651" on="0"/>
        <pt x="114" y="727" on="0"/>
        <pt x="174" y="727" on="1"/>
        <pt x="204" y="727" on="0"/>
        <pt x="242" y="707" on="0"/>
        <pt x="263" y="675" on="0"/>
        <pt x="271" y="638" on="0"/>
        <pt x="271" y="621" on="1"/>
        <pt x="271" y="612" on="0"/>
        <pt x="269" y="608" on="1"/>
        <pt x="256" y="619" on="0"/>
        <pt x="238" y="619" on="1"/>
        <pt x="223" y="619" on="0"/>
        <pt x="206" y="608" on="0"/>
        <pt x="197" y="591" on="0"/>
        <pt x="194" y="569" on="0"/>
        <pt x="194" y="557" on="1"/>
      </contour>
      <contour>
        <pt x="282" y="725" on="1"/>
        <pt x="295" y="725" on="1"/>
        <pt x="352" y="725" on="0"/>
        <pt x="426" y="654" on="0"/>
        <pt x="426" y="587" on="1"/>
        <pt x="426" y="482" on="1"/>
        <pt x="426" y="416" on="0"/>
        <pt x="361" y="348" on="0"/>
        <pt x="315" y="346" on="1"/>
        <pt x="308" y="346" on="1"/>
        <pt x="280" y="346" on="0"/>
        <pt x="242" y="366" on="0"/>
        <pt x="219" y="397" on="0"/>
        <pt x="209" y="434" on="0"/>
        <pt x="209" y="452" on="1"/>
        <pt x="216" y="446" on="0"/>
        <pt x="228" y="441" on="0"/>
        <pt x="246" y="441" on="1"/>
        <pt x="259" y="441" on="0"/>
        <pt x="274" y="456" on="0"/>
        <pt x="281" y="478" on="0"/>
        <pt x="282" y="505" on="0"/>
        <pt x="282" y="516" on="1"/>
      </contour>
      <contour>
        <pt x="410" y="0" on="1"/>
        <pt x="400" y="0" on="1"/>
        <pt x="374" y="0" on="0"/>
        <pt x="323" y="10" on="0"/>
        <pt x="282" y="36" on="0"/>
        <pt x="256" y="82" on="0"/>
        <pt x="256" y="119" on="1"/>
        <pt x="256" y="331" on="1"/>
        <pt x="272" y="331" on="1"/>
        <pt x="297" y="331" on="0"/>
        <pt x="347" y="320" on="0"/>
        <pt x="386" y="293" on="0"/>
        <pt x="410" y="247" on="0"/>
        <pt x="410" y="211" on="1"/>
      </contour>
    </TTGlyph>
    <TTGlyph name="S" xMin="45" yMin="-1" xMax="401" yMax="726">
      <contour>
        <pt x="196" y="320" on="1"/>
        <pt x="184" y="320" on="1"/>
        <pt x="161" y="320" on="0"/>
        <pt x="115" y="330" on="0"/>
        <pt x="76" y="357" on="0"/>
        <pt x="52" y="404" on="0"/>
        <pt x="52" y="440" on="1"/>
        <pt x="52" y="606" on="1"/>
        <pt x="52" y="642" on="0"/>
        <pt x="76" y="689" on="0"/>
        <pt x="115" y="716" on="0"/>
        <pt x="161" y="726" on="0"/>
        <pt x="184" y="726" on="1"/>
        <pt x="196" y="726" on="1"/>
      </contour>
      <contour>
        <pt x="45" y="96" on="1"/>
        <pt x="45" y="127" on="0"/>
        <pt x="69" y="166" on="0"/>
        <pt x="103" y="188" on="0"/>
        <pt x="141" y="195" on="0"/>
        <pt x="155" y="195" on="1"/>
        <pt x="167" y="195" on="0"/>
        <pt x="175" y="193" on="1"/>
        <pt x="175" y="143" on="1"/>
        <pt x="175" y="106" on="0"/>
        <pt x="204" y="106" on="1"/>
        <pt x="213" y="106" on="0"/>
        <pt x="225" y="112" on="0"/>
        <pt x="232" y="118" on="1"/>
        <pt x="235" y="110" on="0"/>
        <pt x="236" y="86" on="0"/>
        <pt x="236" y="79" on="1"/>
        <pt x="236" y="67" on="0"/>
        <pt x="228" y="39" on="0"/>
        <pt x="209" y="16" on="0"/>
        <pt x="175" y="0" on="0"/>
        <pt x="149" y="0" on="1"/>
        <pt x="122" y="0" on="0"/>
        <pt x="83" y="18" on="0"/>
        <pt x="58" y="45" on="0"/>
        <pt x="45" y="79" on="0"/>
      </contour>
      <contour>
        <pt x="252" y="405" on="1"/>
        <pt x="264" y="405" on="1"/>
        <pt x="286" y="405" on="0"/>
        <pt x="333" y="395" on="0"/>
        <pt x="372" y="368" on="0"/>
        <pt x="396" y="321" on="0"/>
        <pt x="396" y="285" on="1"/>
        <pt x="396" y="119" on="1"/>
        <pt x="396" y="83" on="0"/>
        <pt x="372" y="36" on="0"/>
        <pt x="333" y="9" on="0"/>
        <pt x="286" y="-1" on="0"/>
        <pt x="264" y="-1" on="1"/>
        <pt x="252" y="-1" on="1"/>
      </contour>
      <contour>
        <pt x="401" y="630" on="1"/>
        <pt x="401" y="598" on="0"/>
        <pt x="377" y="560" on="0"/>
        <pt x="343" y="538" on="0"/>
        <pt x="305" y="531" on="0"/>
        <pt x="291" y="531" on="1"/>
        <pt x="279" y="531" on="0"/>
        <pt x="271" y="533" on="1"/>
        <pt x="271" y="583" on="1"/>
        <pt x="271" y="620" on="0"/>
        <pt x="242" y="620" on="1"/>
        <pt x="233" y="620" on="0"/>
        <pt x="221" y="614" on="0"/>
        <pt x="214" y="608" on="1"/>
        <pt x="211" y="616" on="0"/>
        <pt x="210" y="640" on="0"/>
        <pt x="210" y="647" on="1"/>
        <pt x="210" y="659" on="0"/>
        <pt x="218" y="687" on="0"/>
        <pt x="237" y="710" on="0"/>
        <pt x="271" y="726" on="0"/>
        <pt x="297" y="726" on="1"/>
        <pt x="324" y="726" on="0"/>
        <pt x="363" y="708" on="0"/>
        <pt x="388" y="681" on="0"/>
        <pt x="401" y="646" on="0"/>
      </contour>
    </TTGlyph>
    <TTGlyph name="T" xMin="5" yMin="0" xMax="582" yMax="726">
      <contour>
        <pt x="365" y="0" on="1"/>
        <pt x="355" y="0" on="1"/>
        <pt x="329" y="0" on="0"/>
        <pt x="281" y="10" on="0"/>
        <pt x="244" y="36" on="0"/>
        <pt x="221" y="82" on="0"/>
        <pt x="221" y="119" on="1"/>
        <pt x="221" y="726" on="1"/>
        <pt x="237" y="726" on="1"/>
        <pt x="261" y="726" on="0"/>
        <pt x="307" y="715" on="0"/>
        <pt x="343" y="688" on="0"/>
        <pt x="365" y="642" on="0"/>
        <pt x="365" y="606" on="1"/>
      </contour>
      <contour>
        <pt x="5" y="627" on="1"/>
        <pt x="5" y="644" on="0"/>
        <pt x="17" y="678" on="0"/>
        <pt x="43" y="706" on="0"/>
        <pt x="81" y="723" on="0"/>
        <pt x="107" y="723" on="1"/>
        <pt x="134" y="723" on="0"/>
        <pt x="172" y="704" on="0"/>
        <pt x="195" y="677" on="0"/>
        <pt x="206" y="646" on="0"/>
        <pt x="206" y="634" on="1"/>
        <pt x="206" y="626" on="0"/>
        <pt x="205" y="613" on="0"/>
        <pt x="202" y="605" on="1"/>
        <pt x="188" y="617" on="0"/>
        <pt x="170" y="617" on="1"/>
        <pt x="155" y="617" on="0"/>
        <pt x="135" y="598" on="0"/>
        <pt x="135" y="579" on="1"/>
        <pt x="135" y="530" on="1"/>
        <pt x="127" y="528" on="0"/>
        <pt x="115" y="528" on="1"/>
        <pt x="101" y="528" on="0"/>
        <pt x="63" y="535" on="0"/>
        <pt x="29" y="557" on="0"/>
        <pt x="5" y="595" on="0"/>
      </contour>
      <contour>
        <pt x="582" y="627" on="1"/>
        <pt x="582" y="595" on="0"/>
        <pt x="558" y="557" on="0"/>
        <pt x="524" y="535" on="0"/>
        <pt x="486" y="528" on="0"/>
        <pt x="472" y="528" on="1"/>
        <pt x="460" y="528" on="0"/>
        <pt x="452" y="530" on="1"/>
        <pt x="452" y="576" on="1"/>
        <pt x="452" y="597" on="0"/>
        <pt x="432" y="617" on="0"/>
        <pt x="417" y="617" on="1"/>
        <pt x="398" y="617" on="0"/>
        <pt x="385" y="605" on="1"/>
        <pt x="382" y="613" on="0"/>
        <pt x="381" y="626" on="0"/>
        <pt x="381" y="634" on="1"/>
        <pt x="381" y="646" on="0"/>
        <pt x="392" y="677" on="0"/>
        <pt x="415" y="704" on="0"/>
        <pt x="452" y="723" on="0"/>
        <pt x="478" y="723" on="1"/>
        <pt x="505" y="723" on="0"/>
        <pt x="544" y="705" on="0"/>
        <pt x="569" y="678" on="0"/>
        <pt x="582" y="643" on="0"/>
      </contour>
    </TTGlyph>
    <TTGlyph name="Thorn" xMin="55" yMin="-250" xMax="452" yMax="764">
      <contour>
        <pt x="55" y="764" on="1"/>
        <pt x="81" y="764" on="0"/>
        <pt x="133" y="752" on="0"/>
        <pt x="174" y="722" on="0"/>
        <pt x="199" y="674" on="0"/>
        <pt x="199" y="638" on="1"/>
        <pt x="199" y="-120" on="1"/>
        <pt x="199" y="-162" on="0"/>
        <pt x="171" y="-213" on="0"/>
        <pt x="129" y="-241" on="0"/>
        <pt x="78" y="-250" on="0"/>
        <pt x="55" y="-250" on="1"/>
      </contour>
      <contour>
        <pt x="452" y="145" on="1"/>
        <pt x="452" y="76" on="0"/>
        <pt x="388" y="1" on="0"/>
        <pt x="330" y="1" on="1"/>
        <pt x="302" y="1" on="0"/>
        <pt x="263" y="16" on="0"/>
        <pt x="238" y="40" on="0"/>
        <pt x="226" y="71" on="0"/>
        <pt x="226" y="87" on="1"/>
        <pt x="226" y="104" on="0"/>
        <pt x="233" y="118" on="1"/>
        <pt x="246" y="107" on="0"/>
        <pt x="264" y="107" on="1"/>
        <pt x="284" y="107" on="0"/>
        <pt x="308" y="139" on="0"/>
        <pt x="308" y="172" on="1"/>
        <pt x="308" y="463" on="1"/>
        <pt x="308" y="483" on="0"/>
        <pt x="291" y="517" on="0"/>
        <pt x="268" y="517" on="1"/>
        <pt x="246" y="517" on="0"/>
        <pt x="232" y="506" on="1"/>
        <pt x="228" y="514" on="0"/>
        <pt x="226" y="529" on="0"/>
        <pt x="226" y="537" on="1"/>
        <pt x="226" y="553" on="0"/>
        <pt x="236" y="585" on="0"/>
        <pt x="260" y="611" on="0"/>
        <pt x="300" y="627" on="0"/>
        <pt x="330" y="627" on="1"/>
        <pt x="363" y="627" on="0"/>
        <pt x="409" y="606" on="0"/>
        <pt x="439" y="570" on="0"/>
        <pt x="452" y="525" on="0"/>
        <pt x="452" y="501" on="1"/>
      </contour>
    </TTGlyph>
    <TTGlyph name="U" xMin="50" yMin="0" xMax="435" yMax="728">
      <contour>
        <pt x="193" y="169" on="1"/>
        <pt x="193" y="158" on="0"/>
        <pt x="196" y="135" on="0"/>
        <pt x="205" y="116" on="0"/>
        <pt x="222" y="104" on="0"/>
        <pt x="237" y="104" on="1"/>
        <pt x="255" y="104" on="0"/>
        <pt x="269" y="116" on="1"/>
        <pt x="272" y="108" on="0"/>
        <pt x="275" y="95" on="0"/>
        <pt x="275" y="87" on="1"/>
        <pt x="275" y="71" on="0"/>
        <pt x="264" y="40" on="0"/>
        <pt x="240" y="16" on="0"/>
        <pt x="203" y="1" on="0"/>
        <pt x="176" y="1" on="1"/>
        <pt x="116" y="1" on="0"/>
        <pt x="50" y="73" on="0"/>
        <pt x="50" y="136" on="1"/>
        <pt x="50" y="728" on="1"/>
        <pt x="77" y="728" on="0"/>
        <pt x="128" y="720" on="0"/>
        <pt x="169" y="695" on="0"/>
        <pt x="193" y="645" on="0"/>
        <pt x="193" y="603" on="1"/>
      </contour>
      <contour>
        <pt x="435" y="0" on="1"/>
        <pt x="425" y="0" on="1"/>
        <pt x="399" y="0" on="0"/>
        <pt x="351" y="10" on="0"/>
        <pt x="314" y="36" on="0"/>
        <pt x="291" y="82" on="0"/>
        <pt x="291" y="119" on="1"/>
        <pt x="291" y="726" on="1"/>
        <pt x="307" y="726" on="1"/>
        <pt x="331" y="726" on="0"/>
        <pt x="377" y="715" on="0"/>
        <pt x="413" y="688" on="0"/>
        <pt x="435" y="642" on="0"/>
        <pt x="435" y="606" on="1"/>
      </contour>
    </TTGlyph>
    <TTGlyph name="Uacute" xMin="50" yMin="0" xMax="435" yMax="912">
      <contour>
        <pt x="193" y="169" on="1"/>
        <pt x="193" y="158" on="0"/>
        <pt x="196" y="135" on="0"/>
        <pt x="205" y="116" on="0"/>
        <pt x="222" y="104" on="0"/>
        <pt x="237" y="104" on="1"/>
        <pt x="255" y="104" on="0"/>
        <pt x="269" y="116" on="1"/>
        <pt x="272" y="108" on="0"/>
        <pt x="275" y="95" on="0"/>
        <pt x="275" y="87" on="1"/>
        <pt x="275" y="71" on="0"/>
        <pt x="264" y="40" on="0"/>
        <pt x="240" y="16" on="0"/>
        <pt x="203" y="1" on="0"/>
        <pt x="176" y="1" on="1"/>
        <pt x="116" y="1" on="0"/>
        <pt x="50" y="73" on="0"/>
        <pt x="50" y="136" on="1"/>
        <pt x="50" y="728" on="1"/>
        <pt x="77" y="728" on="0"/>
        <pt x="128" y="720" on="0"/>
        <pt x="169" y="695" on="0"/>
        <pt x="193" y="645" on="0"/>
        <pt x="193" y="603" on="1"/>
      </contour>
      <contour>
        <pt x="435" y="0" on="1"/>
        <pt x="425" y="0" on="1"/>
        <pt x="399" y="0" on="0"/>
        <pt x="351" y="10" on="0"/>
        <pt x="314" y="36" on="0"/>
        <pt x="291" y="82" on="0"/>
        <pt x="291" y="119" on="1"/>
        <pt x="291" y="726" on="1"/>
        <pt x="307" y="726" on="1"/>
        <pt x="331" y="726" on="0"/>
        <pt x="377" y="715" on="0"/>
        <pt x="413" y="688" on="0"/>
        <pt x="435" y="642" on="0"/>
        <pt x="435" y="606" on="1"/>
      </contour>
      <contour>
        <pt x="153" y="770" on="1"/>
        <pt x="153" y="792" on="0"/>
        <pt x="158" y="842" on="0"/>
        <pt x="179" y="884" on="0"/>
        <pt x="220" y="912" on="0"/>
        <pt x="256" y="912" on="1"/>
        <pt x="332" y="912" on="1"/>
        <pt x="332" y="889" on="0"/>
        <pt x="327" y="839" on="0"/>
        <pt x="307" y="797" on="0"/>
        <pt x="265" y="770" on="0"/>
        <pt x="229" y="770" on="1"/>
      </contour>
    </TTGlyph>
    <TTGlyph name="Ucircumflex" xMin="50" yMin="0" xMax="435" yMax="905">
      <contour>
        <pt x="324" y="852" on="1"/>
        <pt x="338" y="844" on="0"/>
        <pt x="350" y="820" on="0"/>
        <pt x="350" y="805" on="1"/>
        <pt x="350" y="785" on="0"/>
        <pt x="325" y="748" on="0"/>
        <pt x="302" y="743" on="1"/>
        <pt x="226" y="785" on="1"/>
        <pt x="152" y="743" on="1"/>
        <pt x="126" y="750" on="0"/>
        <pt x="102" y="784" on="0"/>
        <pt x="102" y="802" on="1"/>
        <pt x="102" y="817" on="0"/>
        <pt x="116" y="844" on="0"/>
        <pt x="129" y="851" on="1"/>
        <pt x="226" y="905" on="1"/>
      </contour>
      <contour>
        <pt x="193" y="169" on="1"/>
        <pt x="193" y="158" on="0"/>
        <pt x="196" y="135" on="0"/>
        <pt x="205" y="116" on="0"/>
        <pt x="222" y="104" on="0"/>
        <pt x="237" y="104" on="1"/>
        <pt x="255" y="104" on="0"/>
        <pt x="269" y="116" on="1"/>
        <pt x="272" y="108" on="0"/>
        <pt x="275" y="95" on="0"/>
        <pt x="275" y="87" on="1"/>
        <pt x="275" y="71" on="0"/>
        <pt x="264" y="40" on="0"/>
        <pt x="240" y="16" on="0"/>
        <pt x="203" y="1" on="0"/>
        <pt x="176" y="1" on="1"/>
        <pt x="116" y="1" on="0"/>
        <pt x="50" y="73" on="0"/>
        <pt x="50" y="136" on="1"/>
        <pt x="50" y="728" on="1"/>
        <pt x="77" y="728" on="0"/>
        <pt x="128" y="720" on="0"/>
        <pt x="169" y="695" on="0"/>
        <pt x="193" y="645" on="0"/>
        <pt x="193" y="603" on="1"/>
      </contour>
      <contour>
        <pt x="435" y="0" on="1"/>
        <pt x="425" y="0" on="1"/>
        <pt x="399" y="0" on="0"/>
        <pt x="351" y="10" on="0"/>
        <pt x="314" y="36" on="0"/>
        <pt x="291" y="82" on="0"/>
        <pt x="291" y="119" on="1"/>
        <pt x="291" y="726" on="1"/>
        <pt x="307" y="726" on="1"/>
        <pt x="331" y="726" on="0"/>
        <pt x="377" y="715" on="0"/>
        <pt x="413" y="688" on="0"/>
        <pt x="435" y="642" on="0"/>
        <pt x="435" y="606" on="1"/>
      </contour>
    </TTGlyph>
    <TTGlyph name="Udieresis" xMin="50" yMin="0" xMax="435" yMax="909">
      <contour>
        <pt x="193" y="169" on="1"/>
        <pt x="193" y="158" on="0"/>
        <pt x="196" y="135" on="0"/>
        <pt x="205" y="116" on="0"/>
        <pt x="222" y="104" on="0"/>
        <pt x="237" y="104" on="1"/>
        <pt x="255" y="104" on="0"/>
        <pt x="269" y="116" on="1"/>
        <pt x="272" y="108" on="0"/>
        <pt x="275" y="95" on="0"/>
        <pt x="275" y="87" on="1"/>
        <pt x="275" y="71" on="0"/>
        <pt x="264" y="40" on="0"/>
        <pt x="240" y="16" on="0"/>
        <pt x="203" y="1" on="0"/>
        <pt x="176" y="1" on="1"/>
        <pt x="116" y="1" on="0"/>
        <pt x="50" y="73" on="0"/>
        <pt x="50" y="136" on="1"/>
        <pt x="50" y="728" on="1"/>
        <pt x="77" y="728" on="0"/>
        <pt x="128" y="720" on="0"/>
        <pt x="169" y="695" on="0"/>
        <pt x="193" y="645" on="0"/>
        <pt x="193" y="603" on="1"/>
      </contour>
      <contour>
        <pt x="435" y="0" on="1"/>
        <pt x="425" y="0" on="1"/>
        <pt x="399" y="0" on="0"/>
        <pt x="351" y="10" on="0"/>
        <pt x="314" y="36" on="0"/>
        <pt x="291" y="82" on="0"/>
        <pt x="291" y="119" on="1"/>
        <pt x="291" y="726" on="1"/>
        <pt x="307" y="726" on="1"/>
        <pt x="331" y="726" on="0"/>
        <pt x="377" y="715" on="0"/>
        <pt x="413" y="688" on="0"/>
        <pt x="435" y="642" on="0"/>
        <pt x="435" y="606" on="1"/>
      </contour>
      <contour>
        <pt x="94" y="839" on="1"/>
        <pt x="94" y="868" on="0"/>
        <pt x="135" y="909" on="0"/>
        <pt x="164" y="909" on="1"/>
        <pt x="193" y="909" on="0"/>
        <pt x="234" y="868" on="0"/>
        <pt x="234" y="839" on="1"/>
        <pt x="234" y="810" on="0"/>
        <pt x="193" y="770" on="0"/>
        <pt x="164" y="770" on="1"/>
        <pt x="135" y="770" on="0"/>
        <pt x="94" y="810" on="0"/>
      </contour>
      <contour>
        <pt x="250" y="839" on="1"/>
        <pt x="250" y="868" on="0"/>
        <pt x="292" y="909" on="0"/>
        <pt x="321" y="909" on="1"/>
        <pt x="350" y="909" on="0"/>
        <pt x="390" y="868" on="0"/>
        <pt x="390" y="839" on="1"/>
        <pt x="390" y="810" on="0"/>
        <pt x="350" y="770" on="0"/>
        <pt x="321" y="770" on="1"/>
        <pt x="292" y="770" on="0"/>
        <pt x="250" y="810" on="0"/>
      </contour>
    </TTGlyph>
    <TTGlyph name="Ugrave" xMin="50" yMin="0" xMax="435" yMax="912">
      <contour>
        <pt x="193" y="169" on="1"/>
        <pt x="193" y="158" on="0"/>
        <pt x="196" y="135" on="0"/>
        <pt x="205" y="116" on="0"/>
        <pt x="222" y="104" on="0"/>
        <pt x="237" y="104" on="1"/>
        <pt x="255" y="104" on="0"/>
        <pt x="269" y="116" on="1"/>
        <pt x="272" y="108" on="0"/>
        <pt x="275" y="95" on="0"/>
        <pt x="275" y="87" on="1"/>
        <pt x="275" y="71" on="0"/>
        <pt x="264" y="40" on="0"/>
        <pt x="240" y="16" on="0"/>
        <pt x="203" y="1" on="0"/>
        <pt x="176" y="1" on="1"/>
        <pt x="116" y="1" on="0"/>
        <pt x="50" y="73" on="0"/>
        <pt x="50" y="136" on="1"/>
        <pt x="50" y="728" on="1"/>
        <pt x="77" y="728" on="0"/>
        <pt x="128" y="720" on="0"/>
        <pt x="169" y="695" on="0"/>
        <pt x="193" y="645" on="0"/>
        <pt x="193" y="603" on="1"/>
      </contour>
      <contour>
        <pt x="435" y="0" on="1"/>
        <pt x="425" y="0" on="1"/>
        <pt x="399" y="0" on="0"/>
        <pt x="351" y="10" on="0"/>
        <pt x="314" y="36" on="0"/>
        <pt x="291" y="82" on="0"/>
        <pt x="291" y="119" on="1"/>
        <pt x="291" y="726" on="1"/>
        <pt x="307" y="726" on="1"/>
        <pt x="331" y="726" on="0"/>
        <pt x="377" y="715" on="0"/>
        <pt x="413" y="688" on="0"/>
        <pt x="435" y="642" on="0"/>
        <pt x="435" y="606" on="1"/>
      </contour>
      <contour>
        <pt x="236" y="770" on="1"/>
        <pt x="200" y="770" on="0"/>
        <pt x="158" y="797" on="0"/>
        <pt x="138" y="839" on="0"/>
        <pt x="133" y="889" on="0"/>
        <pt x="133" y="912" on="1"/>
        <pt x="209" y="912" on="1"/>
        <pt x="245" y="912" on="0"/>
        <pt x="286" y="884" on="0"/>
        <pt x="307" y="842" on="0"/>
        <pt x="312" y="792" on="0"/>
        <pt x="312" y="770" on="1"/>
      </contour>
    </TTGlyph>
    <TTGlyph name="V" xMin="50" yMin="1" xMax="435" yMax="728">
      <contour>
        <pt x="193" y="169" on="1"/>
        <pt x="193" y="158" on="0"/>
        <pt x="196" y="135" on="0"/>
        <pt x="205" y="116" on="0"/>
        <pt x="222" y="104" on="0"/>
        <pt x="237" y="104" on="1"/>
        <pt x="255" y="104" on="0"/>
        <pt x="269" y="116" on="1"/>
        <pt x="272" y="108" on="0"/>
        <pt x="275" y="95" on="0"/>
        <pt x="275" y="87" on="1"/>
        <pt x="275" y="71" on="0"/>
        <pt x="264" y="40" on="0"/>
        <pt x="240" y="16" on="0"/>
        <pt x="203" y="1" on="0"/>
        <pt x="176" y="1" on="1"/>
        <pt x="116" y="1" on="0"/>
        <pt x="50" y="73" on="0"/>
        <pt x="50" y="136" on="1"/>
        <pt x="50" y="728" on="1"/>
        <pt x="77" y="728" on="0"/>
        <pt x="128" y="720" on="0"/>
        <pt x="169" y="695" on="0"/>
        <pt x="193" y="645" on="0"/>
        <pt x="193" y="603" on="1"/>
      </contour>
      <contour>
        <pt x="291" y="726" on="1"/>
        <pt x="307" y="726" on="1"/>
        <pt x="331" y="726" on="0"/>
        <pt x="377" y="715" on="0"/>
        <pt x="413" y="688" on="0"/>
        <pt x="435" y="642" on="0"/>
        <pt x="435" y="606" on="1"/>
        <pt x="435" y="273" on="1"/>
        <pt x="435" y="225" on="0"/>
        <pt x="413" y="161" on="0"/>
        <pt x="375" y="124" on="0"/>
        <pt x="325" y="108" on="0"/>
        <pt x="297" y="108" on="1"/>
        <pt x="291" y="108" on="1"/>
      </contour>
    </TTGlyph>
    <TTGlyph name="W" xMin="50" yMin="1" xMax="677" yMax="726">
      <contour>
        <pt x="436" y="169" on="1"/>
        <pt x="436" y="158" on="0"/>
        <pt x="438" y="135" on="0"/>
        <pt x="447" y="116" on="0"/>
        <pt x="464" y="104" on="0"/>
        <pt x="479" y="104" on="1"/>
        <pt x="497" y="104" on="0"/>
        <pt x="511" y="116" on="1"/>
        <pt x="514" y="108" on="0"/>
        <pt x="517" y="95" on="0"/>
        <pt x="517" y="87" on="1"/>
        <pt x="517" y="71" on="0"/>
        <pt x="506" y="40" on="0"/>
        <pt x="482" y="16" on="0"/>
        <pt x="445" y="1" on="0"/>
        <pt x="418" y="1" on="1"/>
        <pt x="358" y="1" on="0"/>
        <pt x="292" y="73" on="0"/>
        <pt x="292" y="136" on="1"/>
        <pt x="292" y="606" on="1"/>
        <pt x="292" y="642" on="0"/>
        <pt x="314" y="688" on="0"/>
        <pt x="350" y="715" on="0"/>
        <pt x="397" y="726" on="0"/>
        <pt x="421" y="726" on="1"/>
        <pt x="437" y="726" on="1"/>
      </contour>
      <contour>
        <pt x="175" y="1" on="1"/>
        <pt x="115" y="1" on="0"/>
        <pt x="50" y="73" on="0"/>
        <pt x="50" y="136" on="1"/>
        <pt x="50" y="606" on="1"/>
        <pt x="50" y="642" on="0"/>
        <pt x="72" y="688" on="0"/>
        <pt x="108" y="715" on="0"/>
        <pt x="154" y="726" on="0"/>
        <pt x="178" y="726" on="1"/>
        <pt x="194" y="726" on="1"/>
        <pt x="194" y="169" on="1"/>
        <pt x="194" y="158" on="0"/>
        <pt x="197" y="135" on="0"/>
        <pt x="206" y="116" on="0"/>
        <pt x="223" y="104" on="0"/>
        <pt x="238" y="104" on="1"/>
        <pt x="256" y="104" on="0"/>
        <pt x="270" y="116" on="1"/>
        <pt x="273" y="108" on="0"/>
        <pt x="276" y="95" on="0"/>
        <pt x="276" y="87" on="1"/>
        <pt x="276" y="72" on="0"/>
        <pt x="265" y="41" on="0"/>
        <pt x="241" y="16" on="0"/>
        <pt x="202" y="1" on="0"/>
      </contour>
      <contour>
        <pt x="677" y="273" on="1"/>
        <pt x="677" y="225" on="0"/>
        <pt x="655" y="161" on="0"/>
        <pt x="617" y="124" on="0"/>
        <pt x="567" y="108" on="0"/>
        <pt x="539" y="108" on="1"/>
        <pt x="533" y="108" on="1"/>
        <pt x="533" y="606" on="1"/>
        <pt x="533" y="642" on="0"/>
        <pt x="555" y="688" on="0"/>
        <pt x="591" y="715" on="0"/>
        <pt x="637" y="726" on="0"/>
        <pt x="661" y="726" on="1"/>
        <pt x="677" y="726" on="1"/>
      </contour>
    </TTGlyph>
    <TTGlyph name="X" xMin="40" yMin="0" xMax="426" yMax="726">
      <contour>
        <pt x="40" y="231" on="1"/>
        <pt x="40" y="265" on="0"/>
        <pt x="58" y="317" on="0"/>
        <pt x="90" y="352" on="0"/>
        <pt x="130" y="370" on="0"/>
        <pt x="153" y="370" on="1"/>
        <pt x="178" y="370" on="0"/>
        <pt x="214" y="355" on="0"/>
        <pt x="235" y="331" on="0"/>
        <pt x="245" y="303" on="0"/>
        <pt x="245" y="291" on="1"/>
        <pt x="245" y="285" on="0"/>
        <pt x="242" y="267" on="0"/>
        <pt x="239" y="259" on="1"/>
        <pt x="230" y="270" on="0"/>
        <pt x="216" y="270" on="1"/>
        <pt x="197" y="270" on="0"/>
        <pt x="184" y="241" on="0"/>
        <pt x="184" y="219" on="1"/>
        <pt x="184" y="0" on="1"/>
        <pt x="180" y="0" on="1"/>
        <pt x="158" y="0" on="0"/>
        <pt x="109" y="10" on="0"/>
        <pt x="67" y="36" on="0"/>
        <pt x="40" y="83" on="0"/>
        <pt x="40" y="119" on="1"/>
      </contour>
      <contour>
        <pt x="426" y="500" on="1"/>
        <pt x="426" y="466" on="0"/>
        <pt x="407" y="415" on="0"/>
        <pt x="374" y="380" on="0"/>
        <pt x="332" y="363" on="0"/>
        <pt x="309" y="363" on="1"/>
        <pt x="284" y="363" on="0"/>
        <pt x="250" y="378" on="0"/>
        <pt x="230" y="401" on="0"/>
        <pt x="221" y="428" on="0"/>
        <pt x="221" y="440" on="1"/>
        <pt x="221" y="446" on="0"/>
        <pt x="224" y="464" on="0"/>
        <pt x="227" y="472" on="1"/>
        <pt x="234" y="466" on="0"/>
        <pt x="245" y="462" on="0"/>
        <pt x="254" y="461" on="1"/>
        <pt x="264" y="461" on="0"/>
        <pt x="275" y="472" on="0"/>
        <pt x="281" y="487" on="0"/>
        <pt x="282" y="505" on="0"/>
        <pt x="282" y="512" on="1"/>
        <pt x="282" y="726" on="1"/>
        <pt x="286" y="726" on="1"/>
        <pt x="308" y="726" on="0"/>
        <pt x="357" y="716" on="0"/>
        <pt x="399" y="690" on="0"/>
        <pt x="426" y="643" on="0"/>
        <pt x="426" y="607" on="1"/>
      </contour>
      <contour>
        <pt x="204" y="379" on="1"/>
        <pt x="194" y="379" on="1"/>
        <pt x="168" y="379" on="0"/>
        <pt x="120" y="389" on="0"/>
        <pt x="83" y="415" on="0"/>
        <pt x="60" y="461" on="0"/>
        <pt x="60" y="498" on="1"/>
        <pt x="60" y="726" on="1"/>
        <pt x="76" y="726" on="1"/>
        <pt x="100" y="726" on="0"/>
        <pt x="146" y="715" on="0"/>
        <pt x="182" y="688" on="0"/>
        <pt x="204" y="642" on="0"/>
        <pt x="204" y="606" on="1"/>
      </contour>
      <contour>
        <pt x="410" y="0" on="1"/>
        <pt x="400" y="0" on="1"/>
        <pt x="374" y="0" on="0"/>
        <pt x="326" y="10" on="0"/>
        <pt x="289" y="36" on="0"/>
        <pt x="266" y="82" on="0"/>
        <pt x="266" y="119" on="1"/>
        <pt x="266" y="347" on="1"/>
        <pt x="282" y="347" on="1"/>
        <pt x="306" y="347" on="0"/>
        <pt x="352" y="336" on="0"/>
        <pt x="388" y="309" on="0"/>
        <pt x="410" y="263" on="0"/>
        <pt x="410" y="227" on="1"/>
      </contour>
    </TTGlyph>
    <TTGlyph name="Y" xMin="45" yMin="-1" xMax="431" yMax="726">
      <contour>
        <pt x="287" y="726" on="1"/>
        <pt x="303" y="726" on="1"/>
        <pt x="327" y="726" on="0"/>
        <pt x="373" y="715" on="0"/>
        <pt x="409" y="688" on="0"/>
        <pt x="431" y="642" on="0"/>
        <pt x="431" y="606" on="1"/>
        <pt x="431" y="270" on="1"/>
        <pt x="431" y="235" on="0"/>
        <pt x="411" y="186" on="0"/>
        <pt x="378" y="154" on="0"/>
        <pt x="335" y="139" on="0"/>
        <pt x="311" y="139" on="1"/>
        <pt x="305" y="139" on="0"/>
        <pt x="293" y="140" on="0"/>
        <pt x="287" y="141" on="1"/>
      </contour>
      <contour>
        <pt x="160" y="280" on="1"/>
        <pt x="137" y="280" on="0"/>
        <pt x="96" y="297" on="0"/>
        <pt x="64" y="330" on="0"/>
        <pt x="45" y="379" on="0"/>
        <pt x="45" y="412" on="1"/>
        <pt x="45" y="726" on="1"/>
        <pt x="66" y="726" on="1"/>
        <pt x="127" y="726" on="0"/>
        <pt x="189" y="661" on="0"/>
        <pt x="189" y="588" on="1"/>
        <pt x="189" y="446" on="1"/>
        <pt x="189" y="434" on="0"/>
        <pt x="192" y="412" on="0"/>
        <pt x="201" y="395" on="0"/>
        <pt x="218" y="384" on="0"/>
        <pt x="233" y="384" on="1"/>
        <pt x="241" y="384" on="0"/>
        <pt x="258" y="389" on="0"/>
        <pt x="265" y="395" on="1"/>
        <pt x="265" y="372" on="0"/>
        <pt x="253" y="331" on="0"/>
        <pt x="227" y="299" on="0"/>
        <pt x="187" y="280" on="0"/>
      </contour>
      <contour>
        <pt x="120" y="95" on="1"/>
        <pt x="120" y="126" on="0"/>
        <pt x="142" y="165" on="0"/>
        <pt x="175" y="187" on="0"/>
        <pt x="212" y="194" on="0"/>
        <pt x="226" y="194" on="1"/>
        <pt x="233" y="194" on="0"/>
        <pt x="248" y="193" on="0"/>
        <pt x="250" y="192" on="1"/>
        <pt x="250" y="146" on="1"/>
        <pt x="250" y="125" on="0"/>
        <pt x="270" y="105" on="0"/>
        <pt x="285" y="105" on="1"/>
        <pt x="303" y="105" on="0"/>
        <pt x="317" y="117" on="1"/>
        <pt x="320" y="109" on="0"/>
        <pt x="321" y="96" on="0"/>
        <pt x="321" y="88" on="1"/>
        <pt x="321" y="76" on="0"/>
        <pt x="310" y="45" on="0"/>
        <pt x="287" y="18" on="0"/>
        <pt x="250" y="-1" on="0"/>
        <pt x="224" y="-1" on="1"/>
        <pt x="197" y="-1" on="0"/>
        <pt x="158" y="17" on="0"/>
        <pt x="133" y="44" on="0"/>
        <pt x="120" y="78" on="0"/>
      </contour>
    </TTGlyph>
    <TTGlyph name="Yacute" xMin="35" yMin="-1" xMax="421" yMax="911">
      <contour>
        <pt x="277" y="726" on="1"/>
        <pt x="293" y="726" on="1"/>
        <pt x="317" y="726" on="0"/>
        <pt x="363" y="715" on="0"/>
        <pt x="399" y="688" on="0"/>
        <pt x="421" y="642" on="0"/>
        <pt x="421" y="606" on="1"/>
        <pt x="421" y="270" on="1"/>
        <pt x="421" y="235" on="0"/>
        <pt x="401" y="186" on="0"/>
        <pt x="368" y="154" on="0"/>
        <pt x="325" y="139" on="0"/>
        <pt x="301" y="139" on="1"/>
        <pt x="295" y="139" on="0"/>
        <pt x="283" y="140" on="0"/>
        <pt x="277" y="141" on="1"/>
      </contour>
      <contour>
        <pt x="150" y="280" on="1"/>
        <pt x="127" y="280" on="0"/>
        <pt x="86" y="297" on="0"/>
        <pt x="54" y="330" on="0"/>
        <pt x="35" y="379" on="0"/>
        <pt x="35" y="412" on="1"/>
        <pt x="35" y="726" on="1"/>
        <pt x="56" y="726" on="1"/>
        <pt x="117" y="726" on="0"/>
        <pt x="179" y="661" on="0"/>
        <pt x="179" y="588" on="1"/>
        <pt x="179" y="446" on="1"/>
        <pt x="179" y="434" on="0"/>
        <pt x="182" y="412" on="0"/>
        <pt x="191" y="395" on="0"/>
        <pt x="208" y="384" on="0"/>
        <pt x="223" y="384" on="1"/>
        <pt x="231" y="384" on="0"/>
        <pt x="248" y="389" on="0"/>
        <pt x="255" y="395" on="1"/>
        <pt x="255" y="372" on="0"/>
        <pt x="243" y="331" on="0"/>
        <pt x="217" y="299" on="0"/>
        <pt x="177" y="280" on="0"/>
      </contour>
      <contour>
        <pt x="110" y="95" on="1"/>
        <pt x="110" y="126" on="0"/>
        <pt x="132" y="165" on="0"/>
        <pt x="165" y="187" on="0"/>
        <pt x="202" y="194" on="0"/>
        <pt x="216" y="194" on="1"/>
        <pt x="223" y="194" on="0"/>
        <pt x="238" y="193" on="0"/>
        <pt x="240" y="192" on="1"/>
        <pt x="240" y="146" on="1"/>
        <pt x="240" y="125" on="0"/>
        <pt x="260" y="105" on="0"/>
        <pt x="275" y="105" on="1"/>
        <pt x="293" y="105" on="0"/>
        <pt x="307" y="117" on="1"/>
        <pt x="310" y="109" on="0"/>
        <pt x="311" y="96" on="0"/>
        <pt x="311" y="88" on="1"/>
        <pt x="311" y="76" on="0"/>
        <pt x="300" y="45" on="0"/>
        <pt x="277" y="18" on="0"/>
        <pt x="240" y="-1" on="0"/>
        <pt x="214" y="-1" on="1"/>
        <pt x="187" y="-1" on="0"/>
        <pt x="148" y="17" on="0"/>
        <pt x="123" y="44" on="0"/>
        <pt x="110" y="78" on="0"/>
      </contour>
      <contour>
        <pt x="144" y="769" on="1"/>
        <pt x="144" y="791" on="0"/>
        <pt x="149" y="841" on="0"/>
        <pt x="170" y="883" on="0"/>
        <pt x="211" y="911" on="0"/>
        <pt x="247" y="911" on="1"/>
        <pt x="323" y="911" on="1"/>
        <pt x="323" y="888" on="0"/>
        <pt x="318" y="838" on="0"/>
        <pt x="298" y="796" on="0"/>
        <pt x="256" y="769" on="0"/>
        <pt x="220" y="769" on="1"/>
      </contour>
    </TTGlyph>
    <TTGlyph name="Z" xMin="45" yMin="0" xMax="405" yMax="726">
      <contour>
        <pt x="250" y="726" on="1"/>
        <pt x="262" y="726" on="1"/>
        <pt x="284" y="726" on="0"/>
        <pt x="331" y="716" on="0"/>
        <pt x="370" y="689" on="0"/>
        <pt x="394" y="642" on="0"/>
        <pt x="394" y="606" on="1"/>
        <pt x="394" y="440" on="1"/>
        <pt x="394" y="404" on="0"/>
        <pt x="370" y="357" on="0"/>
        <pt x="331" y="330" on="0"/>
        <pt x="284" y="320" on="0"/>
        <pt x="262" y="320" on="1"/>
        <pt x="250" y="320" on="1"/>
      </contour>
      <contour>
        <pt x="405" y="96" on="1"/>
        <pt x="405" y="79" on="0"/>
        <pt x="393" y="45" on="0"/>
        <pt x="368" y="17" on="0"/>
        <pt x="331" y="0" on="0"/>
        <pt x="307" y="0" on="1"/>
        <pt x="280" y="0" on="0"/>
        <pt x="245" y="16" on="0"/>
        <pt x="223" y="39" on="0"/>
        <pt x="214" y="67" on="0"/>
        <pt x="214" y="79" on="1"/>
        <pt x="214" y="86" on="0"/>
        <pt x="215" y="110" on="0"/>
        <pt x="218" y="118" on="1"/>
        <pt x="225" y="112" on="0"/>
        <pt x="237" y="106" on="0"/>
        <pt x="246" y="106" on="1"/>
        <pt x="275" y="106" on="0"/>
        <pt x="275" y="143" on="1"/>
        <pt x="275" y="193" on="1"/>
        <pt x="283" y="195" on="0"/>
        <pt x="295" y="195" on="1"/>
        <pt x="309" y="195" on="0"/>
        <pt x="347" y="188" on="0"/>
        <pt x="381" y="166" on="0"/>
        <pt x="405" y="127" on="0"/>
      </contour>
      <contour>
        <pt x="198" y="0" on="1"/>
        <pt x="186" y="0" on="1"/>
        <pt x="163" y="0" on="0"/>
        <pt x="117" y="10" on="0"/>
        <pt x="78" y="36" on="0"/>
        <pt x="54" y="83" on="0"/>
        <pt x="54" y="119" on="1"/>
        <pt x="54" y="285" on="1"/>
        <pt x="54" y="321" on="0"/>
        <pt x="78" y="368" on="0"/>
        <pt x="117" y="395" on="0"/>
        <pt x="163" y="405" on="0"/>
        <pt x="186" y="405" on="1"/>
        <pt x="198" y="405" on="1"/>
      </contour>
      <contour>
        <pt x="45" y="630" on="1"/>
        <pt x="45" y="647" on="0"/>
        <pt x="57" y="681" on="0"/>
        <pt x="81" y="709" on="0"/>
        <pt x="118" y="726" on="0"/>
        <pt x="144" y="726" on="1"/>
        <pt x="170" y="726" on="0"/>
        <pt x="205" y="710" on="0"/>
        <pt x="227" y="687" on="0"/>
        <pt x="236" y="659" on="0"/>
        <pt x="236" y="647" on="1"/>
        <pt x="236" y="640" on="0"/>
        <pt x="235" y="616" on="0"/>
        <pt x="232" y="608" on="1"/>
        <pt x="225" y="614" on="0"/>
        <pt x="213" y="620" on="0"/>
        <pt x="204" y="620" on="1"/>
        <pt x="175" y="620" on="0"/>
        <pt x="175" y="583" on="1"/>
        <pt x="175" y="533" on="1"/>
        <pt x="167" y="531" on="0"/>
        <pt x="155" y="531" on="1"/>
        <pt x="141" y="531" on="0"/>
        <pt x="103" y="538" on="0"/>
        <pt x="69" y="560" on="0"/>
        <pt x="45" y="598" on="0"/>
      </contour>
    </TTGlyph>
    <TTGlyph name="a" xMin="45" yMin="0" xMax="407" yMax="508">
      <contour>
        <pt x="273" y="352" on="1"/>
        <pt x="273" y="364" on="0"/>
        <pt x="270" y="386" on="0"/>
        <pt x="261" y="403" on="0"/>
        <pt x="244" y="414" on="0"/>
        <pt x="229" y="414" on="1"/>
        <pt x="221" y="414" on="0"/>
        <pt x="204" y="409" on="0"/>
        <pt x="197" y="403" on="1"/>
        <pt x="193" y="411" on="0"/>
        <pt x="191" y="426" on="0"/>
        <pt x="191" y="434" on="1"/>
        <pt x="191" y="466" on="0"/>
        <pt x="245" y="508" on="0"/>
        <pt x="283" y="508" on="1"/>
        <pt x="343" y="508" on="0"/>
        <pt x="407" y="447" on="0"/>
        <pt x="407" y="390" on="1"/>
        <pt x="407" y="0" on="1"/>
        <pt x="384" y="0" on="0"/>
        <pt x="337" y="11" on="0"/>
        <pt x="298" y="38" on="0"/>
        <pt x="273" y="83" on="0"/>
        <pt x="273" y="118" on="1"/>
      </contour>
      <contour>
        <pt x="179" y="156" on="1"/>
        <pt x="179" y="144" on="0"/>
        <pt x="182" y="122" on="0"/>
        <pt x="191" y="105" on="0"/>
        <pt x="208" y="94" on="0"/>
        <pt x="223" y="94" on="1"/>
        <pt x="231" y="94" on="0"/>
        <pt x="248" y="99" on="0"/>
        <pt x="255" y="105" on="1"/>
        <pt x="259" y="97" on="0"/>
        <pt x="261" y="82" on="0"/>
        <pt x="261" y="74" on="1"/>
        <pt x="261" y="42" on="0"/>
        <pt x="207" y="0" on="0"/>
        <pt x="169" y="0" on="1"/>
        <pt x="109" y="0" on="0"/>
        <pt x="45" y="64" on="0"/>
        <pt x="45" y="112" on="1"/>
        <pt x="45" y="390" on="1"/>
        <pt x="45" y="423" on="0"/>
        <pt x="70" y="468" on="0"/>
        <pt x="109" y="496" on="0"/>
        <pt x="156" y="508" on="0"/>
        <pt x="179" y="508" on="1"/>
      </contour>
    </TTGlyph>
    <TTGlyph name="aacute" xMin="45" yMin="0" xMax="407" yMax="708">
      <contour>
        <pt x="273" y="352" on="1"/>
        <pt x="273" y="364" on="0"/>
        <pt x="270" y="386" on="0"/>
        <pt x="261" y="403" on="0"/>
        <pt x="244" y="414" on="0"/>
        <pt x="229" y="414" on="1"/>
        <pt x="221" y="414" on="0"/>
        <pt x="204" y="409" on="0"/>
        <pt x="197" y="403" on="1"/>
        <pt x="193" y="411" on="0"/>
        <pt x="191" y="426" on="0"/>
        <pt x="191" y="434" on="1"/>
        <pt x="191" y="466" on="0"/>
        <pt x="245" y="508" on="0"/>
        <pt x="283" y="508" on="1"/>
        <pt x="343" y="508" on="0"/>
        <pt x="407" y="447" on="0"/>
        <pt x="407" y="390" on="1"/>
        <pt x="407" y="0" on="1"/>
        <pt x="384" y="0" on="0"/>
        <pt x="337" y="11" on="0"/>
        <pt x="298" y="38" on="0"/>
        <pt x="273" y="83" on="0"/>
        <pt x="273" y="118" on="1"/>
      </contour>
      <contour>
        <pt x="179" y="156" on="1"/>
        <pt x="179" y="144" on="0"/>
        <pt x="182" y="122" on="0"/>
        <pt x="191" y="105" on="0"/>
        <pt x="208" y="94" on="0"/>
        <pt x="223" y="94" on="1"/>
        <pt x="231" y="94" on="0"/>
        <pt x="248" y="99" on="0"/>
        <pt x="255" y="105" on="1"/>
        <pt x="259" y="97" on="0"/>
        <pt x="261" y="82" on="0"/>
        <pt x="261" y="74" on="1"/>
        <pt x="261" y="42" on="0"/>
        <pt x="207" y="0" on="0"/>
        <pt x="169" y="0" on="1"/>
        <pt x="109" y="0" on="0"/>
        <pt x="45" y="64" on="0"/>
        <pt x="45" y="112" on="1"/>
        <pt x="45" y="390" on="1"/>
        <pt x="45" y="423" on="0"/>
        <pt x="70" y="468" on="0"/>
        <pt x="109" y="496" on="0"/>
        <pt x="156" y="508" on="0"/>
        <pt x="179" y="508" on="1"/>
      </contour>
      <contour>
        <pt x="136" y="566" on="1"/>
        <pt x="136" y="588" on="0"/>
        <pt x="141" y="638" on="0"/>
        <pt x="162" y="680" on="0"/>
        <pt x="203" y="708" on="0"/>
        <pt x="239" y="708" on="1"/>
        <pt x="315" y="708" on="1"/>
        <pt x="315" y="685" on="0"/>
        <pt x="310" y="635" on="0"/>
        <pt x="290" y="593" on="0"/>
        <pt x="248" y="566" on="0"/>
        <pt x="212" y="566" on="1"/>
      </contour>
    </TTGlyph>
    <TTGlyph name="acircumflex" xMin="45" yMin="0" xMax="407" yMax="754">
      <contour>
        <pt x="338" y="663" on="1"/>
        <pt x="350" y="652" on="0"/>
        <pt x="362" y="622" on="0"/>
        <pt x="362" y="607" on="1"/>
        <pt x="362" y="589" on="0"/>
        <pt x="346" y="554" on="0"/>
        <pt x="329" y="542" on="1"/>
        <pt x="232" y="633" on="1"/>
        <pt x="136" y="541" on="1"/>
        <pt x="119" y="553" on="0"/>
        <pt x="101" y="589" on="0"/>
        <pt x="101" y="608" on="1"/>
        <pt x="101" y="624" on="0"/>
        <pt x="113" y="653" on="0"/>
        <pt x="125" y="663" on="1"/>
        <pt x="232" y="754" on="1"/>
      </contour>
      <contour>
        <pt x="273" y="352" on="1"/>
        <pt x="273" y="364" on="0"/>
        <pt x="270" y="386" on="0"/>
        <pt x="261" y="403" on="0"/>
        <pt x="244" y="414" on="0"/>
        <pt x="229" y="414" on="1"/>
        <pt x="221" y="414" on="0"/>
        <pt x="204" y="409" on="0"/>
        <pt x="197" y="403" on="1"/>
        <pt x="193" y="411" on="0"/>
        <pt x="191" y="426" on="0"/>
        <pt x="191" y="434" on="1"/>
        <pt x="191" y="466" on="0"/>
        <pt x="245" y="508" on="0"/>
        <pt x="283" y="508" on="1"/>
        <pt x="343" y="508" on="0"/>
        <pt x="407" y="447" on="0"/>
        <pt x="407" y="390" on="1"/>
        <pt x="407" y="0" on="1"/>
        <pt x="384" y="0" on="0"/>
        <pt x="337" y="11" on="0"/>
        <pt x="298" y="38" on="0"/>
        <pt x="273" y="83" on="0"/>
        <pt x="273" y="118" on="1"/>
      </contour>
      <contour>
        <pt x="179" y="156" on="1"/>
        <pt x="179" y="144" on="0"/>
        <pt x="182" y="122" on="0"/>
        <pt x="191" y="105" on="0"/>
        <pt x="208" y="94" on="0"/>
        <pt x="223" y="94" on="1"/>
        <pt x="231" y="94" on="0"/>
        <pt x="248" y="99" on="0"/>
        <pt x="255" y="105" on="1"/>
        <pt x="259" y="97" on="0"/>
        <pt x="261" y="82" on="0"/>
        <pt x="261" y="74" on="1"/>
        <pt x="261" y="42" on="0"/>
        <pt x="207" y="0" on="0"/>
        <pt x="169" y="0" on="1"/>
        <pt x="109" y="0" on="0"/>
        <pt x="45" y="64" on="0"/>
        <pt x="45" y="112" on="1"/>
        <pt x="45" y="390" on="1"/>
        <pt x="45" y="423" on="0"/>
        <pt x="70" y="468" on="0"/>
        <pt x="109" y="496" on="0"/>
        <pt x="156" y="508" on="0"/>
        <pt x="179" y="508" on="1"/>
      </contour>
    </TTGlyph>
    <TTGlyph name="acute" xMin="65" yMin="566" xMax="244" yMax="708">
      <contour>
        <pt x="65" y="566" on="1"/>
        <pt x="65" y="588" on="0"/>
        <pt x="70" y="638" on="0"/>
        <pt x="91" y="680" on="0"/>
        <pt x="132" y="708" on="0"/>
        <pt x="168" y="708" on="1"/>
        <pt x="244" y="708" on="1"/>
        <pt x="244" y="685" on="0"/>
        <pt x="239" y="635" on="0"/>
        <pt x="219" y="593" on="0"/>
        <pt x="177" y="566" on="0"/>
        <pt x="141" y="566" on="1"/>
      </contour>
    </TTGlyph>
    <TTGlyph name="adieresis" xMin="45" yMin="0" xMax="407" yMax="728">
      <contour>
        <pt x="79" y="658" on="1"/>
        <pt x="79" y="687" on="0"/>
        <pt x="120" y="728" on="0"/>
        <pt x="149" y="728" on="1"/>
        <pt x="178" y="728" on="0"/>
        <pt x="219" y="687" on="0"/>
        <pt x="219" y="658" on="1"/>
        <pt x="219" y="629" on="0"/>
        <pt x="178" y="589" on="0"/>
        <pt x="149" y="589" on="1"/>
        <pt x="120" y="589" on="0"/>
        <pt x="79" y="629" on="0"/>
      </contour>
      <contour>
        <pt x="235" y="658" on="1"/>
        <pt x="235" y="687" on="0"/>
        <pt x="277" y="728" on="0"/>
        <pt x="306" y="728" on="1"/>
        <pt x="335" y="728" on="0"/>
        <pt x="375" y="687" on="0"/>
        <pt x="375" y="658" on="1"/>
        <pt x="375" y="629" on="0"/>
        <pt x="335" y="589" on="0"/>
        <pt x="306" y="589" on="1"/>
        <pt x="277" y="589" on="0"/>
        <pt x="235" y="629" on="0"/>
      </contour>
      <contour>
        <pt x="273" y="352" on="1"/>
        <pt x="273" y="364" on="0"/>
        <pt x="270" y="386" on="0"/>
        <pt x="261" y="403" on="0"/>
        <pt x="244" y="414" on="0"/>
        <pt x="229" y="414" on="1"/>
        <pt x="221" y="414" on="0"/>
        <pt x="204" y="409" on="0"/>
        <pt x="197" y="403" on="1"/>
        <pt x="193" y="411" on="0"/>
        <pt x="191" y="426" on="0"/>
        <pt x="191" y="434" on="1"/>
        <pt x="191" y="466" on="0"/>
        <pt x="245" y="508" on="0"/>
        <pt x="283" y="508" on="1"/>
        <pt x="343" y="508" on="0"/>
        <pt x="407" y="447" on="0"/>
        <pt x="407" y="390" on="1"/>
        <pt x="407" y="0" on="1"/>
        <pt x="384" y="0" on="0"/>
        <pt x="337" y="11" on="0"/>
        <pt x="298" y="38" on="0"/>
        <pt x="273" y="83" on="0"/>
        <pt x="273" y="118" on="1"/>
      </contour>
      <contour>
        <pt x="179" y="156" on="1"/>
        <pt x="179" y="144" on="0"/>
        <pt x="182" y="122" on="0"/>
        <pt x="191" y="105" on="0"/>
        <pt x="208" y="94" on="0"/>
        <pt x="223" y="94" on="1"/>
        <pt x="231" y="94" on="0"/>
        <pt x="248" y="99" on="0"/>
        <pt x="255" y="105" on="1"/>
        <pt x="259" y="97" on="0"/>
        <pt x="261" y="82" on="0"/>
        <pt x="261" y="74" on="1"/>
        <pt x="261" y="42" on="0"/>
        <pt x="207" y="0" on="0"/>
        <pt x="169" y="0" on="1"/>
        <pt x="109" y="0" on="0"/>
        <pt x="45" y="64" on="0"/>
        <pt x="45" y="112" on="1"/>
        <pt x="45" y="390" on="1"/>
        <pt x="45" y="423" on="0"/>
        <pt x="70" y="468" on="0"/>
        <pt x="109" y="496" on="0"/>
        <pt x="156" y="508" on="0"/>
        <pt x="179" y="508" on="1"/>
      </contour>
    </TTGlyph>
    <TTGlyph name="ae" xMin="45" yMin="0" xMax="630" yMax="525">
      <contour>
        <pt x="273" y="352" on="1"/>
        <pt x="273" y="364" on="0"/>
        <pt x="270" y="386" on="0"/>
        <pt x="261" y="403" on="0"/>
        <pt x="244" y="414" on="0"/>
        <pt x="229" y="414" on="1"/>
        <pt x="221" y="414" on="0"/>
        <pt x="204" y="409" on="0"/>
        <pt x="197" y="403" on="1"/>
        <pt x="193" y="411" on="0"/>
        <pt x="192" y="433" on="0"/>
        <pt x="192" y="442" on="1"/>
        <pt x="193" y="478" on="0"/>
        <pt x="271" y="525" on="0"/>
        <pt x="334" y="525" on="1"/>
        <pt x="358" y="525" on="0"/>
        <pt x="409" y="515" on="0"/>
        <pt x="451" y="492" on="0"/>
        <pt x="478" y="453" on="0"/>
        <pt x="478" y="425" on="1"/>
        <pt x="478" y="419" on="0"/>
        <pt x="476" y="405" on="0"/>
        <pt x="474" y="400" on="1"/>
        <pt x="467" y="406" on="0"/>
        <pt x="454" y="412" on="0"/>
        <pt x="444" y="412" on="1"/>
        <pt x="420" y="412" on="0"/>
        <pt x="407" y="382" on="0"/>
        <pt x="407" y="365" on="1"/>
        <pt x="407" y="0" on="1"/>
        <pt x="398" y="0" on="1"/>
        <pt x="375" y="0" on="0"/>
        <pt x="330" y="11" on="0"/>
        <pt x="295" y="38" on="0"/>
        <pt x="273" y="82" on="0"/>
        <pt x="273" y="114" on="1"/>
      </contour>
      <contour>
        <pt x="179" y="156" on="1"/>
        <pt x="179" y="144" on="0"/>
        <pt x="182" y="122" on="0"/>
        <pt x="191" y="105" on="0"/>
        <pt x="208" y="94" on="0"/>
        <pt x="223" y="94" on="1"/>
        <pt x="231" y="94" on="0"/>
        <pt x="248" y="99" on="0"/>
        <pt x="255" y="105" on="1"/>
        <pt x="259" y="97" on="0"/>
        <pt x="261" y="79" on="0"/>
        <pt x="261" y="74" on="1"/>
        <pt x="261" y="42" on="0"/>
        <pt x="207" y="0" on="0"/>
        <pt x="169" y="0" on="1"/>
        <pt x="109" y="0" on="0"/>
        <pt x="45" y="65" on="0"/>
        <pt x="45" y="128" on="1"/>
        <pt x="45" y="390" on="1"/>
        <pt x="45" y="423" on="0"/>
        <pt x="70" y="468" on="0"/>
        <pt x="109" y="496" on="0"/>
        <pt x="156" y="508" on="0"/>
        <pt x="179" y="508" on="1"/>
      </contour>
      <contour>
        <pt x="496" y="507" on="1"/>
        <pt x="501" y="508" on="0"/>
        <pt x="506" y="508" on="1"/>
        <pt x="516" y="508" on="1"/>
        <pt x="570" y="508" on="0"/>
        <pt x="630" y="453" on="0"/>
        <pt x="630" y="402" on="1"/>
        <pt x="630" y="327" on="1"/>
        <pt x="630" y="270" on="0"/>
        <pt x="565" y="213" on="0"/>
        <pt x="516" y="213" on="1"/>
        <pt x="471" y="213" on="0"/>
        <pt x="421" y="258" on="0"/>
        <pt x="421" y="291" on="1"/>
        <pt x="421" y="296" on="0"/>
        <pt x="422" y="308" on="0"/>
        <pt x="425" y="316" on="1"/>
        <pt x="433" y="308" on="0"/>
        <pt x="445" y="300" on="0"/>
        <pt x="459" y="300" on="1"/>
        <pt x="482" y="300" on="0"/>
        <pt x="496" y="333" on="0"/>
        <pt x="496" y="355" on="1"/>
      </contour>
      <contour>
        <pt x="621" y="96" on="1"/>
        <pt x="621" y="79" on="0"/>
        <pt x="611" y="45" on="0"/>
        <pt x="589" y="18" on="0"/>
        <pt x="553" y="0" on="0"/>
        <pt x="527" y="0" on="1"/>
        <pt x="502" y="0" on="0"/>
        <pt x="464" y="15" on="0"/>
        <pt x="438" y="39" on="0"/>
        <pt x="425" y="69" on="0"/>
        <pt x="425" y="85" on="1"/>
        <pt x="425" y="93" on="0"/>
        <pt x="426" y="100" on="0"/>
        <pt x="429" y="108" on="1"/>
        <pt x="442" y="96" on="0"/>
        <pt x="461" y="96" on="1"/>
        <pt x="476" y="96" on="0"/>
        <pt x="496" y="115" on="0"/>
        <pt x="496" y="134" on="1"/>
        <pt x="496" y="181" on="1"/>
        <pt x="501" y="182" on="0"/>
        <pt x="513" y="183" on="0"/>
        <pt x="519" y="183" on="1"/>
        <pt x="536" y="183" on="0"/>
        <pt x="572" y="175" on="0"/>
        <pt x="602" y="155" on="0"/>
        <pt x="621" y="121" on="0"/>
      </contour>
    </TTGlyph>
    <TTGlyph name="agrave" xMin="45" yMin="0" xMax="407" yMax="708">
      <contour>
        <pt x="273" y="352" on="1"/>
        <pt x="273" y="364" on="0"/>
        <pt x="270" y="386" on="0"/>
        <pt x="261" y="403" on="0"/>
        <pt x="244" y="414" on="0"/>
        <pt x="229" y="414" on="1"/>
        <pt x="221" y="414" on="0"/>
        <pt x="204" y="409" on="0"/>
        <pt x="197" y="403" on="1"/>
        <pt x="193" y="411" on="0"/>
        <pt x="191" y="426" on="0"/>
        <pt x="191" y="434" on="1"/>
        <pt x="191" y="466" on="0"/>
        <pt x="245" y="508" on="0"/>
        <pt x="283" y="508" on="1"/>
        <pt x="343" y="508" on="0"/>
        <pt x="407" y="447" on="0"/>
        <pt x="407" y="390" on="1"/>
        <pt x="407" y="0" on="1"/>
        <pt x="384" y="0" on="0"/>
        <pt x="337" y="11" on="0"/>
        <pt x="298" y="38" on="0"/>
        <pt x="273" y="83" on="0"/>
        <pt x="273" y="118" on="1"/>
      </contour>
      <contour>
        <pt x="179" y="156" on="1"/>
        <pt x="179" y="144" on="0"/>
        <pt x="182" y="122" on="0"/>
        <pt x="191" y="105" on="0"/>
        <pt x="208" y="94" on="0"/>
        <pt x="223" y="94" on="1"/>
        <pt x="231" y="94" on="0"/>
        <pt x="248" y="99" on="0"/>
        <pt x="255" y="105" on="1"/>
        <pt x="259" y="97" on="0"/>
        <pt x="261" y="82" on="0"/>
        <pt x="261" y="74" on="1"/>
        <pt x="261" y="42" on="0"/>
        <pt x="207" y="0" on="0"/>
        <pt x="169" y="0" on="1"/>
        <pt x="109" y="0" on="0"/>
        <pt x="45" y="64" on="0"/>
        <pt x="45" y="112" on="1"/>
        <pt x="45" y="390" on="1"/>
        <pt x="45" y="423" on="0"/>
        <pt x="70" y="468" on="0"/>
        <pt x="109" y="496" on="0"/>
        <pt x="156" y="508" on="0"/>
        <pt x="179" y="508" on="1"/>
      </contour>
      <contour>
        <pt x="239" y="566" on="1"/>
        <pt x="203" y="566" on="0"/>
        <pt x="161" y="593" on="0"/>
        <pt x="141" y="635" on="0"/>
        <pt x="136" y="685" on="0"/>
        <pt x="136" y="708" on="1"/>
        <pt x="212" y="708" on="1"/>
        <pt x="248" y="708" on="0"/>
        <pt x="289" y="680" on="0"/>
        <pt x="310" y="638" on="0"/>
        <pt x="315" y="588" on="0"/>
        <pt x="315" y="566" on="1"/>
      </contour>
    </TTGlyph>
    <TTGlyph name="ampersand" xMin="60" yMin="-2" xMax="542" yMax="726">
      <contour>
        <pt x="408" y="-1" on="1"/>
        <pt x="396" y="-1" on="1"/>
        <pt x="373" y="-1" on="0"/>
        <pt x="327" y="9" on="0"/>
        <pt x="288" y="36" on="0"/>
        <pt x="264" y="83" on="0"/>
        <pt x="264" y="119" on="1"/>
        <pt x="264" y="407" on="1"/>
        <pt x="276" y="407" on="1"/>
        <pt x="298" y="407" on="0"/>
        <pt x="345" y="397" on="0"/>
        <pt x="384" y="370" on="0"/>
        <pt x="408" y="323" on="0"/>
        <pt x="408" y="287" on="1"/>
      </contour>
      <contour>
        <pt x="204" y="155" on="1"/>
        <pt x="204" y="129" on="0"/>
        <pt x="209" y="93" on="0"/>
        <pt x="223" y="93" on="1"/>
        <pt x="232" y="93" on="0"/>
        <pt x="238" y="98" on="0"/>
        <pt x="245" y="104" on="1"/>
        <pt x="245" y="93" on="1"/>
        <pt x="245" y="52" on="0"/>
        <pt x="203" y="-2" on="0"/>
        <pt x="155" y="-2" on="1"/>
        <pt x="109" y="-2" on="0"/>
        <pt x="60" y="51" on="0"/>
        <pt x="60" y="96" on="1"/>
        <pt x="60" y="242" on="1"/>
        <pt x="60" y="276" on="0"/>
        <pt x="81" y="321" on="0"/>
        <pt x="115" y="348" on="0"/>
        <pt x="157" y="360" on="0"/>
        <pt x="177" y="360" on="1"/>
        <pt x="184" y="360" on="0"/>
        <pt x="197" y="359" on="0"/>
        <pt x="204" y="358" on="1"/>
      </contour>
      <contour>
        <pt x="204" y="372" on="1"/>
        <pt x="192" y="372" on="1"/>
        <pt x="169" y="372" on="0"/>
        <pt x="123" y="382" on="0"/>
        <pt x="84" y="409" on="0"/>
        <pt x="60" y="456" on="0"/>
        <pt x="60" y="492" on="1"/>
        <pt x="60" y="606" on="1"/>
        <pt x="60" y="642" on="0"/>
        <pt x="84" y="689" on="0"/>
        <pt x="123" y="716" on="0"/>
        <pt x="169" y="726" on="0"/>
        <pt x="192" y="726" on="1"/>
        <pt x="204" y="726" on="1"/>
      </contour>
      <contour>
        <pt x="264" y="424" on="1"/>
        <pt x="264" y="573" on="1"/>
        <pt x="264" y="596" on="0"/>
        <pt x="259" y="631" on="0"/>
        <pt x="245" y="631" on="1"/>
        <pt x="236" y="631" on="0"/>
        <pt x="230" y="626" on="0"/>
        <pt x="223" y="620" on="1"/>
        <pt x="222" y="625" on="0"/>
        <pt x="222" y="628" on="1"/>
        <pt x="222" y="637" on="1"/>
        <pt x="222" y="674" on="0"/>
        <pt x="263" y="726" on="0"/>
        <pt x="308" y="726" on="1"/>
        <pt x="354" y="726" on="0"/>
        <pt x="404" y="668" on="0"/>
        <pt x="404" y="631" on="1"/>
        <pt x="404" y="532" on="1"/>
        <pt x="404" y="501" on="0"/>
        <pt x="381" y="459" on="0"/>
        <pt x="346" y="433" on="0"/>
        <pt x="305" y="422" on="0"/>
        <pt x="286" y="422" on="1"/>
        <pt x="280" y="422" on="0"/>
        <pt x="269" y="423" on="0"/>
      </contour>
      <contour>
        <pt x="541" y="410" on="1"/>
        <pt x="542" y="405" on="0"/>
        <pt x="542" y="401" on="1"/>
        <pt x="542" y="393" on="1"/>
        <pt x="542" y="344" on="0"/>
        <pt x="488" y="281" on="0"/>
        <pt x="439" y="281" on="1"/>
        <pt x="428" y="281" on="1"/>
        <pt x="428" y="286" on="0"/>
        <pt x="429" y="295" on="0"/>
        <pt x="429" y="300" on="1"/>
        <pt x="429" y="354" on="0"/>
        <pt x="393" y="402" on="0"/>
        <pt x="364" y="410" on="1"/>
      </contour>
    </TTGlyph>
    <TTGlyph name="aring" xMin="45" yMin="0" xMax="407" yMax="729">
      <contour>
        <pt x="187" y="613" on="1"/>
        <pt x="187" y="601" on="0"/>
        <pt x="194" y="581" on="0"/>
        <pt x="209" y="581" on="1"/>
        <pt x="213" y="581" on="0"/>
        <pt x="222" y="583" on="0"/>
        <pt x="226" y="586" on="1"/>
        <pt x="229" y="578" on="0"/>
        <pt x="229" y="571" on="1"/>
        <pt x="229" y="551" on="0"/>
        <pt x="199" y="532" on="0"/>
        <pt x="179" y="532" on="1"/>
        <pt x="149" y="532" on="0"/>
        <pt x="118" y="566" on="0"/>
        <pt x="118" y="592" on="1"/>
        <pt x="118" y="668" on="1"/>
        <pt x="118" y="697" on="0"/>
        <pt x="152" y="729" on="0"/>
        <pt x="182" y="729" on="1"/>
        <pt x="205" y="729" on="0"/>
        <pt x="228" y="705" on="0"/>
        <pt x="228" y="685" on="1"/>
        <pt x="228" y="678" on="0"/>
        <pt x="226" y="675" on="1"/>
        <pt x="219" y="680" on="0"/>
        <pt x="209" y="680" on="1"/>
        <pt x="196" y="680" on="0"/>
        <pt x="187" y="665" on="0"/>
        <pt x="187" y="655" on="1"/>
      </contour>
      <contour>
        <pt x="282" y="655" on="1"/>
        <pt x="282" y="665" on="0"/>
        <pt x="273" y="680" on="0"/>
        <pt x="260" y="680" on="1"/>
        <pt x="250" y="680" on="0"/>
        <pt x="243" y="675" on="1"/>
        <pt x="241" y="678" on="0"/>
        <pt x="241" y="685" on="1"/>
        <pt x="241" y="705" on="0"/>
        <pt x="263" y="729" on="0"/>
        <pt x="287" y="729" on="1"/>
        <pt x="317" y="729" on="0"/>
        <pt x="351" y="697" on="0"/>
        <pt x="351" y="668" on="1"/>
        <pt x="351" y="592" on="1"/>
        <pt x="351" y="566" on="0"/>
        <pt x="320" y="532" on="0"/>
        <pt x="290" y="532" on="1"/>
        <pt x="270" y="532" on="0"/>
        <pt x="240" y="551" on="0"/>
        <pt x="240" y="571" on="1"/>
        <pt x="240" y="578" on="0"/>
        <pt x="243" y="586" on="1"/>
        <pt x="247" y="583" on="0"/>
        <pt x="256" y="581" on="0"/>
        <pt x="260" y="581" on="1"/>
        <pt x="275" y="581" on="0"/>
        <pt x="281" y="601" on="0"/>
        <pt x="282" y="613" on="1"/>
      </contour>
      <contour>
        <pt x="273" y="352" on="1"/>
        <pt x="273" y="364" on="0"/>
        <pt x="270" y="386" on="0"/>
        <pt x="261" y="403" on="0"/>
        <pt x="244" y="414" on="0"/>
        <pt x="229" y="414" on="1"/>
        <pt x="221" y="414" on="0"/>
        <pt x="204" y="409" on="0"/>
        <pt x="197" y="403" on="1"/>
        <pt x="193" y="411" on="0"/>
        <pt x="191" y="426" on="0"/>
        <pt x="191" y="434" on="1"/>
        <pt x="191" y="466" on="0"/>
        <pt x="245" y="508" on="0"/>
        <pt x="283" y="508" on="1"/>
        <pt x="343" y="508" on="0"/>
        <pt x="407" y="447" on="0"/>
        <pt x="407" y="390" on="1"/>
        <pt x="407" y="0" on="1"/>
        <pt x="384" y="0" on="0"/>
        <pt x="337" y="11" on="0"/>
        <pt x="298" y="38" on="0"/>
        <pt x="273" y="83" on="0"/>
        <pt x="273" y="118" on="1"/>
      </contour>
      <contour>
        <pt x="179" y="156" on="1"/>
        <pt x="179" y="144" on="0"/>
        <pt x="182" y="122" on="0"/>
        <pt x="191" y="105" on="0"/>
        <pt x="208" y="94" on="0"/>
        <pt x="223" y="94" on="1"/>
        <pt x="231" y="94" on="0"/>
        <pt x="248" y="99" on="0"/>
        <pt x="255" y="105" on="1"/>
        <pt x="259" y="97" on="0"/>
        <pt x="261" y="82" on="0"/>
        <pt x="261" y="74" on="1"/>
        <pt x="261" y="42" on="0"/>
        <pt x="207" y="0" on="0"/>
        <pt x="169" y="0" on="1"/>
        <pt x="109" y="0" on="0"/>
        <pt x="45" y="64" on="0"/>
        <pt x="45" y="112" on="1"/>
        <pt x="45" y="390" on="1"/>
        <pt x="45" y="423" on="0"/>
        <pt x="70" y="468" on="0"/>
        <pt x="109" y="496" on="0"/>
        <pt x="156" y="508" on="0"/>
        <pt x="179" y="508" on="1"/>
      </contour>
    </TTGlyph>
    <TTGlyph name="asciicircum" xMin="51" yMin="422" xMax="480" yMax="764">
      <contour>
        <pt x="264" y="764" on="1"/>
        <pt x="422" y="613" on="1"/>
        <pt x="453" y="584" on="0"/>
        <pt x="480" y="530" on="0"/>
        <pt x="480" y="507" on="1"/>
        <pt x="480" y="482" on="0"/>
        <pt x="454" y="440" on="0"/>
        <pt x="432" y="422" on="1"/>
        <pt x="265" y="594" on="1"/>
        <pt x="100" y="424" on="1"/>
        <pt x="51" y="467" on="0"/>
        <pt x="51" y="510" on="1"/>
        <pt x="51" y="558" on="0"/>
        <pt x="110" y="615" on="1"/>
      </contour>
    </TTGlyph>
    <TTGlyph name="asciitilde" xMin="40" yMin="574" xMax="348" yMax="726">
      <contour>
        <pt x="122" y="609" on="1"/>
        <pt x="105" y="609" on="0"/>
        <pt x="73" y="594" on="0"/>
        <pt x="59" y="574" on="1"/>
        <pt x="40" y="602" on="0"/>
        <pt x="40" y="633" on="1"/>
        <pt x="40" y="652" on="0"/>
        <pt x="55" y="686" on="0"/>
        <pt x="82" y="712" on="0"/>
        <pt x="117" y="726" on="0"/>
        <pt x="137" y="726" on="1"/>
        <pt x="157" y="726" on="0"/>
        <pt x="188" y="718" on="0"/>
        <pt x="216" y="708" on="0"/>
        <pt x="243" y="700" on="0"/>
        <pt x="259" y="700" on="1"/>
        <pt x="275" y="700" on="0"/>
        <pt x="307" y="711" on="0"/>
        <pt x="324" y="726" on="1"/>
        <pt x="348" y="690" on="0"/>
        <pt x="348" y="659" on="1"/>
        <pt x="348" y="627" on="0"/>
        <pt x="304" y="579" on="0"/>
        <pt x="262" y="579" on="1"/>
        <pt x="242" y="579" on="0"/>
        <pt x="206" y="588" on="0"/>
        <pt x="172" y="600" on="0"/>
        <pt x="139" y="609" on="0"/>
      </contour>
    </TTGlyph>
    <TTGlyph name="asterisk" xMin="10" yMin="264" xMax="501" yMax="755">
      <contour>
        <pt x="228" y="528" on="1"/>
        <pt x="221" y="521" on="0"/>
        <pt x="215" y="516" on="1"/>
        <pt x="225" y="507" on="0"/>
        <pt x="234" y="498" on="1"/>
        <pt x="179" y="446" on="1"/>
        <pt x="161" y="429" on="0"/>
        <pt x="128" y="415" on="0"/>
        <pt x="109" y="415" on="1"/>
        <pt x="83" y="415" on="0"/>
        <pt x="33" y="441" on="0"/>
        <pt x="10" y="464" on="1"/>
        <pt x="57" y="510" on="1"/>
        <pt x="10" y="555" on="1"/>
        <pt x="30" y="576" on="0"/>
        <pt x="80" y="606" on="0"/>
        <pt x="109" y="606" on="1"/>
        <pt x="126" y="606" on="0"/>
        <pt x="163" y="591" on="0"/>
        <pt x="181" y="574" on="1"/>
      </contour>
      <contour>
        <pt x="210" y="264" on="1"/>
        <pt x="187" y="287" on="0"/>
        <pt x="161" y="337" on="0"/>
        <pt x="161" y="363" on="1"/>
        <pt x="161" y="381" on="0"/>
        <pt x="175" y="417" on="0"/>
        <pt x="191" y="434" on="1"/>
        <pt x="244" y="489" on="1"/>
        <pt x="250" y="483" on="0"/>
        <pt x="255" y="477" on="1"/>
        <pt x="261" y="483" on="0"/>
        <pt x="267" y="489" on="1"/>
        <pt x="319" y="434" on="1"/>
        <pt x="336" y="416" on="0"/>
        <pt x="350" y="383" on="0"/>
        <pt x="350" y="364" on="1"/>
        <pt x="350" y="338" on="0"/>
        <pt x="324" y="288" on="0"/>
        <pt x="301" y="265" on="1"/>
        <pt x="255" y="311" on="1"/>
      </contour>
      <contour>
        <pt x="329" y="573" on="1"/>
        <pt x="346" y="590" on="0"/>
        <pt x="383" y="605" on="0"/>
        <pt x="401" y="605" on="1"/>
        <pt x="429" y="605" on="0"/>
        <pt x="480" y="575" on="0"/>
        <pt x="500" y="555" on="1"/>
        <pt x="453" y="510" on="1"/>
        <pt x="501" y="465" on="1"/>
        <pt x="478" y="442" on="0"/>
        <pt x="428" y="416" on="0"/>
        <pt x="402" y="416" on="1"/>
        <pt x="383" y="416" on="0"/>
        <pt x="347" y="430" on="0"/>
        <pt x="331" y="446" on="1"/>
        <pt x="276" y="499" on="1"/>
        <pt x="285" y="508" on="0"/>
        <pt x="295" y="516" on="1"/>
        <pt x="289" y="521" on="0"/>
        <pt x="283" y="528" on="1"/>
      </contour>
      <contour>
        <pt x="273" y="537" on="1"/>
        <pt x="263" y="547" on="0"/>
        <pt x="254" y="557" on="1"/>
        <pt x="247" y="548" on="0"/>
        <pt x="237" y="538" on="1"/>
        <pt x="192" y="584" on="1"/>
        <pt x="175" y="601" on="0"/>
        <pt x="160" y="638" on="0"/>
        <pt x="160" y="656" on="1"/>
        <pt x="160" y="684" on="0"/>
        <pt x="190" y="735" on="0"/>
        <pt x="210" y="755" on="1"/>
        <pt x="255" y="707" on="1"/>
        <pt x="300" y="755" on="1"/>
        <pt x="321" y="735" on="0"/>
        <pt x="351" y="685" on="0"/>
        <pt x="351" y="656" on="1"/>
        <pt x="351" y="639" on="0"/>
        <pt x="336" y="602" on="0"/>
        <pt x="319" y="584" on="1"/>
      </contour>
    </TTGlyph>
    <TTGlyph name="at" xMin="50" yMin="-115" xMax="766" yMax="669">
      <contour>
        <pt x="766" y="117" on="1"/>
        <pt x="764" y="57" on="0"/>
        <pt x="712" y="0" on="0"/>
        <pt x="657" y="0" on="1"/>
        <pt x="568" y="0" on="1"/>
        <pt x="552" y="2" on="0"/>
        <pt x="536" y="5" on="1"/>
        <pt x="513" y="11" on="0"/>
        <pt x="474" y="38" on="0"/>
        <pt x="449" y="83" on="0"/>
        <pt x="449" y="118" on="1"/>
        <pt x="449" y="352" on="1"/>
        <pt x="449" y="364" on="0"/>
        <pt x="446" y="386" on="0"/>
        <pt x="437" y="403" on="0"/>
        <pt x="420" y="414" on="0"/>
        <pt x="405" y="414" on="1"/>
        <pt x="397" y="414" on="0"/>
        <pt x="380" y="409" on="0"/>
        <pt x="373" y="403" on="1"/>
        <pt x="369" y="411" on="0"/>
        <pt x="367" y="426" on="0"/>
        <pt x="367" y="434" on="1"/>
        <pt x="367" y="466" on="0"/>
        <pt x="421" y="508" on="0"/>
        <pt x="459" y="508" on="1"/>
        <pt x="519" y="508" on="0"/>
        <pt x="583" y="447" on="0"/>
        <pt x="583" y="390" on="1"/>
        <pt x="583" y="122" on="1"/>
        <pt x="643" y="122" on="1"/>
        <pt x="643" y="513" on="1"/>
        <pt x="643" y="525" on="0"/>
        <pt x="640" y="547" on="0"/>
        <pt x="631" y="564" on="0"/>
        <pt x="614" y="575" on="0"/>
        <pt x="599" y="575" on="1"/>
        <pt x="591" y="575" on="0"/>
        <pt x="574" y="570" on="0"/>
        <pt x="567" y="564" on="1"/>
        <pt x="563" y="572" on="0"/>
        <pt x="561" y="587" on="0"/>
        <pt x="561" y="595" on="1"/>
        <pt x="561" y="627" on="0"/>
        <pt x="610" y="669" on="0"/>
        <pt x="648" y="669" on="1"/>
        <pt x="708" y="669" on="0"/>
        <pt x="766" y="608" on="0"/>
        <pt x="766" y="551" on="1"/>
      </contour>
      <contour>
        <pt x="173" y="513" on="1"/>
        <pt x="173" y="41" on="1"/>
        <pt x="173" y="29" on="0"/>
        <pt x="176" y="7" on="0"/>
        <pt x="185" y="-10" on="0"/>
        <pt x="202" y="-21" on="0"/>
        <pt x="217" y="-21" on="1"/>
        <pt x="225" y="-21" on="0"/>
        <pt x="242" y="-16" on="0"/>
        <pt x="249" y="-10" on="1"/>
        <pt x="253" y="-18" on="0"/>
        <pt x="255" y="-33" on="0"/>
        <pt x="255" y="-41" on="1"/>
        <pt x="255" y="-73" on="0"/>
        <pt x="201" y="-115" on="0"/>
        <pt x="163" y="-115" on="1"/>
        <pt x="103" y="-115" on="0"/>
        <pt x="50" y="-54" on="0"/>
        <pt x="50" y="3" on="1"/>
        <pt x="50" y="551" on="1"/>
        <pt x="50" y="608" on="0"/>
        <pt x="110" y="669" on="0"/>
        <pt x="167" y="669" on="1"/>
        <pt x="205" y="669" on="0"/>
        <pt x="255" y="627" on="0"/>
        <pt x="255" y="595" on="1"/>
        <pt x="255" y="587" on="0"/>
        <pt x="253" y="572" on="0"/>
        <pt x="249" y="564" on="1"/>
        <pt x="242" y="570" on="0"/>
        <pt x="225" y="575" on="0"/>
        <pt x="217" y="575" on="1"/>
        <pt x="202" y="575" on="0"/>
        <pt x="185" y="564" on="0"/>
        <pt x="176" y="547" on="0"/>
        <pt x="173" y="525" on="0"/>
      </contour>
      <contour>
        <pt x="355" y="156" on="1"/>
        <pt x="355" y="144" on="0"/>
        <pt x="358" y="122" on="0"/>
        <pt x="367" y="105" on="0"/>
        <pt x="384" y="94" on="0"/>
        <pt x="399" y="94" on="1"/>
        <pt x="407" y="94" on="0"/>
        <pt x="424" y="99" on="0"/>
        <pt x="431" y="105" on="1"/>
        <pt x="435" y="97" on="0"/>
        <pt x="437" y="82" on="0"/>
        <pt x="437" y="74" on="1"/>
        <pt x="437" y="42" on="0"/>
        <pt x="383" y="0" on="0"/>
        <pt x="345" y="0" on="1"/>
        <pt x="285" y="0" on="0"/>
        <pt x="221" y="64" on="0"/>
        <pt x="221" y="112" on="1"/>
        <pt x="221" y="390" on="1"/>
        <pt x="221" y="423" on="0"/>
        <pt x="246" y="468" on="0"/>
        <pt x="285" y="496" on="0"/>
        <pt x="332" y="508" on="0"/>
        <pt x="355" y="508" on="1"/>
      </contour>
    </TTGlyph>
    <TTGlyph name="atilde" xMin="45" yMin="0" xMax="407" yMax="727">
      <contour>
        <pt x="273" y="352" on="1"/>
        <pt x="273" y="364" on="0"/>
        <pt x="270" y="386" on="0"/>
        <pt x="261" y="403" on="0"/>
        <pt x="244" y="414" on="0"/>
        <pt x="229" y="414" on="1"/>
        <pt x="221" y="414" on="0"/>
        <pt x="204" y="409" on="0"/>
        <pt x="197" y="403" on="1"/>
        <pt x="193" y="411" on="0"/>
        <pt x="191" y="426" on="0"/>
        <pt x="191" y="434" on="1"/>
        <pt x="191" y="466" on="0"/>
        <pt x="245" y="508" on="0"/>
        <pt x="283" y="508" on="1"/>
        <pt x="343" y="508" on="0"/>
        <pt x="407" y="447" on="0"/>
        <pt x="407" y="390" on="1"/>
        <pt x="407" y="0" on="1"/>
        <pt x="384" y="0" on="0"/>
        <pt x="337" y="11" on="0"/>
        <pt x="298" y="38" on="0"/>
        <pt x="273" y="83" on="0"/>
        <pt x="273" y="118" on="1"/>
      </contour>
      <contour>
        <pt x="179" y="156" on="1"/>
        <pt x="179" y="144" on="0"/>
        <pt x="182" y="122" on="0"/>
        <pt x="191" y="105" on="0"/>
        <pt x="208" y="94" on="0"/>
        <pt x="223" y="94" on="1"/>
        <pt x="231" y="94" on="0"/>
        <pt x="248" y="99" on="0"/>
        <pt x="255" y="105" on="1"/>
        <pt x="259" y="97" on="0"/>
        <pt x="261" y="82" on="0"/>
        <pt x="261" y="74" on="1"/>
        <pt x="261" y="42" on="0"/>
        <pt x="207" y="0" on="0"/>
        <pt x="169" y="0" on="1"/>
        <pt x="109" y="0" on="0"/>
        <pt x="45" y="64" on="0"/>
        <pt x="45" y="112" on="1"/>
        <pt x="45" y="390" on="1"/>
        <pt x="45" y="423" on="0"/>
        <pt x="70" y="468" on="0"/>
        <pt x="109" y="496" on="0"/>
        <pt x="156" y="508" on="0"/>
        <pt x="179" y="508" on="1"/>
      </contour>
      <contour>
        <pt x="282" y="580" on="1"/>
        <pt x="263" y="583" on="0"/>
        <pt x="233" y="593" on="0"/>
        <pt x="204" y="602" on="0"/>
        <pt x="176" y="609" on="0"/>
        <pt x="160" y="609" on="1"/>
        <pt x="143" y="609" on="0"/>
        <pt x="111" y="594" on="0"/>
        <pt x="97" y="574" on="1"/>
        <pt x="78" y="602" on="0"/>
        <pt x="78" y="633" on="1"/>
        <pt x="78" y="652" on="0"/>
        <pt x="93" y="687" on="0"/>
        <pt x="120" y="712" on="0"/>
        <pt x="155" y="727" on="0"/>
        <pt x="175" y="727" on="1"/>
        <pt x="195" y="727" on="0"/>
        <pt x="226" y="719" on="0"/>
        <pt x="254" y="708" on="0"/>
        <pt x="281" y="700" on="0"/>
        <pt x="297" y="700" on="1"/>
        <pt x="313" y="700" on="0"/>
        <pt x="345" y="711" on="0"/>
        <pt x="362" y="726" on="1"/>
        <pt x="386" y="690" on="0"/>
        <pt x="386" y="659" on="1"/>
        <pt x="386" y="627" on="0"/>
        <pt x="342" y="579" on="0"/>
        <pt x="300" y="579" on="1"/>
        <pt x="291" y="579" on="1"/>
        <pt x="287" y="579" on="0"/>
      </contour>
    </TTGlyph>
    <TTGlyph name="b" xMin="45" yMin="0" xMax="407" yMax="726">
      <contour>
        <pt x="179" y="0" on="1"/>
        <pt x="168" y="0" on="1"/>
        <pt x="142" y="0" on="0"/>
        <pt x="97" y="16" on="0"/>
        <pt x="64" y="44" on="0"/>
        <pt x="45" y="84" on="0"/>
        <pt x="45" y="108" on="1"/>
        <pt x="45" y="600" on="1"/>
        <pt x="45" y="637" on="0"/>
        <pt x="64" y="686" on="0"/>
        <pt x="97" y="714" on="0"/>
        <pt x="141" y="726" on="0"/>
        <pt x="167" y="726" on="1"/>
        <pt x="179" y="726" on="1"/>
      </contour>
      <contour>
        <pt x="407" y="132" on="1"/>
        <pt x="407" y="63" on="0"/>
        <pt x="343" y="0" on="0"/>
        <pt x="283" y="0" on="1"/>
        <pt x="245" y="0" on="0"/>
        <pt x="191" y="42" on="0"/>
        <pt x="191" y="74" on="1"/>
        <pt x="191" y="91" on="0"/>
        <pt x="198" y="105" on="1"/>
        <pt x="211" y="94" on="0"/>
        <pt x="229" y="94" on="1"/>
        <pt x="249" y="94" on="0"/>
        <pt x="273" y="126" on="0"/>
        <pt x="273" y="159" on="1"/>
        <pt x="273" y="360" on="1"/>
        <pt x="273" y="382" on="0"/>
        <pt x="256" y="412" on="0"/>
        <pt x="233" y="414" on="1"/>
        <pt x="229" y="414" on="1"/>
        <pt x="211" y="414" on="0"/>
        <pt x="197" y="403" on="1"/>
        <pt x="193" y="411" on="0"/>
        <pt x="191" y="426" on="0"/>
        <pt x="191" y="434" on="1"/>
        <pt x="191" y="466" on="0"/>
        <pt x="245" y="508" on="0"/>
        <pt x="283" y="508" on="1"/>
        <pt x="343" y="508" on="0"/>
        <pt x="407" y="446" on="0"/>
        <pt x="407" y="398" on="1"/>
      </contour>
    </TTGlyph>
    <TTGlyph name="backslash" xMin="50" yMin="0" xMax="376" yMax="762">
      <contour>
        <pt x="194" y="366" on="1"/>
        <pt x="182" y="366" on="1"/>
        <pt x="159" y="366" on="0"/>
        <pt x="113" y="376" on="0"/>
        <pt x="74" y="403" on="0"/>
        <pt x="50" y="450" on="0"/>
        <pt x="50" y="486" on="1"/>
        <pt x="50" y="642" on="1"/>
        <pt x="50" y="678" on="0"/>
        <pt x="74" y="725" on="0"/>
        <pt x="113" y="752" on="0"/>
        <pt x="159" y="762" on="0"/>
        <pt x="182" y="762" on="1"/>
        <pt x="194" y="762" on="1"/>
      </contour>
      <contour>
        <pt x="232" y="396" on="1"/>
        <pt x="244" y="396" on="1"/>
        <pt x="266" y="396" on="0"/>
        <pt x="313" y="386" on="0"/>
        <pt x="352" y="359" on="0"/>
        <pt x="376" y="312" on="0"/>
        <pt x="376" y="276" on="1"/>
        <pt x="376" y="120" on="1"/>
        <pt x="376" y="84" on="0"/>
        <pt x="352" y="37" on="0"/>
        <pt x="313" y="10" on="0"/>
        <pt x="266" y="0" on="0"/>
        <pt x="244" y="0" on="1"/>
        <pt x="232" y="0" on="1"/>
      </contour>
    </TTGlyph>
    <TTGlyph name="bar" xMin="100" yMin="-330" xMax="244" yMax="726">
      <contour>
        <pt x="100" y="726" on="1"/>
        <pt x="178" y="726" on="0"/>
        <pt x="244" y="665" on="0"/>
        <pt x="244" y="596" on="1"/>
        <pt x="244" y="-211" on="1"/>
        <pt x="244" y="-248" on="0"/>
        <pt x="221" y="-294" on="0"/>
        <pt x="184" y="-320" on="0"/>
        <pt x="135" y="-330" on="0"/>
        <pt x="110" y="-330" on="1"/>
        <pt x="100" y="-330" on="1"/>
      </contour>
    </TTGlyph>
    <TTGlyph name="braceleft" xMin="20" yMin="-250" xMax="328" yMax="726">
      <contour>
        <pt x="164" y="131" on="1"/>
        <pt x="155" y="131" on="1"/>
        <pt x="129" y="131" on="0"/>
        <pt x="81" y="141" on="0"/>
        <pt x="43" y="167" on="0"/>
        <pt x="20" y="211" on="0"/>
        <pt x="20" y="246" on="1"/>
        <pt x="20" y="281" on="0"/>
        <pt x="47" y="326" on="0"/>
        <pt x="88" y="351" on="0"/>
        <pt x="137" y="361" on="0"/>
        <pt x="160" y="361" on="1"/>
        <pt x="164" y="361" on="1"/>
      </contour>
      <contour>
        <pt x="184" y="606" on="1"/>
        <pt x="184" y="640" on="0"/>
        <pt x="208" y="687" on="0"/>
        <pt x="248" y="714" on="0"/>
        <pt x="300" y="726" on="0"/>
        <pt x="328" y="726" on="1"/>
        <pt x="328" y="435" on="1"/>
        <pt x="328" y="398" on="0"/>
        <pt x="305" y="352" on="0"/>
        <pt x="268" y="326" on="0"/>
        <pt x="219" y="316" on="0"/>
        <pt x="194" y="316" on="1"/>
        <pt x="184" y="316" on="1"/>
      </contour>
      <contour>
        <pt x="328" y="-250" on="1"/>
        <pt x="318" y="-250" on="1"/>
        <pt x="292" y="-250" on="0"/>
        <pt x="244" y="-240" on="0"/>
        <pt x="207" y="-213" on="0"/>
        <pt x="184" y="-166" on="0"/>
        <pt x="184" y="-129" on="1"/>
        <pt x="184" y="162" on="1"/>
        <pt x="208" y="162" on="0"/>
        <pt x="259" y="150" on="0"/>
        <pt x="301" y="123" on="0"/>
        <pt x="328" y="76" on="0"/>
        <pt x="328" y="42" on="1"/>
      </contour>
    </TTGlyph>
    <TTGlyph name="braceright" xMin="55" yMin="-250" xMax="363" yMax="726">
      <contour>
        <pt x="219" y="361" on="1"/>
        <pt x="223" y="361" on="1"/>
        <pt x="245" y="361" on="0"/>
        <pt x="295" y="351" on="0"/>
        <pt x="336" y="326" on="0"/>
        <pt x="363" y="281" on="0"/>
        <pt x="363" y="246" on="1"/>
        <pt x="363" y="211" on="0"/>
        <pt x="340" y="167" on="0"/>
        <pt x="302" y="141" on="0"/>
        <pt x="253" y="131" on="0"/>
        <pt x="228" y="131" on="1"/>
        <pt x="219" y="131" on="1"/>
      </contour>
      <contour>
        <pt x="199" y="316" on="1"/>
        <pt x="189" y="316" on="1"/>
        <pt x="163" y="316" on="0"/>
        <pt x="115" y="326" on="0"/>
        <pt x="78" y="352" on="0"/>
        <pt x="55" y="398" on="0"/>
        <pt x="55" y="435" on="1"/>
        <pt x="55" y="726" on="1"/>
        <pt x="79" y="726" on="0"/>
        <pt x="130" y="714" on="0"/>
        <pt x="172" y="687" on="0"/>
        <pt x="199" y="640" on="0"/>
        <pt x="199" y="606" on="1"/>
      </contour>
      <contour>
        <pt x="55" y="42" on="1"/>
        <pt x="55" y="76" on="0"/>
        <pt x="81" y="123" on="0"/>
        <pt x="122" y="150" on="0"/>
        <pt x="173" y="162" on="0"/>
        <pt x="199" y="162" on="1"/>
        <pt x="199" y="-129" on="1"/>
        <pt x="199" y="-166" on="0"/>
        <pt x="176" y="-213" on="0"/>
        <pt x="139" y="-240" on="0"/>
        <pt x="90" y="-250" on="0"/>
        <pt x="65" y="-250" on="1"/>
        <pt x="55" y="-250" on="1"/>
      </contour>
    </TTGlyph>
    <TTGlyph name="bracketleft" xMin="60" yMin="-214" xMax="345" yMax="762">
      <contour>
        <pt x="60" y="762" on="1"/>
        <pt x="345" y="762" on="1"/>
        <pt x="345" y="739" on="0"/>
        <pt x="334" y="694" on="0"/>
        <pt x="308" y="658" on="0"/>
        <pt x="264" y="636" on="0"/>
        <pt x="232" y="636" on="1"/>
        <pt x="186" y="636" on="1"/>
        <pt x="186" y="-88" on="1"/>
        <pt x="232" y="-88" on="1"/>
        <pt x="264" y="-88" on="0"/>
        <pt x="308" y="-111" on="0"/>
        <pt x="334" y="-147" on="0"/>
        <pt x="345" y="-192" on="0"/>
        <pt x="345" y="-214" on="1"/>
        <pt x="60" y="-214" on="1"/>
      </contour>
    </TTGlyph>
    <TTGlyph name="bracketright" xMin="10" yMin="-214" xMax="295" yMax="763">
      <contour>
        <pt x="295" y="763" on="1"/>
        <pt x="295" y="-214" on="1"/>
        <pt x="10" y="-214" on="1"/>
        <pt x="10" y="-192" on="0"/>
        <pt x="21" y="-147" on="0"/>
        <pt x="47" y="-111" on="0"/>
        <pt x="91" y="-88" on="0"/>
        <pt x="123" y="-88" on="1"/>
        <pt x="170" y="-88" on="1"/>
        <pt x="169" y="-83" on="0"/>
        <pt x="169" y="-71" on="1"/>
        <pt x="169" y="636" on="1"/>
        <pt x="123" y="636" on="1"/>
        <pt x="91" y="636" on="0"/>
        <pt x="47" y="658" on="0"/>
        <pt x="21" y="694" on="0"/>
        <pt x="10" y="739" on="0"/>
        <pt x="10" y="762" on="1"/>
        <pt x="277" y="762" on="1"/>
        <pt x="282" y="762" on="0"/>
        <pt x="290" y="763" on="0"/>
      </contour>
    </TTGlyph>
    <TTGlyph name="brokenbar" xMin="100" yMin="-250" xMax="244" yMax="761">
      <contour>
        <pt x="100" y="761" on="1"/>
        <pt x="124" y="761" on="0"/>
        <pt x="175" y="749" on="0"/>
        <pt x="217" y="722" on="0"/>
        <pt x="244" y="675" on="0"/>
        <pt x="244" y="641" on="1"/>
        <pt x="244" y="415" on="1"/>
        <pt x="244" y="378" on="0"/>
        <pt x="221" y="332" on="0"/>
        <pt x="184" y="306" on="0"/>
        <pt x="135" y="296" on="0"/>
        <pt x="110" y="296" on="1"/>
        <pt x="100" y="296" on="1"/>
      </contour>
      <contour>
        <pt x="100" y="220" on="1"/>
        <pt x="124" y="220" on="0"/>
        <pt x="175" y="208" on="0"/>
        <pt x="217" y="181" on="0"/>
        <pt x="244" y="134" on="0"/>
        <pt x="244" y="100" on="1"/>
        <pt x="244" y="-131" on="1"/>
        <pt x="244" y="-168" on="0"/>
        <pt x="221" y="-214" on="0"/>
        <pt x="184" y="-240" on="0"/>
        <pt x="135" y="-250" on="0"/>
        <pt x="110" y="-250" on="1"/>
        <pt x="100" y="-250" on="1"/>
      </contour>
    </TTGlyph>
    <TTGlyph name="c" xMin="45" yMin="0" xMax="400" yMax="508">
      <contour>
        <pt x="179" y="0" on="1"/>
        <pt x="170" y="0" on="1"/>
        <pt x="147" y="0" on="0"/>
        <pt x="102" y="11" on="0"/>
        <pt x="67" y="38" on="0"/>
        <pt x="45" y="82" on="0"/>
        <pt x="45" y="114" on="1"/>
        <pt x="45" y="390" on="1"/>
        <pt x="45" y="426" on="0"/>
        <pt x="69" y="472" on="0"/>
        <pt x="107" y="498" on="0"/>
        <pt x="155" y="508" on="0"/>
        <pt x="179" y="508" on="1"/>
      </contour>
      <contour>
        <pt x="400" y="409" on="1"/>
        <pt x="400" y="394" on="0"/>
        <pt x="391" y="362" on="0"/>
        <pt x="369" y="336" on="0"/>
        <pt x="334" y="320" on="0"/>
        <pt x="308" y="320" on="1"/>
        <pt x="287" y="320" on="0"/>
        <pt x="272" y="324" on="1"/>
        <pt x="272" y="358" on="1"/>
        <pt x="272" y="380" on="0"/>
        <pt x="256" y="410" on="0"/>
        <pt x="233" y="412" on="1"/>
        <pt x="222" y="412" on="0"/>
        <pt x="207" y="405" on="0"/>
        <pt x="200" y="400" on="1"/>
        <pt x="193" y="414" on="0"/>
        <pt x="193" y="432" on="1"/>
        <pt x="193" y="462" on="0"/>
        <pt x="245" y="508" on="0"/>
        <pt x="291" y="508" on="1"/>
        <pt x="298" y="508" on="1"/>
        <pt x="315" y="507" on="0"/>
        <pt x="351" y="495" on="0"/>
        <pt x="381" y="471" on="0"/>
        <pt x="400" y="434" on="0"/>
      </contour>
      <contour>
        <pt x="400" y="97" on="1"/>
        <pt x="400" y="73" on="0"/>
        <pt x="381" y="37" on="0"/>
        <pt x="351" y="13" on="0"/>
        <pt x="315" y="1" on="0"/>
        <pt x="298" y="0" on="1"/>
        <pt x="291" y="0" on="1"/>
        <pt x="245" y="0" on="0"/>
        <pt x="193" y="46" on="0"/>
        <pt x="193" y="76" on="1"/>
        <pt x="193" y="94" on="0"/>
        <pt x="200" y="108" on="1"/>
        <pt x="213" y="96" on="0"/>
        <pt x="230" y="96" on="1"/>
        <pt x="255" y="98" on="0"/>
        <pt x="272" y="128" on="0"/>
        <pt x="272" y="150" on="1"/>
        <pt x="272" y="184" on="1"/>
        <pt x="287" y="188" on="0"/>
        <pt x="308" y="188" on="1"/>
        <pt x="334" y="188" on="0"/>
        <pt x="369" y="172" on="0"/>
        <pt x="391" y="146" on="0"/>
        <pt x="400" y="113" on="0"/>
      </contour>
    </TTGlyph>
    <TTGlyph name="ccedilla" xMin="45" yMin="-208" xMax="400" yMax="508">
      <contour>
        <pt x="179" y="0" on="1"/>
        <pt x="170" y="0" on="1"/>
        <pt x="147" y="0" on="0"/>
        <pt x="102" y="11" on="0"/>
        <pt x="67" y="38" on="0"/>
        <pt x="45" y="82" on="0"/>
        <pt x="45" y="114" on="1"/>
        <pt x="45" y="390" on="1"/>
        <pt x="45" y="426" on="0"/>
        <pt x="69" y="472" on="0"/>
        <pt x="107" y="498" on="0"/>
        <pt x="155" y="508" on="0"/>
        <pt x="179" y="508" on="1"/>
      </contour>
      <contour>
        <pt x="400" y="409" on="1"/>
        <pt x="400" y="394" on="0"/>
        <pt x="391" y="362" on="0"/>
        <pt x="369" y="336" on="0"/>
        <pt x="334" y="320" on="0"/>
        <pt x="308" y="320" on="1"/>
        <pt x="287" y="320" on="0"/>
        <pt x="272" y="324" on="1"/>
        <pt x="272" y="358" on="1"/>
        <pt x="272" y="380" on="0"/>
        <pt x="256" y="410" on="0"/>
        <pt x="233" y="412" on="1"/>
        <pt x="222" y="412" on="0"/>
        <pt x="207" y="405" on="0"/>
        <pt x="200" y="400" on="1"/>
        <pt x="193" y="414" on="0"/>
        <pt x="193" y="432" on="1"/>
        <pt x="193" y="462" on="0"/>
        <pt x="245" y="508" on="0"/>
        <pt x="291" y="508" on="1"/>
        <pt x="298" y="508" on="1"/>
        <pt x="315" y="507" on="0"/>
        <pt x="351" y="495" on="0"/>
        <pt x="381" y="471" on="0"/>
        <pt x="400" y="434" on="0"/>
      </contour>
      <contour>
        <pt x="400" y="97" on="1"/>
        <pt x="400" y="73" on="0"/>
        <pt x="381" y="37" on="0"/>
        <pt x="351" y="13" on="0"/>
        <pt x="315" y="1" on="0"/>
        <pt x="298" y="0" on="1"/>
        <pt x="291" y="0" on="1"/>
        <pt x="245" y="0" on="0"/>
        <pt x="193" y="46" on="0"/>
        <pt x="193" y="76" on="1"/>
        <pt x="193" y="94" on="0"/>
        <pt x="200" y="108" on="1"/>
        <pt x="213" y="96" on="0"/>
        <pt x="230" y="96" on="1"/>
        <pt x="255" y="98" on="0"/>
        <pt x="272" y="128" on="0"/>
        <pt x="272" y="150" on="1"/>
        <pt x="272" y="184" on="1"/>
        <pt x="287" y="188" on="0"/>
        <pt x="308" y="188" on="1"/>
        <pt x="334" y="188" on="0"/>
        <pt x="369" y="172" on="0"/>
        <pt x="391" y="146" on="0"/>
        <pt x="400" y="113" on="0"/>
      </contour>
      <contour>
        <pt x="303" y="-82" on="1"/>
        <pt x="303" y="-106" on="0"/>
        <pt x="293" y="-151" on="0"/>
        <pt x="269" y="-186" on="0"/>
        <pt x="228" y="-208" on="0"/>
        <pt x="197" y="-208" on="1"/>
        <pt x="149" y="-208" on="0"/>
        <pt x="105" y="-159" on="0"/>
        <pt x="105" y="-127" on="1"/>
        <pt x="105" y="-119" on="0"/>
        <pt x="109" y="-97" on="0"/>
        <pt x="111" y="-89" on="1"/>
        <pt x="114" y="-98" on="0"/>
        <pt x="133" y="-107" on="0"/>
        <pt x="141" y="-107" on="1"/>
        <pt x="162" y="-107" on="0"/>
        <pt x="178" y="-82" on="0"/>
        <pt x="178" y="-62" on="1"/>
        <pt x="178" y="-12" on="1"/>
        <pt x="190" y="-17" on="0"/>
        <pt x="231" y="-20" on="0"/>
        <pt x="253" y="-20" on="1"/>
        <pt x="282" y="-20" on="0"/>
        <pt x="303" y="-17" on="1"/>
      </contour>
    </TTGlyph>
    <TTGlyph name="cedilla" xMin="60" yMin="-208" xMax="258" yMax="-12">
      <contour>
        <pt x="258" y="-82" on="1"/>
        <pt x="258" y="-106" on="0"/>
        <pt x="248" y="-151" on="0"/>
        <pt x="224" y="-186" on="0"/>
        <pt x="183" y="-208" on="0"/>
        <pt x="152" y="-208" on="1"/>
        <pt x="104" y="-208" on="0"/>
        <pt x="60" y="-159" on="0"/>
        <pt x="60" y="-127" on="1"/>
        <pt x="60" y="-119" on="0"/>
        <pt x="64" y="-97" on="0"/>
        <pt x="66" y="-89" on="1"/>
        <pt x="69" y="-98" on="0"/>
        <pt x="88" y="-107" on="0"/>
        <pt x="96" y="-107" on="1"/>
        <pt x="117" y="-107" on="0"/>
        <pt x="133" y="-82" on="0"/>
        <pt x="133" y="-62" on="1"/>
        <pt x="133" y="-12" on="1"/>
        <pt x="145" y="-17" on="0"/>
        <pt x="186" y="-20" on="0"/>
        <pt x="208" y="-20" on="1"/>
        <pt x="237" y="-20" on="0"/>
        <pt x="258" y="-17" on="1"/>
      </contour>
    </TTGlyph>
    <TTGlyph name="cent" xMin="55" yMin="-143" xMax="410" yMax="652">
      <contour>
        <pt x="189" y="0" on="1"/>
        <pt x="180" y="0" on="1"/>
        <pt x="157" y="0" on="0"/>
        <pt x="112" y="11" on="0"/>
        <pt x="77" y="38" on="0"/>
        <pt x="55" y="82" on="0"/>
        <pt x="55" y="114" on="1"/>
        <pt x="55" y="390" on="1"/>
        <pt x="55" y="426" on="0"/>
        <pt x="79" y="472" on="0"/>
        <pt x="117" y="498" on="0"/>
        <pt x="165" y="508" on="0"/>
        <pt x="189" y="508" on="1"/>
      </contour>
      <contour>
        <pt x="410" y="409" on="1"/>
        <pt x="410" y="394" on="0"/>
        <pt x="399" y="362" on="0"/>
        <pt x="375" y="337" on="0"/>
        <pt x="338" y="321" on="0"/>
        <pt x="312" y="321" on="1"/>
        <pt x="304" y="321" on="0"/>
        <pt x="292" y="322" on="0"/>
        <pt x="282" y="324" on="1"/>
        <pt x="282" y="358" on="1"/>
        <pt x="282" y="378" on="0"/>
        <pt x="266" y="412" on="0"/>
        <pt x="243" y="412" on="1"/>
        <pt x="232" y="412" on="0"/>
        <pt x="217" y="405" on="0"/>
        <pt x="210" y="400" on="1"/>
        <pt x="203" y="414" on="0"/>
        <pt x="203" y="432" on="1"/>
        <pt x="203" y="462" on="0"/>
        <pt x="255" y="508" on="0"/>
        <pt x="301" y="508" on="1"/>
        <pt x="320" y="508" on="0"/>
        <pt x="359" y="496" on="0"/>
        <pt x="390" y="471" on="0"/>
        <pt x="410" y="434" on="0"/>
      </contour>
      <contour>
        <pt x="410" y="97" on="1"/>
        <pt x="410" y="73" on="0"/>
        <pt x="390" y="36" on="0"/>
        <pt x="359" y="12" on="0"/>
        <pt x="322" y="0" on="0"/>
        <pt x="306" y="0" on="1"/>
        <pt x="255" y="0" on="0"/>
        <pt x="203" y="46" on="0"/>
        <pt x="203" y="76" on="1"/>
        <pt x="203" y="94" on="0"/>
        <pt x="210" y="108" on="1"/>
        <pt x="223" y="96" on="0"/>
        <pt x="240" y="96" on="1"/>
        <pt x="265" y="98" on="0"/>
        <pt x="282" y="128" on="0"/>
        <pt x="282" y="150" on="1"/>
        <pt x="282" y="184" on="1"/>
        <pt x="297" y="188" on="0"/>
        <pt x="313" y="188" on="1"/>
        <pt x="339" y="188" on="0"/>
        <pt x="376" y="172" on="0"/>
        <pt x="399" y="146" on="0"/>
        <pt x="410" y="113" on="0"/>
      </contour>
      <contour>
        <pt x="195" y="-15" on="1"/>
        <pt x="202" y="-18" on="0"/>
        <pt x="236" y="-22" on="0"/>
        <pt x="255" y="-22" on="1"/>
        <pt x="272" y="-22" on="0"/>
        <pt x="299" y="-19" on="0"/>
        <pt x="304" y="-16" on="1"/>
        <pt x="304" y="-142" on="1"/>
        <pt x="300" y="-142" on="0"/>
        <pt x="294" y="-143" on="0"/>
        <pt x="291" y="-143" on="1"/>
        <pt x="267" y="-143" on="0"/>
        <pt x="231" y="-127" on="0"/>
        <pt x="207" y="-102" on="0"/>
        <pt x="195" y="-72" on="0"/>
        <pt x="195" y="-58" on="1"/>
      </contour>
      <contour>
        <pt x="195" y="567" on="1"/>
        <pt x="195" y="581" on="0"/>
        <pt x="207" y="611" on="0"/>
        <pt x="231" y="636" on="0"/>
        <pt x="267" y="652" on="0"/>
        <pt x="291" y="652" on="1"/>
        <pt x="294" y="652" on="0"/>
        <pt x="300" y="651" on="0"/>
        <pt x="304" y="651" on="1"/>
        <pt x="304" y="525" on="1"/>
        <pt x="299" y="528" on="0"/>
        <pt x="272" y="531" on="0"/>
        <pt x="255" y="531" on="1"/>
        <pt x="236" y="531" on="0"/>
        <pt x="202" y="527" on="0"/>
        <pt x="195" y="524" on="1"/>
      </contour>
    </TTGlyph>
    <TTGlyph name="colon" xMin="55" yMin="-7" xMax="199" yMax="481">
      <contour>
        <pt x="55" y="408" on="1"/>
        <pt x="55" y="439" on="0"/>
        <pt x="97" y="481" on="0"/>
        <pt x="126" y="481" on="1"/>
        <pt x="157" y="481" on="0"/>
        <pt x="199" y="439" on="0"/>
        <pt x="199" y="408" on="1"/>
        <pt x="199" y="379" on="0"/>
        <pt x="157" y="337" on="0"/>
        <pt x="126" y="337" on="1"/>
        <pt x="97" y="337" on="0"/>
        <pt x="55" y="379" on="0"/>
      </contour>
      <contour>
        <pt x="55" y="64" on="1"/>
        <pt x="55" y="95" on="0"/>
        <pt x="97" y="137" on="0"/>
        <pt x="126" y="137" on="1"/>
        <pt x="157" y="137" on="0"/>
        <pt x="199" y="95" on="0"/>
        <pt x="199" y="64" on="1"/>
        <pt x="199" y="35" on="0"/>
        <pt x="157" y="-7" on="0"/>
        <pt x="126" y="-7" on="1"/>
        <pt x="97" y="-7" on="0"/>
        <pt x="55" y="35" on="0"/>
      </contour>
    </TTGlyph>
    <TTGlyph name="comma" xMin="45" yMin="-142" xMax="163" yMax="117">
      <contour>
        <pt x="45" y="14" on="1"/>
        <pt x="45" y="41" on="0"/>
        <pt x="64" y="80" on="0"/>
        <pt x="94" y="105" on="0"/>
        <pt x="134" y="117" on="0"/>
        <pt x="155" y="117" on="1"/>
        <pt x="163" y="117" on="1"/>
        <pt x="163" y="-29" on="1"/>
        <pt x="163" y="-61" on="0"/>
        <pt x="143" y="-105" on="0"/>
        <pt x="110" y="-131" on="0"/>
        <pt x="67" y="-142" on="0"/>
        <pt x="45" y="-142" on="1"/>
      </contour>
    </TTGlyph>
</ttFont>
